<svg xmlns="http://www.w3.org/2000/svg" xmlns:xlink="http://www.w3.org/1999/xlink" viewBox="0 0 51.3 42.68"><defs><style>.cls-1{fill:#f8fcfe;}.cls-2{fill:#feb51a;}.cls-3{fill:#fff;}.cls-4{fill:url(#Degradado_sin_nombre_21);}.cls-5{fill:url(#Degradado_sin_nombre_21-2);}.cls-6{fill:#990707;}.cls-7{fill:#274972;}.cls-8{fill:url(#Degradado_sin_nombre_21-3);}.cls-9{fill:#2a1b12;}.cls-10{fill:#2b180d;}.cls-11{fill:#f5eedb;}.cls-12{fill:#fbfaf6;}.cls-13{fill:#f9f5ea;}.cls-14{fill:#f7f0de;}.cls-15{fill:#fbf7f0;}.cls-16{fill:#eef9fd;}.cls-17{fill:#faf7ee;}.cls-18{fill:#f2ead3;}.cls-19{fill:#f7f1e2;}.cls-20{fill:#f6fbfe;}.cls-21{fill:#f8f2e3;}.cls-22{fill:#baccda;}.cls-23{fill:#fcf9f3;}.cls-24{fill:#fcf8f4;}.cls-25{fill:#b9ccda;}.cls-26{fill:#f4ead1;}.cls-27{fill:#fbf7f1;}.cls-28{fill:#fbfaf5;}.cls-29{fill:#dcc3a4;}.cls-30{fill:#fbf8f1;}.cls-31{fill:#dbc3a5;}.cls-32{fill:#fdfcfa;}.cls-33{fill:#faf7ef;}.cls-34{fill:#dbc4a5;}.cls-35{fill:#dcc3a5;}.cls-36{fill:#ddc2a4;}.cls-37{fill:#ddc3a5;}.cls-38{fill:#faf3e9;}.cls-39{fill:#edf8fc;}.cls-40{fill:#dac5a4;}.cls-41{fill:#bacbda;}.cls-42{fill:#ddc5a7;}.cls-43{fill:#dac3a5;}.cls-44{fill:#ddc5a8;}.cls-45{fill:#d8c4a4;}.cls-46{fill:#eff9fc;}.cls-47{fill:#dbc4a6;}.cls-48{fill:#dac2a6;}.cls-49{fill:#dac3a6;}.cls-50{fill:#dcc3a8;}.cls-51{fill:#dac4a7;}.cls-52{fill:#b9ccd8;}.cls-53{fill:#d9c5aa;}.cls-54{fill:#d5c2a9;}.cls-55{fill:#d3c1a8;}.cls-56{fill:#d7c2aa;}.cls-57{fill:#060000;}.cls-58{fill:#e52e25;}.cls-59{fill:#ee392d;}.cls-60{fill:#f64739;}.cls-61{fill:#fefee7;}.cls-62{fill:#b60203;}.cls-63{fill:#e73127;}.cls-64{fill:#fefef3;}.cls-65{fill:#b50205;}.cls-66{fill:#f54537;}.cls-67{fill:#e12a23;}.cls-68{fill:#e27202;}.cls-69{fill:#fca512;}.cls-70{fill:#b60303;}.cls-71{fill:#f34738;}.cls-72{fill:#211e19;}.cls-73{fill:#df7307;}.cls-74{fill:#e93b32;}.cls-75{fill:#b30507;}.cls-76{fill:#0d0a07;}.cls-77{fill:#d8c2a7;}.cls-78{fill:#f58f0f;}.cls-79{fill:#ecb32c;}.cls-80{fill:#c61e1a;}.cls-81{fill:#e99419;}.cls-82{fill:#e2ddd0;}.cls-83{fill:#cd6e11;}.cls-84{fill:#cebfa9;}.cls-85{fill:#ab6f34;}.cls-86{fill:#2a2017;}.cls-87{fill:#dcc3a2;}.cls-88{fill:#1c1917;}.cls-89{fill:#fe7771;}.cls-90{fill:#fe7772;}.cls-91{fill:#fe7671;}.cls-92{fill:#fecc48;}.cls-93{fill:#fdfdf8;}.cls-94{fill:#29190d;}.cls-95{fill:#fd7670;}.cls-96{fill:#fb6a5d;}</style><linearGradient id="Degradado_sin_nombre_21" x1="37.5" y1="38.48" x2="50.92" y2="38.48" gradientUnits="userSpaceOnUse"><stop offset="0" stop-color="#b60203"/><stop offset="1" stop-color="#e93b32"/></linearGradient><linearGradient id="Degradado_sin_nombre_21-2" x1="0.19" y1="38.41" x2="13.31" y2="38.41" xlink:href="#Degradado_sin_nombre_21"/><linearGradient id="Degradado_sin_nombre_21-3" x1="7.17" y1="35.4" x2="45.12" y2="35.4" xlink:href="#Degradado_sin_nombre_21"/></defs><g id="Capa_2" data-name="Capa 2"><g id="Capa_1-2" data-name="Capa 1"><path class="cls-1" d="M27.32,38.84a11.25,11.25,0,1,1,8-3.3A11.17,11.17,0,0,1,27.32,38.84Z"/><circle class="cls-2" cx="27.1" cy="27.14" r="10.43"/><path class="cls-3" d="M50,42.68h0l-8-.91a.21.21,0,0,1-.13-.05l-3.43-.37a1.18,1.18,0,0,1-1.1-1.18.29.29,0,0,1,.29-.27h0a.28.28,0,0,1,.28.27.55.55,0,0,0,.14.38c1.31,0,4.27-.09,5.24-.12a.27.27,0,0,1,.19-.08h.06l.1,0,.2,0,.18,0a.73.73,0,0,0,.68-.4c.1-1.8.17-3.63.21-5.45a.3.3,0,0,1,.1-.21.32.32,0,0,1,.19-.07h0l.58.06,5.27.61a.3.3,0,0,1,.24.22.28.28,0,0,1-.11.3l-4.06,2.93,3.08,3.78a.29.29,0,0,1,0,.31A.28.28,0,0,1,50,42.68Z"/><path class="cls-3" d="M1.32,42.68a.27.27,0,0,1-.25-.15.29.29,0,0,1,0-.31l3.07-3.78-4-2.93a.28.28,0,0,1-.11-.3A.3.3,0,0,1,.25,35l5.27-.61,1.84-.2h0a.31.31,0,0,1,.2.07.32.32,0,0,1,.09.23c-.09,1.85-.13,3.72-.12,5.56a.62.62,0,0,0,.39.35l.07,0H8.3c1.14,0,3.93.12,5.11.12a.29.29,0,0,1,.27.19.3.3,0,0,1-.09.32,1.36,1.36,0,0,1-.71.29l-3.42.37a.24.24,0,0,1-.13.05l-8,.91Z"/><path class="cls-3" d="M13.41,41.12c-1.15,0-3.7-.07-5.13-.11A.3.3,0,0,1,8,40.72a.28.28,0,0,1,.28-.28l.13,0c1.72-.36,3.48-.67,5.25-.93h.05a.29.29,0,0,1,.28.22c.22,1-.43,1.37-.46,1.38l-.12,0Z"/><path class="cls-1" d="M8.09,41H7.75a.28.28,0,0,1-.27-.22.28.28,0,0,1,.15-.32l.09,0a.2.2,0,0,1,.13,0l.1,0,.18,0a.28.28,0,0,1,.25.31A.28.28,0,0,1,8.1,41Z"/><path class="cls-3" d="M37.93,41.12l-.12,0a1,1,0,0,1-.5-.89,1.8,1.8,0,0,1,0-.5s0-.06,0-.1a.29.29,0,0,1,.29-.23h0c1.95.26,3.9.59,5.81,1l.07,0,.13.07a.28.28,0,0,1,.15.32.28.28,0,0,1-.27.22S39.44,41.12,37.93,41.12Z"/><path class="cls-3" d="M44,41a1.53,1.53,0,0,1-.3,0l-.2,0-.1,0c-1.89-.39-3.83-.72-5.77-1a86.34,86.34,0,0,0-23.87.12c-1.76.25-3.52.56-5.22.92L8.3,41H8.07a1.65,1.65,0,0,1-.32-.07A1.16,1.16,0,0,1,7,40.17a.19.19,0,0,1,0-.08c0-1.86,0-3.76.12-5.64,0-.59.06-1.13.09-1.65a1,1,0,0,1,.14-.72,1.44,1.44,0,0,1,1-.61,98.23,98.23,0,0,1,36.07.08,1.47,1.47,0,0,1,1,.62,1,1,0,0,1,.13.73l0,1.71c0,1.84-.11,3.69-.21,5.5,0,0,0,0,0,.06A1.24,1.24,0,0,1,44,41Z"/><path class="cls-4" d="M50.92,35.26l-5.27-.62-.58-.06c0,1.83-.11,3.66-.22,5.49a1,1,0,0,1-1.2.61l-.3-.06.13.06s-4.12.13-5.64.13a.73.73,0,0,1-.34-.64.88.88,0,0,0,.85.87l3.56.39v0l8,.91-3.27-4Z"/><path class="cls-5" d="M13.31,40.81c-1.19,0-4-.08-5.12-.11H7.67l.08,0a.91.91,0,0,1-.58-.57c0-1.87,0-3.75.12-5.63l-1.84.2-5.26.62,4.3,3.1-3.26,4,8-.91v0L12.76,41A1,1,0,0,0,13.31,40.81Z"/><path class="cls-6" d="M13.61,39.75q-2.62.38-5.24.93l-.18,0c1.17,0,3.93.11,5.12.11h0S13.79,40.59,13.61,39.75Z"/><path class="cls-7" d="M8,40.69l-.25,0-.08,0Z"/><path class="cls-6" d="M43.48,40.68l-.13-.06c-1.91-.4-3.85-.73-5.79-1,0,0,0,.08,0,.11a1.37,1.37,0,0,0,0,.43.73.73,0,0,0,.34.64C39.36,40.81,43.48,40.68,43.48,40.68Z"/><path class="cls-8" d="M44.22,31.81a98.13,98.13,0,0,0-36-.08c-.61.11-1,.57-.88,1l-.09,1.69c-.08,1.88-.12,3.76-.12,5.63a.91.91,0,0,0,.58.57l.25,0h.19l.18,0q2.61-.55,5.24-.93a86.54,86.54,0,0,1,24-.12c1.94.26,3.88.59,5.79,1l.3.06a1,1,0,0,0,1.2-.61c.11-1.83.18-3.66.22-5.49l0-1.74C45.22,32.39,44.83,31.93,44.22,31.81Z"/><path class="cls-9" d="M33.05,33.49a.56.56,0,0,1-.15-.69c-.13,0-.25.08-.37.1a2.27,2.27,0,0,1-.52,0,.45.45,0,0,1-.4-.54,3.84,3.84,0,0,1,.11-.46c-.23-.09-.51-.18-.77-.31a9,9,0,0,1-1.6-1.05L29,30.29a1.23,1.23,0,0,0-.65-.31.49.49,0,0,1-.21-.08c-.13-.12-.22-.07-.34,0a4.7,4.7,0,0,1-3.47.94,5.79,5.79,0,0,1-.83-.16,1,1,0,0,1-.36-.24.2.2,0,0,0-.2-.07,4.63,4.63,0,0,1-1.34,0,2.08,2.08,0,0,1-.84-.31.64.64,0,0,1,0-1.17l.14-.07a9.33,9.33,0,0,1-1.15-2.07,8.45,8.45,0,0,1-.63-2.29,5.53,5.53,0,0,1-2.27.74,2.34,2.34,0,0,1,.27.28c.16.2.12.35-.11.46a1,1,0,0,1-.67.09l-.28,0c.08.1.15.18.21.27a.46.46,0,0,1,.06.49.44.44,0,0,1-.45.23,2.29,2.29,0,0,1-1.49-.59.23.23,0,0,1-.05-.05,2,2,0,0,1-.06.28c-.06.24-.12.29-.34.2a2.67,2.67,0,0,1-.66-.37,2.92,2.92,0,0,1-1-2.35.36.36,0,0,0,0-.18,4.81,4.81,0,0,1-.52-2.47,10.19,10.19,0,0,1,.95-3.84c.19-.43.4-.85.58-1.28a2.75,2.75,0,0,0,.16-.56,1.26,1.26,0,0,0-.06-.66,4.53,4.53,0,0,1-.22-2,5.39,5.39,0,0,0-.42-2.8c-.08-.2-.17-.4-.26-.6a3.19,3.19,0,0,1-.42-1.26l.07-.3a1.06,1.06,0,0,1,1.5-.26,3.85,3.85,0,0,1,1,.72.5.5,0,0,0,0-.13A8.08,8.08,0,0,1,14,6.69a1.07,1.07,0,0,1,.15-.8,1,1,0,0,1,1.31-.34,3.11,3.11,0,0,1,1.14,1,6.88,6.88,0,0,1,1,1.74,5.9,5.9,0,0,1,.17.6,3.82,3.82,0,0,1,1.35,0,1.52,1.52,0,0,1,1.38,1.76,6.63,6.63,0,0,1-.11.76,6.79,6.79,0,0,0-.07,1.19c0,.27-.07.54-.1.81a.15.15,0,0,0,.05.14c.07.07.17.13.24.21a.49.49,0,0,1,0,.74,1.45,1.45,0,0,1-.21.22.38.38,0,0,0-.13.36q0,.3.12.6a1.94,1.94,0,0,1,.1.83,1.51,1.51,0,0,1-.72,1,2.8,2.8,0,0,1-1.28.44c-.1,0-.13,0-.15.14-.06.35-.15.69-.22,1s-.07.48-.1.72A.41.41,0,0,0,18,20c.13.27.13.27.43.23a2.6,2.6,0,0,0,1.1-.39c.31-.22.67-.38,1-.6a4.93,4.93,0,0,0,1.11-1.26s0,0,0,0c-.25-.23-.28-.45,0-.76a4.61,4.61,0,0,1,.6-.47c.19-.15.39-.28.58-.42a.77.77,0,0,0,.29-.47c.13-.61.25-1.23.39-1.84a11.67,11.67,0,0,1,1-2.92l.17-.36a.25.25,0,0,1,.3-.1c0,.08-.09.13-.12.2s-.05.16-.08.24c-.12.24-.25.49-.36.74a16.82,16.82,0,0,0-1,3.67c-.1.29-.2.58-.31.87a3.14,3.14,0,0,1-.28.46s-.05,0-.07,0a.12.12,0,0,1,0-.08l.09-.19-.57.43a5.3,5.3,0,0,0-.52.42c-.16.16-.13.32.08.44a1,1,0,0,0,.79.15c.28-.06.55-.19.83-.28s.1.14,0,.23a1.72,1.72,0,0,0-.34.81.79.79,0,0,0,.4.82.78.78,0,0,0,.91-.12.33.33,0,0,0,.07-.13,3,3,0,0,0,.06-.32h0a.9.9,0,0,1-.14.66l-.15.08a1,1,0,0,1-1.12-.14,1.05,1.05,0,0,1-.25-1,4.4,4.4,0,0,1,.18-.55,1.55,1.55,0,0,1-1.33,0c-.08,0-.11,0-.14.07a5.61,5.61,0,0,1-.81,1.12l-1,.63-.72.48a1.39,1.39,0,0,0-.21.21.31.31,0,0,0,.18.52,1,1,0,0,0,.41,0c.25-.05.49-.14.74-.21.05,0,.14,0,.17,0s0,.11,0,.17l-.06.1a2.76,2.76,0,0,0-.57,1.18,1.16,1.16,0,0,0,.14.85c.16.23.37.27.56.05A3.45,3.45,0,0,0,21,22.6c.07-.12.12-.15.23-.07v0a4,4,0,0,0,.11,1.71c.11.36.36.52.65.31l0,0c.08,0,.1,0,.07.11l-.28.17a.4.4,0,0,1-.5-.16.62.62,0,0,1-.14-.25c-.06-.28-.12-.57-.17-.86s0-.33,0-.53a1.3,1.3,0,0,1-.68.53.51.51,0,0,1-.47-.33,1.46,1.46,0,0,1-.17-.68A2.65,2.65,0,0,1,20,21.29l.07-.15a1,1,0,0,1-.25.07c-.25,0-.32.16-.37.38a8.76,8.76,0,0,0,0,3.57,10.32,10.32,0,0,0,1.43,3.32c.06.1.13.19.23.33a8.17,8.17,0,0,0,.68-1.6l.47-1.63a2.7,2.7,0,0,1,.33-.76,1.3,1.3,0,0,1,1.29-.72,7.28,7.28,0,0,1,1.12.19l1.21.3.16.06,1.9.51a3.38,3.38,0,0,0,.6.17c.53,0,1,0,1.58,0-.07-.21-.14-.37-.19-.54A6.86,6.86,0,0,1,30,22.92a1.48,1.48,0,0,0-.21-.74l0,0,.1.14h0l0-.38,0-.36h.05a2,2,0,0,1,.07.23l.09.58.21,1.4v.09c.14.46.27.91.41,1.36a.14.14,0,0,0,.11.06l1,0H32l.83.12a.72.72,0,0,1,.51.24l-.46-.15.64.69a.87.87,0,0,1,0,.1,1.7,1.7,0,0,1-.14-.1,1.79,1.79,0,0,0-1.06-.63,7.6,7.6,0,0,0-1.07-.05c-.57,0-1.14.05-1.71.08l0,0c.31.14.63.27.94.42a2.57,2.57,0,0,1,.44.29c-.16-.06-.32-.1-.47-.17a23.62,23.62,0,0,0-3-.93L26.1,24.8l1.7.41c0-.05,0-.06-.06-.06l-2.55-.62a.56.56,0,0,0-.13,0c-.25-.05-.5-.12-.75-.16a1.3,1.3,0,0,0-1.61.83.36.36,0,0,0,0,.09c-.2.7-.41,1.39-.62,2.09l-.49,1.22a3.17,3.17,0,0,0,1.64-1.06l.41-.43c.35-.35.7-.71,1.06-1.06a3.77,3.77,0,0,1,.39-.26l0,0-.08.1c-.63.67-1.25,1.34-1.87,2a2.66,2.66,0,0,1-1.08.73l-.32.13a7.27,7.27,0,0,0-.81.34c-.39.22-.37.57,0,.79a2.7,2.7,0,0,0,.53.22,4,4,0,0,0,1.5,0,.16.16,0,0,0,.11-.07.94.94,0,0,1,.41-.45c.41-.26.83-.51,1.24-.78s.62-.45.93-.67a3.59,3.59,0,0,0,.86-1,3.11,3.11,0,0,1,.39-.49.53.53,0,0,1,.5-.15,1.7,1.7,0,0,0-.8.85,3.06,3.06,0,0,1-.79,1c-.42.32-.87.62-1.31.93l-.09.06c-.29.17-.57.34-.85.53-.12.07-.28.17-.25.33s.22.22.37.26a4.35,4.35,0,0,0,1.29.16,4.64,4.64,0,0,0,3.75-2.07s.05.06.05.08-.06.18-.08.27l-.36.48a.84.84,0,0,0,.5-.31l0,0a0,0,0,0,0,0,0,1,1,0,0,1-.69.44,2,2,0,0,0,1.52.15,2,2,0,0,0,1.3-.89l0,.18-.38.49a2.62,2.62,0,0,1-1.53.55c.6.41,1.19.82,1.81,1.2a2.42,2.42,0,0,0,1.2.37,3.15,3.15,0,0,0,1.8-.49l.4-.23v0s0,0,0,.07a3.19,3.19,0,0,1-1.65.87l-.57,0a.14.14,0,0,0-.11.06c0,.12-.08.25-.11.37a.27.27,0,0,0,.24.35,1.45,1.45,0,0,0,.47,0,2.09,2.09,0,0,0,1.36-1v.08l-.4.66-.28.21a.57.57,0,0,0-.11.59.28.28,0,0,0,.33.08,2.73,2.73,0,0,0,.84-.49,1.65,1.65,0,0,0,.67-1.18,2,2,0,0,1,0-.25.28.28,0,0,1,.07-.09v.28l-.06.76a.4.4,0,0,0,.37-.3,10.9,10.9,0,0,0,.4-1.3,7.61,7.61,0,0,0,.09-1,10,10,0,0,0-.67-3.36c-.22-.57-.42-1.16-.66-1.73s-.61-1.35-.93-2c-.15-.31-.33-.6-.49-.9a10.32,10.32,0,0,0-.73-.88,1.82,1.82,0,0,0-1.72-.59.72.72,0,0,0-.6.47c0,.12-.07.25-.1.37l-.06-.25a.84.84,0,0,1,.34-.63,2.27,2.27,0,0,1-1.17-1,1.83,1.83,0,0,1,0,.35,1,1,0,0,1-.33.79l-.06-.15a1.16,1.16,0,0,0,.14-.24,3.1,3.1,0,0,0,.09-1.32,0,0,0,0,0,0,0c.12-.08.15,0,.19.09A1.94,1.94,0,0,0,30.33,20a.69.69,0,0,0,.7-.12.27.27,0,0,0,.13-.32A1,1,0,0,0,30.7,19a1.89,1.89,0,0,1-.15-1.07,10.38,10.38,0,0,1,.24-1.26c.21-.79.45-1.57.67-2.35.07-.28.09-.57.14-.85s0-.48,0-.72a5.43,5.43,0,0,0,0-.57A4.87,4.87,0,0,0,31,9.8l.13-.35.07.22a.32.32,0,0,0,0,.09,4.7,4.7,0,0,1,.54,1.45l.1.84c.17-.34.34-.68.5-1a.16.16,0,0,0,0-.1,2.15,2.15,0,0,0-.25-.93,1.6,1.6,0,0,0-.1-.23,5.78,5.78,0,0,0-.9-1.24l.1,0a3.8,3.8,0,0,1,.8.94,3.62,3.62,0,0,1,.52,1.3l.5-.65c-.21-.24-.43-.46-.61-.7a1.1,1.1,0,0,1-.21-1.14s0,0,0,0L31.52,8l-.72-.29.09.25s-.11,0-.11-.07-.06-.28-.09-.42l.17,0a7.21,7.21,0,0,0,2.28.66,2.63,2.63,0,0,0,1.8-.3s0,0,.05,0a2.35,2.35,0,0,1-1,.48,4.35,4.35,0,0,1-1.44,0c-.12,0-.14,0-.16.12a1.11,1.11,0,0,0,.23.86,4.18,4.18,0,0,0,1.5,1.2,2.23,2.23,0,0,0,1.29.29,3.52,3.52,0,0,0,2.29-1.09A2,2,0,0,0,38.33,8,2.5,2.5,0,0,0,36.94,5.9a2.15,2.15,0,0,1-.57.77l0,0,.08-.18L36.63,6a.67.67,0,0,0,.06-.12,1,1,0,0,1,.06-.36.87.87,0,0,0,.07-.63,3.13,3.13,0,0,0-.71-1.62,5.6,5.6,0,0,0-3.75-2A3.35,3.35,0,0,0,30,1.9a4,4,0,0,0-1.36,1.5l.07-.31a3.36,3.36,0,0,1,1.86-1.77l0-.08A1.9,1.9,0,0,0,29.3.35,2.91,2.91,0,0,0,26.55,1a3,3,0,0,0-1,1.57,1.89,1.89,0,0,0,.13,1.49c0,.05.1.08.15.13l.07.08c-.15,0-.33,0-.45-.14a1.75,1.75,0,0,1-.23-1.22A3.35,3.35,0,0,1,28.52,0L29,0l.63.15.34.17a1.8,1.8,0,0,1,.85.91,4.76,4.76,0,0,1,4,.63,4.85,4.85,0,0,1,1.86,1.79A2.56,2.56,0,0,1,37,5.55c0,.09,0,.11.08.14a2.77,2.77,0,0,1,1.46,2.14,2.1,2.1,0,0,1-.49,1.78A3.6,3.6,0,0,1,35.23,11a3,3,0,0,1-1.72-.65,1.37,1.37,0,0,1-.21-.15,5.12,5.12,0,0,0-.86,1.26,12.37,12.37,0,0,0-.53,1.36,4.17,4.17,0,0,0-.1.79,13.38,13.38,0,0,1-.49,2.08,11.48,11.48,0,0,0-.55,2,4,4,0,0,0,0,.69.7.7,0,0,0,.14.32c.12.18.26.33.38.51a.61.61,0,0,1,0,.81,4.6,4.6,0,0,1,.65.25,3.67,3.67,0,0,1,1.41,1.41,21.54,21.54,0,0,1,1.32,2.63,19,19,0,0,1,1.2,3.37A7.71,7.71,0,0,1,36,30.51a.08.08,0,0,0,0,0l-.26,1.09-.13.23c-.09.14-.17.3-.27.43a.36.36,0,0,1-.42.16.18.18,0,0,0-.2.08,2.57,2.57,0,0,1-1.5,1ZM17.88,12.38c0-.32-.07-.65-.08-1,0-.13,0-.18-.17-.19a7.32,7.32,0,0,0-2.28.24,4.67,4.67,0,0,0-1.3.55l-.21.11,0,0L14,12c.36-.2.73-.39,1.1-.58.06,0,.15,0,.13-.13-.08-.47-.17-.93-.25-1.4a2.74,2.74,0,0,0-1.43-1.76,1.77,1.77,0,0,0-.46-.15.62.62,0,0,0-.77.79,1.68,1.68,0,0,0,.12.38c.14.34.3.67.45,1l0,.11a6.78,6.78,0,0,1,.44,1.66c0,.21,0,.41.05.63l.2-.25,0,0a3,3,0,0,0-.34,1.34,3.42,3.42,0,0,0,.29,1.58c0,.06,0,.11.05.16A2.89,2.89,0,0,0,15.18,17l.15.1,0,0-.51-.19a2.88,2.88,0,0,1-1.2-1.22,4.22,4.22,0,0,1-.41,1.4,12.34,12.34,0,0,0-1.12,3.4,7.16,7.16,0,0,0,0,2.31c.06.29.15.56.23.84h0l.08-.23h0a.57.57,0,0,1,0,.18,3.41,3.41,0,0,0,.22,1.67A2.43,2.43,0,0,0,14,26.67c.12,0,.16,0,.19-.09a1.09,1.09,0,0,0-.08-.69l-.1-.3s.07,0,.08,0l.2.4a.72.72,0,0,0,.12.21,2.25,2.25,0,0,0,1.53.64c.31,0,.42-.2.24-.45a4,4,0,0,0-.45-.47l-.06-.13c0-.08.11-.05.18,0a2.38,2.38,0,0,0,.45.15.94.94,0,0,0,.66-.05.23.23,0,0,0,.14-.15c0-.13-.28-.43-.42-.43l-.38,0-.87-.16a1.24,1.24,0,0,1,.33,0,6.14,6.14,0,0,0,1.86-.2A4.57,4.57,0,0,0,19,24.32a.22.22,0,0,0,.1-.15c0-.42,0-.83,0-1.24l.11-1,.16-.64a.65.65,0,0,1-.63-.32c-.13-.24,0-.46.12-.67l-.64.08.09.51a4.09,4.09,0,0,1-.23,1.39V22c-.38.46-.64.66-.85.65a2.45,2.45,0,0,0,.8-1,2.2,2.2,0,0,0,0-1.27l-.07.11s-.06,0-.07-.06a1.34,1.34,0,0,1-.07-.27c0-.26,0-.52,0-.77l.35-1.44-.71-.12-.15-.07a.35.35,0,0,1,.13,0c.18,0,.37,0,.55,0a2.83,2.83,0,0,0,1.89-.65A1.11,1.11,0,0,0,20.21,16L20,15l-.08.13A.17.17,0,0,1,20,15a1.5,1.5,0,0,1,.38-.61c.23-.26.21-.43-.06-.65l-.11-.08c-.07,0-.11,0-.19,0a1.25,1.25,0,0,1-.43.12,1.48,1.48,0,0,1-.73-.22.14.14,0,0,0-.2,0,1.37,1.37,0,0,0-.46.65,1.77,1.77,0,0,0,.26,1.66l0,.11h0L18,15.62a.85.85,0,0,0,0,.57.64.64,0,0,1-.13-.65.33.33,0,0,0,0-.14c0-.23-.08-.45-.09-.68s-.05-.15-.16-.14a1,1,0,0,0-.64.32l-.12.12a.84.84,0,0,1,.83-.61c.07,0,.12,0,.16-.09s.22-.44.33-.66l.27-.26A2.12,2.12,0,0,1,17.88,12.38Zm-.1-2.21c0,.24-.05.47-.06.71,0,.06-.08.16.05.18s.06-.1.08-.16l.15-.55h.07c0,.11,0,.23,0,.34a10.29,10.29,0,0,0,0,1.36,1.71,1.71,0,0,0,1.3,1.5.5.5,0,0,0,.69-.45c0-.26,0-.51,0-.77s.09-.73.13-1.1a8,8,0,0,0,.08-.84,1.29,1.29,0,0,0-.76-1.21,2.79,2.79,0,0,0-1.69-.13.13.13,0,0,0-.07.09C17.77,9.49,17.78,9.83,17.78,10.17Zm-.26-1a4.31,4.31,0,0,0-.1-.61,5.83,5.83,0,0,0-1.14-2,2.45,2.45,0,0,0-.92-.77.74.74,0,0,0-1,.52,1.65,1.65,0,0,0,0,.7c.18.67.41,1.33.62,2,0,.19.08.37.13.56s.16.55.22.83.08.62.13.94A6,6,0,0,1,17.48,11c0-.23,0-.45,0-.67C17.53,10,17.52,9.56,17.52,9.15Z"/><path class="cls-10" d="M24.49,19.61a.9.9,0,0,0,.14-.66h0a3,3,0,0,1-.06.32.33.33,0,0,1-.07.13l.15-.67a4,4,0,0,1,1-1.18,1.78,1.78,0,0,1-.33-.66,2.86,2.86,0,0,0,.38.2.37.37,0,0,0,.49-.41,1.93,1.93,0,0,0-.68-1.1l-.06,0a.82.82,0,0,0-1.08.72.37.37,0,0,1,0,.11l-.14-.18a2.4,2.4,0,0,1-.3-2.22,1.81,1.81,0,0,1,.83-1.07.23.23,0,0,0,.12-.19,9.1,9.1,0,0,1,.34-1.16,9.44,9.44,0,0,1,.51-1,.64.64,0,0,0-.13-.1c-.08,0-.1-.2-.23-.12a1.18,1.18,0,0,0-.22.17.28.28,0,0,0-.08.11l-.23.38c0-.08.05-.16.08-.24s.08-.12.12-.2a.25.25,0,0,0-.3.1,2.35,2.35,0,0,1-1.89,0,2,2,0,0,1-.88-2.44A3.11,3.11,0,0,1,23,6.85l.14-.1c-.1-.11-.24-.2-.28-.33a.77.77,0,0,1,0-.45A2.12,2.12,0,0,1,24.17,4.5a3.26,3.26,0,0,1,1.15-.3,1,1,0,0,0,.15-.07c.12.13.3.09.45.14l-.07-.08A5.51,5.51,0,0,1,28.4,5c0-.11,0-.19,0-.27a1.81,1.81,0,0,1,0-.23h0s0,.06,0,.09a.74.74,0,0,0,.34.71,5.26,5.26,0,0,1,1.68,1.89L30.31,7c-.09.18.1.37.35.36l.2.1-.17,0c0,.14,0,.28.09.42s.07,0,.11.07a.92.92,0,0,0,.39.54l-.1,0-.06,0,.12,1.18-.07-.22L31,9.8,31,9.74a2.79,2.79,0,0,0-1.44-1.18.43.43,0,0,0-.49.1,4.24,4.24,0,0,0-.75,1l-.7.81a.61.61,0,0,0-.05.12l-.08,0-.17,0a1.48,1.48,0,0,1-1.37,0c-.11,0-.15,0-.2.06a4.8,4.8,0,0,0-.6,1.25c-.08.25-.13.51-.2.79a1.63,1.63,0,0,1,1.46.36,2.38,2.38,0,0,1,.13-1,3.06,3.06,0,0,1,.28-.54c.1-.15.23-.12.27.06s0,.28,0,.42-.1.43-.16.65a1.16,1.16,0,0,1-.38.62l.16.15L27,12.6v.34l0,0c0,.05,0,.1,0,.15a2,2,0,0,0,.6,1.57.15.15,0,0,0,.21,0,3.29,3.29,0,0,1,.44-.16l.07.09-.55.32c-.15.18-.12.3.11.34a1,1,0,0,0,.34,0c.3,0,.59-.08.89-.1a3.91,3.91,0,0,1,.49,0s-.05.05-.07.05l-.47,0s0,0,0,0a1.11,1.11,0,0,0,0,.19l-.06.23c0-.15,0-.3-.12-.46L28.9,16a2.21,2.21,0,0,1-1,1.48.47.47,0,0,0-.21.53,4,4,0,0,0,.16.49c.12.29.25.57.37.86a1.87,1.87,0,0,1,.1,1l.31-.15.06.15a2.2,2.2,0,0,1-.31.15.34.34,0,0,0-.2.13,1,1,0,0,1-.67.4,2,2,0,0,1-.74-.1.23.23,0,0,0-.2,0,1.83,1.83,0,0,1-.68.27,1.27,1.27,0,0,1-.85-.41A2.46,2.46,0,0,1,24.49,19.61Zm1.82-2.86c0,.18-.08.34-.26.39a2.73,2.73,0,0,1-.51.07l.17.19a.93.93,0,0,0,1,.41,2.47,2.47,0,0,0,1.91-1.45,2.5,2.5,0,0,0,.17-1c-.12,0-.16,0-.18.13s-.1.4-.15.6a4.25,4.25,0,0,1-.41.63,2.75,2.75,0,0,1-1.32.81,1.16,1.16,0,0,1-1-.12l0-.08.15,0a.35.35,0,0,0,.45-.31,2.62,2.62,0,0,0,0-.28c0-.41-.3-1-.6-1.08A1.67,1.67,0,0,1,26.31,16.75Zm.55.17.1-.43c-.08.06-.16.1-.23.16-.25.18-.25.49-.41.72l.09,0h.09a2.85,2.85,0,0,0,1.43-.81,1,1,0,0,0,.11-.2l-.24-.06h0A1.07,1.07,0,0,0,26.86,16.92ZM26.34,6.28a3.62,3.62,0,0,0-2.2.26l-.29.13-.35.15c-.23.17-.48.32-.7.5a2,2,0,0,0-.6.82,1.8,1.8,0,0,0-.09,1.25,1.5,1.5,0,0,0,.81,1,1.93,1.93,0,0,0,1.18.16,8.2,8.2,0,0,0,1-.31c.07,0,.14-.08.08-.16A1.67,1.67,0,0,1,25,9.22l.2-.67a2.43,2.43,0,0,1,2-1L27,7.65c-.25.09-.51.17-.76.28a1.84,1.84,0,0,0-.78.57l-.07.14a.88.88,0,0,0-.12.21A1.3,1.3,0,0,0,25.45,10a1.4,1.4,0,0,0,1.82.43,3.35,3.35,0,0,0,.85-.87A4.72,4.72,0,0,1,29,8.51a1.25,1.25,0,0,1,.79-.28s0,0,0,0l-.13.13A4,4,0,0,1,31,9.27a3,3,0,0,0-.27-1.14.22.22,0,0,0,0-.08,5.52,5.52,0,0,0-.85-1.49c-.25-.3-.55-.57-.82-.85l-.62-.45a3.58,3.58,0,0,0-1.19-.59,4.31,4.31,0,0,0-1.78-.26,2.65,2.65,0,0,0-1.31.38A1.77,1.77,0,0,0,23.06,6.2a.25.25,0,0,0,.15.3.74.74,0,0,0,.39,0c.37-.11.74-.26,1.11-.39s.57-.07.86-.08a4.5,4.5,0,0,1,1.66.29l.46.22a.33.33,0,0,1-.17,0l-1-.23Zm.5,7.39a3.87,3.87,0,0,1,.42,1.24l-.11-.15a4.58,4.58,0,0,0-.61-1.13,1.42,1.42,0,0,0-.68-.58,1.11,1.11,0,0,0-1.3.18,2.78,2.78,0,0,0-.41.51A2.51,2.51,0,0,0,24.21,16l.07.14c.12-.5.35-.76.76-.78a1.87,1.87,0,0,1,.62.1c.27.1.52.24.79.35a1.72,1.72,0,0,0,1.05.15.94.94,0,0,0,.67-.42l-.39-.09c-.21-.19-.23-.27-.13-.52,0,0,0-.1,0-.12a2.18,2.18,0,0,1-.55-.89L27,13.15c-.06.11-.1.21-.15.3A.15.15,0,0,0,26.84,13.67Zm-.72,5.85a1.81,1.81,0,0,0,0,.23,1.1,1.1,0,0,0,.43.82,1.21,1.21,0,0,0,1.08.24.6.6,0,0,0,.47-.49,1.93,1.93,0,0,0-.22-1.25,4,4,0,0,1-.34-1.35l-.35.15a1.84,1.84,0,0,1-1.09,0,1.34,1.34,0,0,1-.23-.16c-.08-.07-.14-.07-.21,0s-.24.24-.35.36a1.89,1.89,0,0,0-.57,1,1,1,0,0,0,0,.24,2.08,2.08,0,0,0,.67,1.45.82.82,0,0,0,1.09,0,1.22,1.22,0,0,1-.52-.75,2.5,2.5,0,0,1,.42-1.57,2,2,0,0,1,0,.24C26.24,19,26.18,19.24,26.12,19.52Z"/><path class="cls-11" d="M19.18,21.93l-.11,1a4,4,0,0,1-1.36,1.21,4.63,4.63,0,0,1-1.24.51A9.31,9.31,0,0,1,15,25l.44.17.87.16c.13.08.14.12,0,.2a.71.71,0,0,1-.6.1,2.33,2.33,0,0,1-.36-.08l0,.06.32.21.06.13a.71.71,0,0,0,0,.14c.06.21,0,.33-.27.26a2.68,2.68,0,0,1-.73-.33,5.84,5.84,0,0,1-.69-.56l0,.16.1.3c-.13.19-.17.21-.37.11l-.21-.14a2.43,2.43,0,0,1-.66-1,2.81,2.81,0,0,1-.26-1.43.81.81,0,0,0,0-.16h0l-.1.2h0a.83.83,0,0,1-.09-.16,3.36,3.36,0,0,1-.11-1.3,5.8,5.8,0,0,1,.19-.94A10.25,10.25,0,0,1,13,19.72c.25-.49.56-.95.85-1.42-.06.13-.11.27-.16.4a1.27,1.27,0,0,0-.06.18c0,.1,0,.17.07.21s.15,0,.21-.07a.44.44,0,0,1,.25-.15c.17,0,.35.07.51,0s.09,0,.13,0l.83.2a.26.26,0,0,0,.26-.05.22.22,0,0,1,.21,0l.75.17c.18.05.22,0,.28-.15s.1-.22.28-.19.18,0,.17-.16a1.59,1.59,0,0,1,.06-.3,1.14,1.14,0,0,1,.13.95s0,.05,0,.08c0,.25,0,.51,0,.77a1.34,1.34,0,0,0,.07.27s.05,0,.07.06l.07-.11a2.2,2.2,0,0,1,0,1.27,2.45,2.45,0,0,1-.8,1c.21,0,.47-.19.85-.65v.29a4.09,4.09,0,0,0,.23-1.39c.16-.08.16.05.2.14.14.28.28.56.62.65,0,0,.06.08.08.12A.57.57,0,0,1,19.18,21.93Z"/><path class="cls-1" d="M30,1.9a3.35,3.35,0,0,1,2.35-.61,5.6,5.6,0,0,1,3.75,2,3.13,3.13,0,0,1,.71,1.62c-.19,0-.16-.2-.19-.33a.76.76,0,0,0-.06-.16l-.14.1-.07.06c0-.26-.18-.26-.34-.3s-.21,0-.24.17-.1.5-.14.75-.08.24-.24.25a.31.31,0,0,0-.12,0l-.8.48a1,1,0,0,0-.2.12.4.4,0,0,1-.45.11.22.22,0,0,0-.26.08,1.5,1.5,0,0,1-.34.27c-.14.08-.33.08-.45.18a.43.43,0,0,1-.46.06c-.11,0-.16,0-.2.11a.74.74,0,0,1-.16.2l-.12-.06A5.27,5.27,0,0,1,30,5.18a2.92,2.92,0,0,1-.33-2.12A11.28,11.28,0,0,1,30,1.9Z"/><path class="cls-12" d="M25,20.84a1.27,1.27,0,0,0,.85.41h.55s.11,0,.14,0a1.36,1.36,0,0,0,.65.19c.16,0,.29.26.47,0,0,.05.05.08.05.11a.39.39,0,0,1,0,.24c0,.05-.14,0-.22,0h0c-.15,0-.17,0-.19.14s0,.32-.07.47c-.07.32-.15.63-.22.94a.24.24,0,0,1-.31.2l-.32-.08c-.1,0-.16,0-.18.11s0,.12,0,.17,0,.22.13.27.29.1.31.19.14.19.26.22a.21.21,0,0,1,.11,0l.45.21a.45.45,0,0,1,.13.11l0,0-1.25-.31-1.21-.3a7.28,7.28,0,0,0-1.12-.19,1.3,1.3,0,0,0-1.29.72,2.7,2.7,0,0,0-.33.76.84.84,0,0,1-.24-.16s0-.15,0-.22a.8.8,0,0,0-.09-.3s-.11,0-.17,0,0,0-.05,0l.28-.17c.42-.31.55-.49.54-.72l-.27.19a.46.46,0,0,1-.71-.17,4.24,4.24,0,0,1-.23-.59c-.08-.27-.13-.55-.2-.82v0c0-.06,0-.13,0-.2l0-.12a.53.53,0,0,0-.12,0l-.45.27a.26.26,0,0,1-.36-.09.49.49,0,0,1-.08-.42c.09-.3.19-.6.29-.89l.06-.1.4-.46h-.1a2.4,2.4,0,0,1-1,.12c-.24,0-.47-.08-.56-.35l.72-.48,1-.63.7-.31a3.81,3.81,0,0,1,1-.36,1.68,1.68,0,0,0,0,.18,1.24,1.24,0,0,0,.08.66,1.21,1.21,0,0,0,1,.57c.19,0,.4,0,.61,0A1.24,1.24,0,0,0,25,20.84Z"/><path class="cls-13" d="M22,27.38c.21-.7.42-1.39.62-2.09a.36.36,0,0,1,0-.09,1.3,1.3,0,0,1,1.61-.83c.25,0,.5.11.75.16l1,.27,1.41.36a23.62,23.62,0,0,1,3,.93c.15.07.31.11.47.17-.05,0-.09.14-.14.15a2.69,2.69,0,0,1-.49,0c-.1,0-.23-.07-.28,0s-.06.18-.09.28l0,.09c0,.13-.1.17-.23.14a.39.39,0,0,0-.48.25,2.17,2.17,0,0,0-.07.24c0,.11-.08.18-.2.16a.28.28,0,0,0-.3.2l.11,0c.07,0,.1.06,0,.12l-.12.14-.13,0s0-.07,0-.11a.31.31,0,0,1-.05-.1.44.44,0,0,0-.1.08.72.72,0,0,0-.05.21c-.06.24-.07.21-.26.25s-.22.15-.33.23,0,0,0,0l-.11.05s0,.08.06.09.09.12,0,.19a.66.66,0,0,1-.2.14c-.08,0-.16,0-.13-.09s0-.17-.13-.18l-.15,0a.12.12,0,0,0-.17.09c0,.15-.14.16-.27.12a.65.65,0,0,0-.2,0,.2.2,0,0,0-.15.05c-.17.22-.16.22-.44.16s-.22-.08-.28.16-.08.24-.29.23-.28-.07-.42-.06a.33.33,0,0,1-.31-.21c.44-.31.89-.61,1.31-.93a3.06,3.06,0,0,0,.79-1,1.7,1.7,0,0,1,.8-.85.53.53,0,0,0-.5.15,3.11,3.11,0,0,0-.39.49,3.59,3.59,0,0,1-.86,1c-.17.1-.35.2-.52.32A5.12,5.12,0,0,1,23,29.4a5.65,5.65,0,0,1-.71.05c-.4,0-.56-.18-.56-.58a.13.13,0,0,0,0-.06l.32-.13A2.66,2.66,0,0,0,23.13,28c.62-.68,1.24-1.35,1.87-2l.08-.1,0,0a3.77,3.77,0,0,0-.39.26c-.36.35-.71.71-1.06,1.06l-.41.43-.22.05A.85.85,0,0,1,22,27.38Z"/><path class="cls-14" d="M24.5,29.32a.33.33,0,0,0,.31.21c.14,0,.28.06.42.06s.24,0,.29-.23,0-.22.28-.16.27.06.44-.16a.2.2,0,0,1,.15-.05.65.65,0,0,1,.2,0c.13,0,.23,0,.27-.12a.12.12,0,0,1,.17-.09l.15,0c.1,0,.16.06.13.18s.05.13.13.09a.66.66,0,0,0,.2-.14c.07-.07.11-.14,0-.19s0-.06-.06-.09l.11-.05s0,0,0,0,.21-.2.33-.23.2,0,.26-.25a.72.72,0,0,1,.05-.21.44.44,0,0,1,.1-.08.31.31,0,0,0,.05.1s0,.07,0,.11l.13,0,.12-.14c.06-.06,0-.1,0-.12l-.11,0a.28.28,0,0,1,.3-.2c.12,0,.17-.05.2-.16a2.17,2.17,0,0,1,.07-.24.39.39,0,0,1,.48-.25c.13,0,.2,0,.23-.14l0-.09c0-.1,0-.23.09-.28s.18,0,.28,0a2.69,2.69,0,0,0,.49,0c.05,0,.09-.1.14-.15A2.57,2.57,0,0,0,30.5,26c-.31-.15-.63-.28-.94-.42l0,0c.57,0,1.14-.07,1.71-.08a7.6,7.6,0,0,1,1.07.05,1.79,1.79,0,0,1,1.06.63,1.7,1.7,0,0,0,.14.1l.19.18,0,0-.08-.23c0-.28,0-.35-.23-.47l0,0-.08-.06a.72.72,0,0,0-.51-.24L32,25.23c0-.07.11-.05.17,0s.08,0,.1,0a.15.15,0,0,0,0-.11c0-.05-.07-.1-.08-.15a.82.82,0,0,1-.07-.29c0-.28.13-.55.2-.82s.09-.22.21-.22.14-.08.16-.16.11-.44.15-.66.11-.38-.06-.55a.32.32,0,0,1,0-.22,1.52,1.52,0,0,1,0-.21c0-.12,0-.15.16-.1h.08c.16.3.34.59.49.9.32.67.64,1.34.93,2s.44,1.16.66,1.73A.83.83,0,0,1,35,26.3a.41.41,0,0,0-.42-.12c-.13,0-.15.14-.18.25l-.27,1.12a.35.35,0,0,1-.44.3c-.21,0-.25,0-.31.2s-.18.53-.28.79a.19.19,0,0,1-.13.1c-.1,0-.19-.08-.27.06s-.16.14-.2.23a2.56,2.56,0,0,0-.16.49c-.07.27-.12.31-.4.24a.19.19,0,0,0-.24.13.83.83,0,0,0,0,.15.19.19,0,0,1-.28.11l-.17-.08a1.69,1.69,0,0,1-.63-.72l.38-.49a4.14,4.14,0,0,1,.19-.49.7.7,0,0,0,.08-.48,2.09,2.09,0,0,1-.94.9,2,2,0,0,1-1.43.19,0,0,0,0,1,0,0l.21-.44-.39.23c0-.09.06-.18.08-.27s0-.05-.05-.08a.37.37,0,0,1,0-.11l.21-.51a5.25,5.25,0,0,1-2.59,1.75s0,0,0-.07,0-.19-.05-.2a.58.58,0,0,0-.32,0c-.1,0-.1.17,0,.25l.08.09a2.34,2.34,0,0,1-1.23,0,.52.52,0,0,1-.42-.42Z"/><path class="cls-15" d="M17.63,18.34a1.59,1.59,0,0,0-.06.3c0,.14,0,.19-.17.16s-.22,0-.28.19-.1.2-.28.15L16.09,19a.22.22,0,0,0-.21,0,.26.26,0,0,1-.26.05l-.83-.2s-.1,0-.13,0-.34,0-.51,0a.44.44,0,0,0-.25.15c-.06.07-.12.12-.21.07s-.11-.11-.07-.21a1.27,1.27,0,0,1,.06-.18c.05-.13.1-.27.16-.4a.61.61,0,0,1,.07-.14,2.26,2.26,0,0,0,.25-.28c.19-.29.37-.59.55-.89l.09,0,.51.19,0,0-.15-.1.09,0a2.5,2.5,0,0,0,.39-.11c.15-.07.33-.12.42-.3a1.55,1.55,0,0,0,.52-.94,2.18,2.18,0,0,0-.15-1.07,1.47,1.47,0,0,1,.37-.91l.35-.46.23-.06h.21a.55.55,0,0,1,.64.58c-.11.22-.23.44-.33.66s-.09.09-.16.09a.84.84,0,0,0-.83.61l.12-.12a1,1,0,0,1,.64-.32c.11,0,.15,0,.16.14s.06.45.09.68a.33.33,0,0,1,0,.14.64.64,0,0,0,.13.65.85.85,0,0,1,0-.57l.39.42h0l0-.11a.53.53,0,0,1,.15.11.85.85,0,0,0,.57.24l-.07-.08a1.36,1.36,0,0,1-.47-.69A1.55,1.55,0,0,1,19,14.11a.22.22,0,0,1,.2,0,1.38,1.38,0,0,0,.88,0,.94.94,0,0,1-.1.26,1,1,0,0,0-.12,1,1.42,1.42,0,0,1-.58,1.67,2.63,2.63,0,0,1-1.52.35,1.27,1.27,0,0,1-.93-.35.52.52,0,0,0-.13-.06l-.05,0a1.8,1.8,0,0,0,.17.34,5.82,5.82,0,0,0,.47.36l.15.07Z"/><path class="cls-16" d="M32,7.13a.74.74,0,0,0,.16-.2c0-.11.09-.15.2-.11a.43.43,0,0,0,.46-.06c.12-.1.31-.1.45-.18a1.5,1.5,0,0,0,.34-.27.22.22,0,0,1,.26-.08.4.4,0,0,0,.45-.11,1,1,0,0,1,.2-.12l.8-.48a.31.31,0,0,1,.12,0c.16,0,.21-.11.24-.25s.09-.5.14-.75.06-.21.24-.17.35,0,.34.3l.07-.06.14-.1a.76.76,0,0,1,.06.16c0,.13,0,.29.19.33a.87.87,0,0,1-.07.63,1,1,0,0,0-.06.36.67.67,0,0,1-.06.12l-.05,0c-.08.14-.16.28-.23.42l.06,0-.08.18,0,0a2.15,2.15,0,0,0,.57-.77A2.5,2.5,0,0,1,38.33,8a.78.78,0,0,1-.08.23,2.44,2.44,0,0,1-1.11.88A2.4,2.4,0,0,1,35.08,9a2.44,2.44,0,0,1-1-.77,2.35,2.35,0,0,0,1-.48,1.23,1.23,0,0,0,.66-.59.68.68,0,0,0,0-.15.59.59,0,0,0-.14.06,2.71,2.71,0,0,1-1.46.58,4.43,4.43,0,0,1-.63,0A3.25,3.25,0,0,1,32,7.13Zm4.45-1.52c0-.14.07-.28.1-.41s.05-.14,0-.15-.08.07-.09.11c-.07.28-.12.57-.17.86,0,0,0,.07,0,.11s.07-.06.08-.1S36.38,5.75,36.41,5.61Z"/><path class="cls-17" d="M26.26,24.59l1.25.31,0,0a.45.45,0,0,0-.13-.11L27,24.54a.21.21,0,0,0-.11,0c-.12,0-.22-.06-.26-.22s-.19-.16-.31-.19-.18-.13-.13-.27,0-.11,0-.17.08-.13.18-.11l.32.08a.24.24,0,0,0,.31-.2c.07-.31.15-.62.22-.94,0-.15.05-.31.07-.47s0-.17.19-.14h0c.08,0,.19,0,.22,0a.39.39,0,0,0,0-.24s0-.06-.05-.11c-.18.22-.31,0-.47,0l.32,0a1,1,0,0,0,.84-.5.25.25,0,0,1,.23-.16.66.66,0,0,0,.58-.43,2,2,0,0,0,.08-.22l.59.36a.18.18,0,0,1,0,.11l0,.28.06.25.05,0c0-.09.05-.15.16-.12a.16.16,0,0,1,.13.18,1.92,1.92,0,0,0,0,.24c0,.21-.12.4,0,.62s0,.18,0,.27-.08.13-.17.07L30,21.76a2,2,0,0,0-.07-.23h-.05l0,.36,0,.13-.36-.58a2.94,2.94,0,0,0,.05.35c.05.14.06.3.22.38a1.48,1.48,0,0,1,.21.74,6.86,6.86,0,0,0,.34,1.85c.05.17.12.33.19.54-.53,0-1.05,0-1.58,0a3.38,3.38,0,0,1-.6-.17l-1.9-.51Z"/><path class="cls-18" d="M31.21,30.27l.17.08a.19.19,0,0,0,.28-.11.83.83,0,0,1,0-.15.19.19,0,0,1,.24-.13c.28.07.33,0,.4-.24a2.56,2.56,0,0,1,.16-.49c0-.09.15-.14.2-.23s.17-.06.27-.06a.19.19,0,0,0,.13-.1c.1-.26.19-.53.28-.79s.1-.23.31-.2a.35.35,0,0,0,.44-.3l.27-1.12c0-.11.05-.22.18-.25a.41.41,0,0,1,.42.12.83.83,0,0,0,.16.09,10,10,0,0,1,.67,3.36c-.09.29-.16.58-.26.87a2.64,2.64,0,0,1-.54.93v-.81c-.1.32-.19.59-.27.86a1.52,1.52,0,0,1-.55.79.6.6,0,0,1-.71,0l.4-.66.11-.22a1.08,1.08,0,0,0-.24.13A5.12,5.12,0,0,1,33,32c-.1.05-.25,0-.38,0s0-.07,0-.11A3.19,3.19,0,0,0,34.25,31a.55.55,0,0,0,.33-.38,1.06,1.06,0,0,0-.19,0,5.7,5.7,0,0,1-.81.22,3.59,3.59,0,0,1-1.77-.28A4.6,4.6,0,0,1,31.21,30.27Z"/><path class="cls-19" d="M28.22,19.35c-.12-.29-.25-.57-.37-.86a4,4,0,0,1-.16-.49.47.47,0,0,1,.21-.53,2.21,2.21,0,0,0,1-1.48L29,15.8h0V16a.6.6,0,0,0,.18-.48,1.11,1.11,0,0,1,0-.19s0,0,0,0l.47,0s.05,0,.07-.05-.06-.06-.09-.07a4.86,4.86,0,0,0-.55-.07l-1,0c-.09,0-.15,0-.15-.12l.55-.32a2,2,0,0,1,1.49.25v0l-.31-.21.38-.73L30,14l0,0c.12-.09.26-.18.37-.28a.49.49,0,0,0,.2-.45.16.16,0,0,1,.06-.15.5.5,0,0,0,.27-.41c0-.12.18-.16.32-.13s.11.13.09.23a1.94,1.94,0,0,0-.05.2c0,.09,0,.15.09.16s.23.11.23.26l0-.08c-.05.28-.07.57-.14.85-.22.78-.46,1.56-.67,2.35a10.38,10.38,0,0,0-.24,1.26A1.89,1.89,0,0,0,30.7,19a.46.46,0,0,1-.49.21,1.64,1.64,0,0,1-.38-.1,2,2,0,0,1-.72-.48L29,18.41l-.08.23a0,0,0,0,1,0,0,1.21,1.21,0,0,1-.05.18A.64.64,0,0,1,28.22,19.35Z"/><path class="cls-20" d="M25.57,2.57a3,3,0,0,1,1-1.57A2.91,2.91,0,0,1,29.3.35a1.9,1.9,0,0,1,1.25.89l0,.08a3.36,3.36,0,0,0-1.86,1.77.87.87,0,0,1-.07.17.35.35,0,0,1-.11.15,1.86,1.86,0,0,1-2.06.07A2.83,2.83,0,0,1,25.57,2.57Z"/><path class="cls-21" d="M30.08,22.34c.09.06.15,0,.17-.07s.05-.2,0-.27,0-.41,0-.62a1.92,1.92,0,0,1,0-.24.16.16,0,0,0-.13-.18c-.11,0-.14,0-.16.12l-.05,0c0-.12.06-.25.1-.37a.72.72,0,0,1,.6-.47,1.82,1.82,0,0,1,1.72.59,10.32,10.32,0,0,1,.73.88H33c-.11-.05-.15,0-.16.1a1.52,1.52,0,0,0,0,.21.32.32,0,0,0,0,.22c.17.17.09.37.06.55s-.1.44-.15.66-.05.15-.16.16-.18.1-.21.22-.15.54-.2.82a.82.82,0,0,0,.07.29c0,.05.06.1.08.15a.15.15,0,0,1,0,.11s-.08,0-.1,0-.12-.06-.17,0H31.8a1.52,1.52,0,0,1-.2-.06,2.53,2.53,0,0,1-1-.86l-.36-.56Z"/><path class="cls-22" d="M25.57,2.57a2.83,2.83,0,0,0,.91.91,1.86,1.86,0,0,0,2.06-.07.35.35,0,0,0,.11-.15.87.87,0,0,0,.07-.17l-.07.31A4,4,0,0,1,30,1.9a11.28,11.28,0,0,0-.39,1.16A2.92,2.92,0,0,0,30,5.18a5.27,5.27,0,0,0,1.89,1.89l.12.06a3.25,3.25,0,0,0,1.48.52,4.43,4.43,0,0,0,.63,0,2.71,2.71,0,0,0,1.46-.58A.59.59,0,0,1,35.67,7a.68.68,0,0,1,0,.15,1.23,1.23,0,0,1-.66.59s0,0-.05,0a2.63,2.63,0,0,1-1.8.3,7.21,7.21,0,0,1-2.28-.66l-.2-.1-.14-.15a5.26,5.26,0,0,0-1.68-1.89.74.74,0,0,1-.34-.71s0-.06,0-.09h0a1.81,1.81,0,0,0,0,.23c0,.08,0,.16,0,.27a5.51,5.51,0,0,0-2.55-.78c-.05-.05-.12-.08-.15-.13A1.89,1.89,0,0,1,25.57,2.57Z"/><path class="cls-23" d="M14.94,8.93c-.21-.66-.44-1.32-.62-2a1.65,1.65,0,0,1,0-.7.74.74,0,0,1,1-.52,2.45,2.45,0,0,1,.92.77,5.83,5.83,0,0,1,1.14,2,4.31,4.31,0,0,1,.1.61,3.62,3.62,0,0,1-.19.4,1,1,0,0,1-1.15.52,1.56,1.56,0,0,1-.67-.42C15.3,9.43,15.13,9.17,14.94,8.93Z"/><path class="cls-24" d="M31.6,13.42l0,.08c0-.15-.06-.25-.23-.26s-.11-.07-.09-.16a1.94,1.94,0,0,1,.05-.2c0-.1.05-.19-.09-.23s-.3,0-.32.13a.5.5,0,0,1-.27.41.16.16,0,0,0-.06.15.49.49,0,0,1-.2.45c-.11.1-.25.19-.37.28l0,0,0-.18a3.42,3.42,0,0,0-.11-2.12,2,2,0,0,0-.77-1,1,1,0,0,0-1-.07s-.15,0-.07.12l-.56.52,0-.69a.61.61,0,0,1,.05-.12l.7-.81c.2-.09.41-.16.61-.27a1.57,1.57,0,0,1,1.5,0,5.13,5.13,0,0,1,.57.38L31,9.8a4.87,4.87,0,0,1,.63,2.33,5.43,5.43,0,0,1,0,.57C31.63,12.94,31.61,13.18,31.6,13.42ZM28.31,9.91l.12-.06a.54.54,0,0,1,.63,0,1.48,1.48,0,0,1,.28.28,3.24,3.24,0,0,1,.51.93.15.15,0,0,0,0-.09,2.52,2.52,0,0,0-.5-1A.67.67,0,0,0,28.31,9.91Z"/><path class="cls-25" d="M34,8.26a2.44,2.44,0,0,0,1,.77,2.4,2.4,0,0,0,2.06.1,2.44,2.44,0,0,0,1.11-.88A.78.78,0,0,0,38.33,8a2,2,0,0,1-.59,1.61,3.52,3.52,0,0,1-2.29,1.09,2.23,2.23,0,0,1-1.29-.29,4.18,4.18,0,0,1-1.5-1.2,1.11,1.11,0,0,1-.23-.86c0-.09,0-.15.16-.12A4.35,4.35,0,0,0,34,8.26Z"/><path class="cls-26" d="M23.76,15.15a2.63,2.63,0,0,0,.42,1l.14.18a.37.37,0,0,0,0-.11.82.82,0,0,1,1.08-.72l.06,0a1.93,1.93,0,0,1,.68,1.1.37.37,0,0,1-.49.41,2.86,2.86,0,0,1-.38-.2,1.78,1.78,0,0,0,.33.66,4,4,0,0,0-1,1.18,2.63,2.63,0,0,1-.47.1.6.6,0,0,1-.67-.59c0-.12,0-.23,0-.35s.1-.18,0-.23h-.3a2.05,2.05,0,0,1-.7,0,.35.35,0,0,1-.26-.49,1.08,1.08,0,0,1,.08-.19l.57-.43-.09.19a.12.12,0,0,0,0,.08s.06,0,.07,0a3.14,3.14,0,0,0,.28-.46c.11-.29.21-.58.31-.87l-.08.45a.46.46,0,0,0,.23-.38C23.59,15.34,23.6,15.2,23.76,15.15Z"/><path class="cls-27" d="M17.78,10.17c0-.34,0-.68,0-1a.13.13,0,0,1,.07-.09,2.79,2.79,0,0,1,1.69.13,1.29,1.29,0,0,1,.76,1.21,8,8,0,0,1-.08.84c0,.37-.09.73-.13,1.1a.74.74,0,0,1-.57.15,1.2,1.2,0,0,1-.79-.56,3,3,0,0,1-.51-1.43c0-.19-.05-.37-.08-.56h-.05l-.16.34Z"/><path class="cls-28" d="M13.59,15.19a3.42,3.42,0,0,1-.29-1.58.71.71,0,0,1,.9-.27l-.13.07h.18a5,5,0,0,1,.79.11,1.78,1.78,0,0,1,1.25,1.16c0,.12,0,.24,0,.36a.93.93,0,0,1-1,.93A2.3,2.3,0,0,1,13.59,15.19Z"/><path class="cls-29" d="M21.84,27.21a8.17,8.17,0,0,1-.68,1.6c-.1-.14-.17-.23-.23-.33a10.32,10.32,0,0,1-1.43-3.32,8.76,8.76,0,0,1,0-3.57c.05-.22.12-.37.37-.38a1,1,0,0,0,.25-.07l-.07.15a2.65,2.65,0,0,0-.41,1.28,1.46,1.46,0,0,0,.17.68.51.51,0,0,0,.47.33s-.09.08-.08.12a6.54,6.54,0,0,0,.09.89,5.65,5.65,0,0,0,.59,1.49c.16.3.32.59.5.87s.24.33.37.5Z"/><path class="cls-30" d="M12.88,10.1c-.15-.33-.31-.66-.45-1a1.68,1.68,0,0,1-.12-.38.62.62,0,0,1,.77-.79,1.77,1.77,0,0,1,.46.15A2.74,2.74,0,0,1,15,9.84a2,2,0,0,1-.3.78.76.76,0,0,1-.92.24,3.13,3.13,0,0,1-.54-.42C13.09,10.34,13,10.21,12.88,10.1Z"/><path class="cls-29" d="M14.8,16.94l-.09,0c-.18.3-.36.6-.55.89a2.26,2.26,0,0,1-.25.28.61.61,0,0,0-.07.14c-.29.47-.6.93-.85,1.42A10.25,10.25,0,0,0,12.43,21a5.8,5.8,0,0,0-.19.94,3.36,3.36,0,0,0,.11,1.3.83.83,0,0,0,.09.16l-.08.23h0c-.08-.28-.17-.55-.23-.84a7.16,7.16,0,0,1,0-2.31,12.34,12.34,0,0,1,1.12-3.4,4.22,4.22,0,0,0,.41-1.4A2.88,2.88,0,0,0,14.8,16.94Z"/><path class="cls-31" d="M12.88,10.1c.11.11.21.24.33.34a3.13,3.13,0,0,0,.54.42.76.76,0,0,0,.92-.24,2,2,0,0,0,.3-.78c.08.47.17.93.25,1.4,0,.1-.07.1-.13.13-.37.19-.74.38-1.1.58l-.17.14,0,0,.21-.11-.06.14c-.12.37-.05.63.34.72a3,3,0,0,0,1.29,0,1.66,1.66,0,0,0,.88-.45l.39-.37,0,0a1.18,1.18,0,0,1,0,.27c0,.1,0,.14.08.17a1.51,1.51,0,0,0,.79,0s.08-.06.11-.09a2.12,2.12,0,0,0,.64,1l-.27.26a.55.55,0,0,0-.64-.58H17.4l.27-.15v0a1.41,1.41,0,0,1-1.12,0l.27-.44c-.16.12-.3.27-.46.4a2.35,2.35,0,0,1-1.5.42l-.72,0v0l.11.06,0,0a.71.71,0,0,0-.9.27,3,3,0,0,1,.34-1.34l0,0-.2.25c0-.22,0-.42-.05-.63a6.78,6.78,0,0,0-.44-1.66Z"/><path class="cls-32" d="M17.88,12.38s-.07.08-.11.09a1.51,1.51,0,0,1-.79,0c-.1,0-.12-.07-.08-.17a1.18,1.18,0,0,0,0-.27l0,0-.39.37a1.66,1.66,0,0,1-.88.45,3,3,0,0,1-1.29,0c-.39-.09-.46-.35-.34-.72l.06-.14a4.67,4.67,0,0,1,1.3-.55,7.32,7.32,0,0,1,2.28-.24c.14,0,.16.06.17.19C17.81,11.73,17.85,12.06,17.88,12.38Z"/><path class="cls-33" d="M21.84,27.21l-.12.24c-.13-.17-.26-.33-.37-.5s-.34-.57-.5-.87a5.65,5.65,0,0,1-.59-1.49,6.54,6.54,0,0,1-.09-.89s0-.08.08-.12a1.3,1.3,0,0,0,.68-.53c0,.2,0,.36,0,.53s.11.58.17.86a.62.62,0,0,0,.14.25.4.4,0,0,0,.5.16s0,0,.05,0,.16,0,.17,0a.8.8,0,0,1,.09.3c0,.07,0,.18,0,.22a.84.84,0,0,0,.24.16Z"/><path class="cls-29" d="M31.21,30.27a4.6,4.6,0,0,0,.6.37,3.59,3.59,0,0,0,1.77.28,5.7,5.7,0,0,0,.81-.22,1.06,1.06,0,0,1,.19,0,.55.55,0,0,1-.33.38s0-.05,0-.07v0l-.4.23a3.15,3.15,0,0,1-1.8.49,2.42,2.42,0,0,1-1.2-.37c-.62-.38-1.21-.79-1.81-1.2a2.62,2.62,0,0,0,1.53-.55A1.69,1.69,0,0,0,31.21,30.27Z"/><path class="cls-34" d="M17.26,17.74a5.82,5.82,0,0,1-.47-.36,1.8,1.8,0,0,1-.17-.34l.05,0a.52.52,0,0,1,.13.06,1.27,1.27,0,0,0,.93.35,2.63,2.63,0,0,0,1.52-.35,1.42,1.42,0,0,0,.58-1.67,1,1,0,0,1,.12-1,.94.94,0,0,0,.1-.26,1.38,1.38,0,0,1-.88,0,.22.22,0,0,0-.2,0,1.55,1.55,0,0,0-.38,1.39,1.36,1.36,0,0,0,.47.69l.07.08a.85.85,0,0,1-.57-.24.53.53,0,0,0-.15-.11,1.77,1.77,0,0,1-.26-1.66,1.37,1.37,0,0,1,.46-.65.14.14,0,0,1,.2,0,1.48,1.48,0,0,0,.73.22A1.25,1.25,0,0,0,20,13.7c.08,0,.12-.06.19,0l.11.08c.27.22.29.39.06.65A1.5,1.5,0,0,0,20,15a.17.17,0,0,0,0,.14L20,15l.18,1a1.11,1.11,0,0,1-.38,1.09,2.83,2.83,0,0,1-1.89.65c-.18,0-.37,0-.55,0A.35.35,0,0,0,17.26,17.74Z"/><path class="cls-35" d="M24.41,29.38a.52.52,0,0,0,.42.42,2.34,2.34,0,0,0,1.23,0l.29-.05A5.25,5.25,0,0,0,28.94,28l-.21.51a.37.37,0,0,0,0,.11A4.64,4.64,0,0,1,25,30.66a4.35,4.35,0,0,1-1.29-.16c-.15,0-.34-.08-.37-.26s.13-.26.25-.33C23.84,29.72,24.12,29.55,24.41,29.38Z"/><path class="cls-29" d="M14.94,8.93c.19.24.36.5.57.72a1.56,1.56,0,0,0,.67.42,1,1,0,0,0,1.15-.52,3.62,3.62,0,0,0,.19-.4c0,.41,0,.82,0,1.22,0,.22,0,.44,0,.67a6,6,0,0,0-2.06.22c-.05-.32-.07-.63-.13-.94s-.15-.55-.22-.83S15,9.12,14.94,8.93Z"/><path class="cls-36" d="M17.78,10.17l.14.11.16-.34h.05c0,.19.05.37.08.56a3,3,0,0,0,.51,1.43,1.2,1.2,0,0,0,.79.56.74.74,0,0,0,.57-.15c0,.26,0,.51,0,.77a.5.5,0,0,1-.69.45,1.71,1.71,0,0,1-1.3-1.5,10.29,10.29,0,0,1,0-1.36c0-.11,0-.23,0-.34H18l-.15.55c0,.06-.06.16-.08.16s-.05-.12-.05-.18C17.73,10.64,17.76,10.41,17.78,10.17Z"/><path class="cls-29" d="M21.73,28.81a.13.13,0,0,1,0,.06c0,.4.16.58.56.58A5.65,5.65,0,0,0,23,29.4a5.12,5.12,0,0,0,2.12-.86c.17-.12.35-.22.52-.32-.31.22-.61.46-.93.67s-.83.52-1.24.78a.94.94,0,0,0-.41.45.16.16,0,0,1-.11.07,4,4,0,0,1-1.5,0,2.7,2.7,0,0,1-.53-.22c-.38-.22-.4-.57,0-.79A7.27,7.27,0,0,1,21.73,28.81Z"/><path class="cls-37" d="M15.39,25.14,15,25a9.31,9.31,0,0,0,1.52-.32,4.63,4.63,0,0,0,1.24-.51,4,4,0,0,0,1.36-1.21c0,.41,0,.82,0,1.24a.22.22,0,0,1-.1.15,4.57,4.57,0,0,1-1.41.58,6.14,6.14,0,0,1-1.86.2A1.24,1.24,0,0,0,15.39,25.14Z"/><path class="cls-38" d="M23.76,15.15c-.16,0-.17.19-.2.32a.46.46,0,0,1-.23.38l.08-.45a16.82,16.82,0,0,1,1-3.67c.11-.25.24-.5.36-.74l.23-.38a.28.28,0,0,1,.08-.11,1.18,1.18,0,0,1,.22-.17c.13-.08.15.08.23.12a.64.64,0,0,1,.13.1,9.44,9.44,0,0,0-.51,1,9.1,9.1,0,0,0-.34,1.16.23.23,0,0,1-.12.19A1.81,1.81,0,0,0,23.88,14,2.62,2.62,0,0,0,23.76,15.15Z"/><path class="cls-29" d="M13.59,15.19a2.3,2.3,0,0,0,1.66.79.93.93,0,0,0,1-.93c0-.12,0-.24,0-.36a1.59,1.59,0,0,1-.2,1.66.39.39,0,0,0-.08.1.12.12,0,0,0,0,.08h.09c-.09.18-.27.23-.42.3a2.5,2.5,0,0,1-.39.11l-.09,0a2.89,2.89,0,0,1-1.54-1.64S13.61,15.25,13.59,15.19Z"/><path class="cls-31" d="M25,20.84a1.24,1.24,0,0,1-.9-.88c-.21,0-.42,0-.61,0a1.21,1.21,0,0,1-1-.57,1.24,1.24,0,0,1-.08-.66,1.68,1.68,0,0,1,0-.18,3.81,3.81,0,0,0-1,.36l-.7.31a5.61,5.61,0,0,0,.81-1.12c0-.06.06-.11.14-.07a1.55,1.55,0,0,0,1.33,0,4.4,4.4,0,0,0-.18.55,1.05,1.05,0,0,0,.25,1,1,1,0,0,0,1.12.14l.15-.08A2.46,2.46,0,0,0,25,20.84Z"/><path class="cls-31" d="M29.87,20.86l0-.28a.18.18,0,0,0,0-.11l-.59-.36a2,2,0,0,1-.08.22.66.66,0,0,1-.58.43.25.25,0,0,0-.23.16,1,1,0,0,1-.84.5l-.32,0a1.36,1.36,0,0,1-.65-.19s-.09,0-.14,0h-.55a1.83,1.83,0,0,0,.68-.27.23.23,0,0,1,.2,0,2,2,0,0,0,.74.1,1,1,0,0,0,.67-.4.34.34,0,0,1,.2-.13,2.2,2.2,0,0,0,.31-.15,1,1,0,0,0,.33-.79,1.83,1.83,0,0,0,0-.35,2.27,2.27,0,0,0,1.17,1A.84.84,0,0,0,29.87,20.86Z"/><path class="cls-34" d="M28.86,29.18A2,2,0,0,0,30.29,29a2.09,2.09,0,0,0,.94-.9.7.7,0,0,1-.08.48,4.14,4.14,0,0,0-.19.49l0-.18a2,2,0,0,1-1.3.89,2,2,0,0,1-1.52-.15A1,1,0,0,0,28.86,29.18Z"/><path class="cls-29" d="M28.87,18.64l.08-.23.16.17a2,2,0,0,0,.72.48,1.64,1.64,0,0,0,.38.1A.46.46,0,0,0,30.7,19a1,1,0,0,1,.46.61.27.27,0,0,1-.13.32.69.69,0,0,1-.7.12,1.94,1.94,0,0,1-1.27-1.27C29,18.61,29,18.56,28.87,18.64Z"/><path class="cls-39" d="M31.24,9.67l-.12-1.18.06,0a5.78,5.78,0,0,1,.9,1.24,1.6,1.6,0,0,1,.1.23c0,.1,0,.2,0,.3-.08.31-.17.61-.26.91h-.07a4.7,4.7,0,0,0-.54-1.45A.32.32,0,0,1,31.24,9.67Z"/><path class="cls-35" d="M23.49,17.88c0,.12,0,.23,0,.35a.6.6,0,0,0,.67.59,2.63,2.63,0,0,0,.47-.1l-.15.67a.78.78,0,0,1-.91.12.79.79,0,0,1-.4-.82A1.72,1.72,0,0,1,23.49,17.88Z"/><path class="cls-34" d="M12.44,23.44l.1-.2h0a.81.81,0,0,1,0,.16,2.81,2.81,0,0,0,.26,1.43,2.43,2.43,0,0,0,.66,1l.21.14c.2.1.24.08.37-.11a1.09,1.09,0,0,1,.08.69c0,.11-.07.14-.19.09a2.43,2.43,0,0,1-1.27-1.38,3.41,3.41,0,0,1-.22-1.67A.57.57,0,0,0,12.44,23.44Z"/><path class="cls-31" d="M33.48,32.4a.6.6,0,0,0,.71,0,1.52,1.52,0,0,0,.55-.79c.08-.27.17-.54.27-.86v.53a.28.28,0,0,0-.07.09,2,2,0,0,0,0,.25,1.65,1.65,0,0,1-.67,1.18,2.73,2.73,0,0,1-.84.49.28.28,0,0,1-.33-.08.57.57,0,0,1,.11-.59Z"/><path class="cls-40" d="M32.6,31.91s0,.11,0,.11.28.07.38,0a5.12,5.12,0,0,0,.73-.39,1.08,1.08,0,0,1,.24-.13l-.11.22v-.08a2.09,2.09,0,0,1-1.36,1,1.45,1.45,0,0,1-.47,0,.27.27,0,0,1-.24-.35c0-.12.07-.25.11-.37a.14.14,0,0,1,.11-.06Z"/><path class="cls-41" d="M31.52,8l.75.22s0,0,0,0a1.1,1.1,0,0,0,.21,1.14c.18.24.4.46.61.7l-.5.65a3.62,3.62,0,0,0-.52-1.3.74.74,0,0,0,0-.21,5.83,5.83,0,0,0-.25-.7C31.74,8.33,31.62,8.16,31.52,8Z"/><path class="cls-34" d="M14,25.59l0-.16a5.84,5.84,0,0,0,.69.56,2.68,2.68,0,0,0,.73.33c.23.07.33-.05.27-.26a.71.71,0,0,1,0-.14,4,4,0,0,1,.45.47c.18.25.07.46-.24.45a2.25,2.25,0,0,1-1.53-.64.72.72,0,0,1-.12-.21l-.2-.4S14,25.59,14,25.59Z"/><path class="cls-42" d="M20.41,21.11c-.1.29-.2.59-.29.89a.49.49,0,0,0,.08.42.26.26,0,0,0,.36.09l.45-.27a.53.53,0,0,1,.12,0l0,.12c0,.07,0,.14,0,.2s-.16-.05-.23.07a3.45,3.45,0,0,1-.41.59c-.19.22-.4.18-.56-.05a1.16,1.16,0,0,1-.14-.85A2.76,2.76,0,0,1,20.41,21.11Z"/><path class="cls-43" d="M21.18,22.57c.07.27.12.55.2.82a4.24,4.24,0,0,0,.23.59.46.46,0,0,0,.71.17l.27-.19c0,.23-.12.41-.54.72,0-.07,0-.11-.07-.11l0,0c-.29.21-.54.05-.65-.31A4,4,0,0,1,21.18,22.57Z"/><path class="cls-44" d="M22,27.38a.85.85,0,0,0,.93.21l.22-.05a3.17,3.17,0,0,1-1.64,1.06Z"/><path class="cls-45" d="M19.18,20.31c.09.27.32.33.56.35a2.4,2.4,0,0,0,1-.12h.1l-.4.46c0-.06,0-.14,0-.17s-.12,0-.17,0c-.25.07-.49.16-.74.21a1,1,0,0,1-.41,0,.31.31,0,0,1-.18-.52A1.39,1.39,0,0,1,19.18,20.31Z"/><path class="cls-46" d="M31.52,8c.1.18.22.35.31.53a5.83,5.83,0,0,1,.25.7.74.74,0,0,1,0,.21,3.8,3.8,0,0,0-.8-.94.92.92,0,0,1-.39-.54l-.09-.25Z"/><path class="cls-47" d="M35,31.55a2.64,2.64,0,0,0,.54-.93c.1-.29.17-.58.26-.87a7.61,7.61,0,0,1-.09,1,10.9,10.9,0,0,1-.4,1.3.4.4,0,0,1-.37.3Z"/><path class="cls-48" d="M22.26,16.92a1.08,1.08,0,0,0-.08.19.35.35,0,0,0,.26.49,2.05,2.05,0,0,0,.7,0h.3c-.28.09-.55.22-.83.28a1,1,0,0,1-.79-.15c-.21-.12-.24-.28-.08-.44A5.3,5.3,0,0,1,22.26,16.92Z"/><path class="cls-49" d="M15.63,25.79l-.32-.21,0-.06a2.33,2.33,0,0,0,.36.08.71.71,0,0,0,.6-.1c.11-.08.1-.12,0-.2l.38,0c.14,0,.45.3.42.43a.23.23,0,0,1-.14.15.94.94,0,0,1-.66.05,2.38,2.38,0,0,1-.45-.15C15.74,25.74,15.68,25.71,15.63,25.79Z"/><path class="cls-50" d="M30.29,23.74l.36.56a2.53,2.53,0,0,0,1,.86,1.52,1.52,0,0,0,.2.06l-1,0a.14.14,0,0,1-.11-.06c-.14-.45-.27-.9-.41-1.36Z"/><path class="cls-51" d="M19.18,21.93a.57.57,0,0,0,0-.13s0-.11-.08-.12c-.34-.09-.48-.37-.62-.65,0-.09,0-.22-.2-.14l-.09-.51.64-.08c-.12.21-.25.43-.12.67a.65.65,0,0,0,.63.32Z"/><path class="cls-29" d="M28.22,19.35a.64.64,0,0,0,.59-.5,1.21,1.21,0,0,0,.05-.18A3.1,3.1,0,0,1,28.77,20a1.16,1.16,0,0,1-.14.24l-.31.15A1.87,1.87,0,0,0,28.22,19.35Z"/><path class="cls-52" d="M31.81,11.21h.07c.09-.3.18-.6.26-.91,0-.1,0-.2,0-.3a2.15,2.15,0,0,1,.25.93.16.16,0,0,1,0,.1c-.16.34-.33.68-.5,1Z"/><path class="cls-53" d="M17.63,18.34l-.22-.53.71.12-.35,1.44s0-.06,0-.08A1.14,1.14,0,0,0,17.63,18.34Z"/><path class="cls-54" d="M33.71,26.15l.08.23,0,0-.19-.18a.87.87,0,0,0,0-.1l-.64-.69.46.15.08.06s0,.06,0,.08Z"/><path class="cls-55" d="M28.69,28.94l.39-.23-.21.44,0,0a.84.84,0,0,1-.5.31Z"/><path class="cls-56" d="M29.76,22.18c-.16-.08-.17-.24-.22-.38a2.94,2.94,0,0,1-.05-.35l.36.58,0-.13,0,.38h0l-.1-.14Z"/><path class="cls-57" d="M26.1,24.8l-1-.27a.56.56,0,0,1,.13,0l2.55.62s.05,0,.06.06Z"/><path class="cls-1" d="M36.41,6.46l-.06,0c.07-.14.15-.28.23-.42l.05,0Z"/><path class="cls-58" d="M25.41,8.64l.07-.14v.1c.23-.22.32-.23.52-.06a1.48,1.48,0,0,0-.13.21c-.06.17,0,.28.2.28A.33.33,0,0,0,26.22,9a3,3,0,0,1,1.41-.78s.05,0,.08-.06v0l-.52,0a.66.66,0,0,1,.2-.11.35.35,0,0,0,.28-.17.69.69,0,0,1,.11-.13,2.68,2.68,0,0,0,.78-1A2.73,2.73,0,0,0,28.71,6c0-.08,0-.2.05-.24s.16,0,.25,0c.27.28.57.55.82.85a5.52,5.52,0,0,1,.85,1.49.22.22,0,0,1,0,.08c-.17.11-.3,0-.42-.09a1.2,1.2,0,0,0-.87-.13,2.25,2.25,0,0,0-1.15.65c-.35.33-.68.67-1,1a1.19,1.19,0,0,1-.86.33,1.05,1.05,0,0,1-.89-.67A3.83,3.83,0,0,1,25.41,8.64Z"/><path class="cls-59" d="M26,8.54c-.2-.17-.29-.16-.52.06V8.5a1.84,1.84,0,0,1,.78-.57c.25-.11.51-.19.76-.28l.21-.08a2.43,2.43,0,0,0-2,1s-.05,0-.06,0a.57.57,0,0,0-.45-.28c-.25,0-.51-.08-.77-.1s-.34,0-.35-.33a4.19,4.19,0,0,1,.33-.26A3.72,3.72,0,0,1,25.6,7c.33,0,.66,0,1,0,.05,0,.1-.05.16-.07l-.13-.12c0-.1.09-.1.18-.06s.16,0,.18,0,.22-.16.37-.11.07,0,.11,0l.21,0s0,0,0-.07l-.46-.22.1-.06c.1-.09.2-.27.28-.26s.2-.13.27-.22L28,5.61l.39.2,0,0-.21-.21c0-.08.15-.13.06-.26a.31.31,0,0,0-.49-.08l-.67-.37.13-.2a3.58,3.58,0,0,1,1.19.59l.62.45c-.09,0-.2,0-.25,0s0,.16-.05.24a2.73,2.73,0,0,1-.16.64,2.68,2.68,0,0,1-.78,1,.69.69,0,0,0-.11.13.35.35,0,0,1-.28.17.66.66,0,0,0-.2.11l-.18,0a2.61,2.61,0,0,0-.5.12A4.2,4.2,0,0,0,26,8.54Z"/><path class="cls-60" d="M28,5.61l-.09.16c-.07.09-.07.23-.27.22s-.18.17-.28.26l-.1.06A4.5,4.5,0,0,0,25.57,6c-.29,0-.57.05-.86.08a.8.8,0,0,1-.46-.35,1.13,1.13,0,0,1-.14-1,2.65,2.65,0,0,1,1.31-.38,4.31,4.31,0,0,1,1.78.26l-.13.2-.34-.11a3.4,3.4,0,0,0-1-.14A2,2,0,0,0,24.62,5a.17.17,0,0,0-.09.23.19.19,0,0,0,.24.11,2.53,2.53,0,0,0,.36-.12,2.53,2.53,0,0,1,1-.17,3.36,3.36,0,0,1,1.21.25Z"/><path class="cls-2" d="M26.54,13.63a4.58,4.58,0,0,1,.61,1.13c0-.06-.09-.13-.15-.19s-.12-.09-.13-.08-.33.13-.43.32-.14.35-.35.38a4.75,4.75,0,0,0-.63-.23,1,1,0,0,0-1.22.82l0,.18a2.51,2.51,0,0,1-.06-2.22,2.78,2.78,0,0,1,.41-.51l.13,0c-.32.56-.34.62-.33.85l.3-.37a.81.81,0,0,1,1-.23,2.4,2.4,0,0,1,1,.86,1.08,1.08,0,0,0,.11.11c0-.08,0-.11,0-.14a2.18,2.18,0,0,0-.3-.74Z"/><path class="cls-61" d="M28.34,14.5a3.29,3.29,0,0,0-.44.16.15.15,0,0,1-.21,0,2,2,0,0,1-.6-1.57c0-.05,0-.1,0-.15l.17-.76-.06.26c0,.15,0,.17.15.17s.19,0,.22.06a1.18,1.18,0,0,0,.48.4c.14.07.14,0,.17-.08s.09-.3.14-.45c0,.14-.08.29-.1.43a3.37,3.37,0,0,0,0,.55c0,.12.05.26.19.29s.22-.08.29-.18a2.26,2.26,0,0,0,.11-.22c.05-.13.09-.27.13-.4a2.28,2.28,0,0,1,.87-.49s0-.06.07-.09a2.65,2.65,0,0,1-.34,1.92.31.31,0,0,1-.38.17A1.71,1.71,0,0,0,28.34,14.5Z"/><path class="cls-62" d="M25.41,8.64a3.83,3.83,0,0,0,.07.58,1.05,1.05,0,0,0,.89.67,1.19,1.19,0,0,0,.86-.33c.34-.33.67-.67,1-1a2.25,2.25,0,0,1,1.15-.65,1.2,1.2,0,0,1,.87.13c.12.07.25.2.42.09A3,3,0,0,1,31,9.27a4,4,0,0,0-1.25-.88l.13-.13s0,0,0,0a1.25,1.25,0,0,0-.79.28,4.72,4.72,0,0,0-.89,1.05,3.35,3.35,0,0,1-.85.87A1.4,1.4,0,0,1,25.45,10a1.3,1.3,0,0,1-.16-1.15A.88.88,0,0,1,25.41,8.64Z"/><path class="cls-63" d="M23.56,7.8c0,.3,0,.3.35.33s.52.06.77.1a.57.57,0,0,1,.45.28s0,0,.06,0l-.2.67a1.24,1.24,0,0,1-.18.14,2.13,2.13,0,0,1-1.29.24,1.39,1.39,0,0,1-1.23-.92,4.68,4.68,0,0,1-.09-.54,2,2,0,0,1,.6-.82c.22-.18.47-.33.7-.5l.1.11.06.1a4.73,4.73,0,0,0-.43.31,2,2,0,0,0-.66.92.23.23,0,0,0,.12.31.24.24,0,0,0,.3-.11C23.17,8.24,23.37,8,23.56,7.8Z"/><path class="cls-64" d="M27.09,12.06c0-.14,0-.29,0-.42s-.17-.21-.27-.06a3.06,3.06,0,0,0-.28.54,2.38,2.38,0,0,0-.13,1,1.63,1.63,0,0,0-1.46-.36c.07-.28.12-.54.2-.79a4.8,4.8,0,0,1,.6-1.25c.05-.08.09-.11.2-.06a1.48,1.48,0,0,0,1.37,0l.17,0a3.75,3.75,0,0,1-.34,1.54Z"/><path class="cls-65" d="M22.2,8.14a4.68,4.68,0,0,0,.09.54,1.39,1.39,0,0,0,1.23.92,2.13,2.13,0,0,0,1.29-.24A1.24,1.24,0,0,0,25,9.22a1.67,1.67,0,0,0,.23.87c.06.08,0,.13-.08.16a8.2,8.2,0,0,1-1,.31,1.93,1.93,0,0,1-1.18-.16,1.5,1.5,0,0,1-.81-1A1.8,1.8,0,0,1,22.2,8.14Z"/><path class="cls-66" d="M26.33,18.45A2.5,2.5,0,0,0,25.91,20a1,1,0,0,1-.87-.27,2.05,2.05,0,0,1-.33-.64,1.89,1.89,0,0,1,.57-1c.11-.12.24-.23.35-.36s.13-.07.21,0a1.34,1.34,0,0,0,.23.16l.3.11c.08,0,.14.05.14.15a3.38,3.38,0,0,0,0,.45.77.77,0,0,0,.05.19l.16-.05.17-.1.07.43-.2-.22s-.07,0-.08.05-.1.17-.15.25-.07.07-.08.14-.12.09-.2.09-.06-.09,0-.13.09-.3.13-.45a1.3,1.3,0,0,0,.08-.34C26.41,18.37,26.36,18.4,26.33,18.45Zm-.76-.26c-.06.06-.13.1-.18.16a1.15,1.15,0,0,0-.31,1.15c.05.16.25.28.37.23s.13-.2.08-.36,0-.05,0-.07a2.13,2.13,0,0,1,0-.25C25.5,18.77,25.54,18.48,25.57,18.19Z"/><path class="cls-67" d="M27.16,17.87l.35-.15a4,4,0,0,0,.34,1.35,4.62,4.62,0,0,1-.09.65.66.66,0,0,1-.61.51,1,1,0,0,1-.62-.21,2,2,0,0,1-.24-.26l.24,0a.47.47,0,0,0,.35.32.18.18,0,0,0,.21-.25c-.05-.11-.12-.21-.17-.32a2.55,2.55,0,0,1-.13-.29.21.21,0,0,0,.11,0c.06,0,.16,0,.17-.06,0-.22.21-.33.34-.46s.13-.29-.07-.38l-.13-.08C27,18.08,27,18.06,27.16,17.87Z"/><path class="cls-62" d="M24.11,4.79a1.13,1.13,0,0,0,.14,1,.8.8,0,0,0,.46.35c-.37.13-.74.28-1.11.39a.74.74,0,0,1-.39,0,.25.25,0,0,1-.15-.3A1.77,1.77,0,0,1,24.11,4.79Z"/><path class="cls-62" d="M26.29,19.76a2,2,0,0,0,.24.26,1,1,0,0,0,.62.21.66.66,0,0,0,.61-.51,4.62,4.62,0,0,0,.09-.65,1.93,1.93,0,0,1,.22,1.25.6.6,0,0,1-.47.49,1.21,1.21,0,0,1-1.08-.24,1.1,1.1,0,0,1-.43-.82,1.81,1.81,0,0,1,0-.23Z"/><path class="cls-68" d="M24.21,16l0-.18A1,1,0,0,1,25.46,15a4.75,4.75,0,0,1,.63.23,1.58,1.58,0,0,0,1.36.38.92.92,0,0,0,.33-.16l.39.09a.94.94,0,0,1-.67.42,1.72,1.72,0,0,1-1.05-.15c-.27-.11-.52-.25-.79-.35a1.87,1.87,0,0,0-.62-.1c-.41,0-.64.28-.76.78Z"/><path class="cls-69" d="M27.78,15.41a.92.92,0,0,1-.33.16,1.58,1.58,0,0,1-1.36-.38c.21,0,.28-.23.35-.38s.31-.19.43-.32.1,0,.13.08.1.13.15.19l.11.15a3.87,3.87,0,0,0-.42-1.24l.24.21a2.18,2.18,0,0,0,.55.89s0,.09,0,.12C27.55,15.14,27.57,15.22,27.78,15.41Z"/><path class="cls-70" d="M24.71,19.11a2.05,2.05,0,0,0,.33.64,1,1,0,0,0,.87.27,1.22,1.22,0,0,0,.52.75.82.82,0,0,1-1.09,0,2.08,2.08,0,0,1-.67-1.45A1,1,0,0,1,24.71,19.11Z"/><path class="cls-71" d="M23.66,7l-.06-.1-.1-.11.35-.15.29-.13a3.62,3.62,0,0,1,2.2-.26l1.12.28s-.08,0-.11,0-.29-.07-.37.11-.13,0-.18,0-.15,0-.18.06A4,4,0,0,0,23.66,7Z"/><path class="cls-29" d="M31,9.74a5.13,5.13,0,0,0-.57-.38,1.57,1.57,0,0,0-1.5,0c-.2.11-.41.18-.61.27a4.24,4.24,0,0,1,.75-1,.43.43,0,0,1,.49-.1A2.79,2.79,0,0,1,31,9.74Z"/><path class="cls-72" d="M28.34,14.5a1.71,1.71,0,0,1,.84,0,.31.31,0,0,0,.38-.17,2.65,2.65,0,0,0,.34-1.92,2.56,2.56,0,0,0-.52-1.29.85.85,0,0,0-1.18-.34l-.13,0c-.08-.1,0-.11.07-.12a1,1,0,0,1,1,.07,2,2,0,0,1,.77,1A3.42,3.42,0,0,1,30,13.86l-.38.73.31.21v0a2,2,0,0,0-1.49-.25Z"/><path class="cls-73" d="M28.48,16.08c.05-.2.11-.4.15-.6s.06-.15.18-.13a2.5,2.5,0,0,1-.17,1,2.47,2.47,0,0,1-1.91,1.45.93.93,0,0,1-1-.41h0a1.16,1.16,0,0,0,1,.12s.09,0,.13,0l.72-.29a2,2,0,0,0,.94-1C28.58,16.18,28.57,16.12,28.48,16.08Z"/><path class="cls-74" d="M27.16,17.87c-.17.19-.16.21.05.36l.13.08c.2.09.21.23.07.38s-.31.24-.34.46c0,0-.11.05-.17.06a.21.21,0,0,1-.11,0l0-.36.2.22-.07-.43-.17.1-.16.05a.77.77,0,0,1-.05-.19,3.38,3.38,0,0,1,0-.45c0-.1-.06-.13-.14-.15l-.3-.11A1.84,1.84,0,0,0,27.16,17.87Z"/><path class="cls-75" d="M27.79,16.35h0l.24.06a1,1,0,0,1-.11.2,2.85,2.85,0,0,1-1.43.81h-.09l-.09,0c.16-.23.16-.54.41-.72.07-.06.15-.1.23-.16l-.1.43-.06.15a.36.36,0,0,0,.29-.13l.36-.35.05,0,.33-.23Z"/><path class="cls-76" d="M28.07,10.75l.13,0a2.39,2.39,0,0,0-.95,1.38l-.17.76,0,0V12.6l.09-.45a3.75,3.75,0,0,0,.34-1.54l.08,0,0,.69Z"/><path class="cls-77" d="M27.86,14.91c0,.1.06.12.15.12l1,0a4.86,4.86,0,0,1,.55.07s.06.05.09.07a3.91,3.91,0,0,0-.49,0c-.3,0-.59.07-.89.1a1,1,0,0,1-.34,0C27.74,15.21,27.71,15.09,27.86,14.91Z"/><path class="cls-78" d="M28.48,16.08c.09,0,.1.1.06.2a2,2,0,0,1-.94,1l-.72.29s-.09,0-.13,0a2.75,2.75,0,0,0,1.32-.81A4.25,4.25,0,0,0,28.48,16.08Z"/><path class="cls-79" d="M26.54,13.63l-.15,0a1.51,1.51,0,0,0-.59-.47.87.87,0,0,0-1.06.11s0,0,0,0l-.13,0a1.11,1.11,0,0,1,1.3-.18A1.42,1.42,0,0,1,26.54,13.63Z"/><path class="cls-74" d="M26.29,19.76l-.17-.24c.06-.28.12-.55.17-.83a2,2,0,0,0,0-.24c0-.05.08-.08.07,0a1.3,1.3,0,0,1-.08.34c0,.15-.1.3-.13.45s0,.13,0,.13.19,0,.2-.09,0-.13.08-.14a1,1,0,0,0,0,.6Z"/><path class="cls-80" d="M27.79,16.35l0,0-.33.23-.05,0a.5.5,0,0,0-.41.23c-.08.08,0,.1.05.12a.36.36,0,0,1-.29.13l.06-.15A1.07,1.07,0,0,1,27.79,16.35Z"/><path class="cls-81" d="M26.34,16.76a2.62,2.62,0,0,1,0,.28.35.35,0,0,1-.45.31l-.15,0,0,.08h0l-.17-.19a2.73,2.73,0,0,0,.51-.07c.18-.05.24-.21.26-.39h0Z"/><path class="cls-82" d="M27.13,12.15,27,12.6l-.33.88-.16-.15a1.16,1.16,0,0,0,.38-.62c.06-.22.11-.43.16-.65Z"/><path class="cls-83" d="M27.08,13.88l-.24-.21a.15.15,0,0,1,0-.22c.05-.09.09-.19.15-.3Z"/><path class="cls-84" d="M29.15,15.49A.6.6,0,0,1,29,16V15.8h0L28.9,16l.07-.73c.14.16.09.31.12.46Z"/><path class="cls-85" d="M26.34,16.76h0a1.67,1.67,0,0,0-.57-1.07C26,15.73,26.37,16.35,26.34,16.76Z"/><path class="cls-58" d="M27.46,6.56l-1.12-.28.2,0,1,.23a.33.33,0,0,0,.17,0s0,.07,0,.07Z"/><path class="cls-9" d="M30.52,7.17l.14.15c-.25,0-.44-.18-.35-.36Z"/><path class="cls-13" d="M26.35,29.72l-.29.05L26,29.68c-.09-.08-.09-.22,0-.25a.58.58,0,0,1,.32,0s0,.13.05.2S26.35,29.7,26.35,29.72Z"/><path class="cls-18" d="M33.71,26.15l-.3-.42s0-.05,0-.08l0,0C33.71,25.8,33.74,25.87,33.71,26.15Z"/><path class="cls-86" d="M16.08,16.53H16a.12.12,0,0,1,0-.08.39.39,0,0,1,.08-.1,1.59,1.59,0,0,0,.2-1.66A1.78,1.78,0,0,0,15,13.53a5,5,0,0,0-.79-.11h-.18l.13-.07,0,0-.11-.06v0l.72,0a2.35,2.35,0,0,0,1.5-.42c.16-.13.3-.28.46-.4l-.27.44a1.41,1.41,0,0,0,1.12,0v0l-.27.15-.23.06a1.48,1.48,0,0,1-.69-.11.2.2,0,0,0-.17,0,2.07,2.07,0,0,1-.85.33l-.14,0a2.21,2.21,0,0,1,1.13,1.08,2.18,2.18,0,0,1,.15,1.07A1.55,1.55,0,0,1,16.08,16.53Z"/><path class="cls-87" d="M16.45,14.52a2.21,2.21,0,0,0-1.13-1.08l.14,0a2.07,2.07,0,0,0,.85-.33.2.2,0,0,1,.17,0,1.48,1.48,0,0,0,.69.11l-.35.46A1.47,1.47,0,0,0,16.45,14.52Z"/><path class="cls-1" d="M36.41,5.61c0,.14-.06.28-.1.42s-.05.06-.08.1,0-.08,0-.11c0-.29.1-.58.17-.86,0,0,.06-.11.09-.11s.06.09,0,.15S36.45,5.47,36.41,5.61Z"/><path class="cls-88" d="M28.31,9.91a.67.67,0,0,1,1.05.08,2.52,2.52,0,0,1,.5,1,.15.15,0,0,1,0,.09,3.24,3.24,0,0,0-.51-.93,1.48,1.48,0,0,0-.28-.28.54.54,0,0,0-.63,0Z"/><path class="cls-89" d="M26,8.54a4.2,4.2,0,0,1,.51-.35,2.61,2.61,0,0,1,.5-.12l.18,0,.52,0v0s-.05.05-.08.06A3,3,0,0,0,26.22,9a.33.33,0,0,1-.16.07c-.18,0-.26-.11-.2-.28A1.48,1.48,0,0,1,26,8.54Z"/><path class="cls-90" d="M23.66,7a4,4,0,0,1,3-.28l.13.12c-.06,0-.11.06-.16.07-.33,0-.66,0-1,0a3.72,3.72,0,0,0-1.71.56,4.19,4.19,0,0,0-.33.26c-.19.22-.39.44-.57.66a.24.24,0,0,1-.3.11.23.23,0,0,1-.12-.31,2,2,0,0,1,.66-.92A4.73,4.73,0,0,1,23.66,7Z"/><path class="cls-91" d="M28,5.61l-.65-.32A3.36,3.36,0,0,0,26.11,5a2.53,2.53,0,0,0-1,.17,2.53,2.53,0,0,1-.36.12.19.19,0,0,1-.24-.11A.17.17,0,0,1,24.62,5a2,2,0,0,1,1.11-.37,3.4,3.4,0,0,1,1,.14l.34.11.67.37.43.34.21.21,0,0Z"/><path class="cls-60" d="M28.17,5.58l-.43-.34a.31.31,0,0,1,.49.08C28.32,5.45,28.21,5.5,28.17,5.58Z"/><path class="cls-92" d="M24.69,13.26s0,0,0,0a.87.87,0,0,1,1.06-.11,1.51,1.51,0,0,1,.59.47,2.18,2.18,0,0,1,.3.74s0,.06,0,.14a1.08,1.08,0,0,1-.11-.11,2.4,2.4,0,0,0-1-.86.81.81,0,0,0-1,.23l-.3.37C24.35,13.88,24.37,13.82,24.69,13.26Z"/><path class="cls-93" d="M27.25,12.16a2.39,2.39,0,0,1,.95-1.38.85.85,0,0,1,1.18.34,2.56,2.56,0,0,1,.52,1.29s0,.08-.07.09A2.28,2.28,0,0,0,29,13c0-.07,0-.14,0-.21a2.42,2.42,0,0,0,0-.47.29.29,0,0,0-.17-.2.37.37,0,0,0-.23.12,2,2,0,0,0-.18.29c-.05.15-.1.3-.14.45s0,.15-.17.08a1.18,1.18,0,0,1-.48-.4c0-.05-.15-.05-.22-.06s-.17,0-.15-.17Z"/><path class="cls-94" d="M28.35,12.52a2,2,0,0,1,.18-.29.37.37,0,0,1,.23-.12.29.29,0,0,1,.17.2,2.42,2.42,0,0,1,0,.47c0,.07,0,.14,0,.21s-.08.27-.13.4a2.26,2.26,0,0,1-.11.22c-.07.1-.15.21-.29.18s-.18-.17-.19-.29a3.37,3.37,0,0,1,0-.55C28.27,12.81,28.32,12.66,28.35,12.52Z"/><path class="cls-95" d="M25.57,18.19c0,.29-.07.58-.1.86a2.13,2.13,0,0,0,0,.25s0,0,0,.07,0,.33-.08.36-.32-.07-.37-.23a1.15,1.15,0,0,1,.31-1.15C25.44,18.29,25.51,18.25,25.57,18.19Z"/><path class="cls-91" d="M26.53,19.74a1,1,0,0,1,0-.6c.05-.08.09-.17.15-.25s0,0,.08-.05l0,.36a2.55,2.55,0,0,0,.13.29c0,.11.12.21.17.32a.18.18,0,0,1-.21.25A.47.47,0,0,1,26.53,19.74Z"/><path class="cls-96" d="M27.09,16.94c-.07,0-.13,0-.05-.12a.5.5,0,0,1,.41-.23Z"/><path class="cls-3" d="M22.19,37.47a1.65,1.65,0,0,1-1-.39.82.82,0,0,1-.3-.67.8.8,0,0,1,.36-.61,2.57,2.57,0,0,0,.53-1l.06-.16,0-.08a1.57,1.57,0,0,1-.61-1.14c-.07-1.4,1.72-2,2.59-2H24a1.93,1.93,0,0,1,1.41.55A2.12,2.12,0,0,1,26,33.52c0,1.2-1,2.95-2.49,3h-.16a1.48,1.48,0,0,1-.95,1,1,1,0,0,1-.24,0Z"/><path class="cls-3" d="M25.5,37.47a1.36,1.36,0,0,1-.9-.34,1.24,1.24,0,0,1-.44-1c0-1,.6-2.86,2-2.86a1.34,1.34,0,0,1,.94.4,1.21,1.21,0,0,1,.34.88v.12a.73.73,0,0,1,.64.46.71.71,0,0,1-.2.78,4.34,4.34,0,0,1-1.08.7,1.52,1.52,0,0,1-1.22.81Z"/><path class="cls-3" d="M28.64,37.48a1.25,1.25,0,0,1-.65-.21,1.08,1.08,0,0,1-.53.18h-.09a1.36,1.36,0,0,1-.94-.45.93.93,0,0,1-.29-.71,4.07,4.07,0,0,1,.13-.72h0c0-.11.07-.23.12-.37.12-.32.26-.62.4-.92h0l.18-.4.13-.31v0a9.94,9.94,0,0,1,1-1.86l0,0a.78.78,0,0,1,.61-.28h.58a.8.8,0,0,1,.55.24H30l.53,0a.77.77,0,0,1,.68.45.75.75,0,0,1-.07.79,12.57,12.57,0,0,0-1,1.82l-.07.14a.7.7,0,0,1,.38,1.09.94.94,0,0,1-.12.18,7.13,7.13,0,0,1-.48.65,1.84,1.84,0,0,1-1.18.75Z"/><path class="cls-3" d="M29.36,37a.78.78,0,0,1-.22,0,.71.71,0,0,1-.49-.63v-.13a3.27,3.27,0,0,1,.08-.56.76.76,0,0,1,.17-.32l.25-.28a.69.69,0,0,1,.54-.25h.24a.71.71,0,0,1,.63.39.69.69,0,0,1-.06.73.94.94,0,0,1-.12.18,7.13,7.13,0,0,1-.48.65A.7.7,0,0,1,29.36,37Z"/><path class="cls-3" d="M31.86,37.42a.82.82,0,0,1-.3-.07.7.7,0,0,1-.38-.47.71.71,0,0,1,.43-.84h0a.82.82,0,0,1,.31-.07.69.69,0,0,1,.63.4.7.7,0,0,1-.3.94l-.09.05A.82.82,0,0,1,31.86,37.42Z"/><path class="cls-3" d="M30,37.55a1.33,1.33,0,0,1-1.33-1.25.62.62,0,0,1,.08-.35.86.86,0,0,1,0-.32c.23-1,.88-2.2,2-2.2h.07a1.32,1.32,0,0,1,.91.44,1.15,1.15,0,0,1,.31.69l0,0a.8.8,0,0,1,.73-.41h.16a1,1,0,0,1,.83.45,1.17,1.17,0,0,1,.11,1,3,3,0,0,1-.74,1.1l-.06,0a4.27,4.27,0,0,1-.6.45h0l-.11.06-.08,0-.1,0a2.1,2.1,0,0,1-.82.16,2,2,0,0,1-.7-.12,1.26,1.26,0,0,1-.59.15Zm2-2.46c0,.13-.06.27-.1.39.08-.12.12-.2.15-.25A1.21,1.21,0,0,1,32,35.09Z"/><path class="cls-3" d="M32.37,36.69a.76.76,0,0,1-.46-.16.72.72,0,0,1-.12-1l.05-.06a.7.7,0,0,1,.59-.32h0a.72.72,0,0,1,.6.37h0a.71.71,0,0,1-.07.79l-.11.12A.7.7,0,0,1,32.37,36.69Z"/><path class="cls-3" d="M32.06,37.31a.69.69,0,0,1-.61-.35.7.7,0,0,1,.24-1,3.88,3.88,0,0,0,.44-.33.67.67,0,0,1,.47-.18h.12a.71.71,0,0,1,.37,1.21,3.66,3.66,0,0,1-.68.51A.73.73,0,0,1,32.06,37.31Z"/><path class="cls-70" d="M22.19,37.21a1.48,1.48,0,0,1-.83-.33.53.53,0,0,1-.2-.45A.52.52,0,0,1,21.4,36,2.68,2.68,0,0,0,22,34.93l.06-.15c0-.09.08-.19.11-.28a1.34,1.34,0,0,1-.67-1c-.05-1.19,1.59-1.71,2.35-1.76H24a1.66,1.66,0,0,1,1.22.47,1.83,1.83,0,0,1,.51,1.36c0,1.06-.89,2.68-2.23,2.7h0l-.29,0c-.17.43-.4.89-.84,1Zm2-4.11a9.79,9.79,0,0,1-.36,1.39,2,2,0,0,0,.4-1.11A.75.75,0,0,0,24.21,33.1Z"/><path class="cls-70" d="M25.5,37.2a1,1,0,0,1-.72-.27,1,1,0,0,1-.35-.75c0-.76.49-2.59,1.72-2.59a1.06,1.06,0,0,1,.75.31,1,1,0,0,1,.27.69,2.34,2.34,0,0,1,0,.39h.28a.43.43,0,0,1,.41.29.45.45,0,0,1-.12.48,4.09,4.09,0,0,1-1.09.69,1.3,1.3,0,0,1-1.06.75Z"/><path class="cls-70" d="M28.64,37.22a1,1,0,0,1-.64-.28,1.09,1.09,0,0,1-.57.25h-.06a1.12,1.12,0,0,1-.75-.36.67.67,0,0,1-.21-.52,2.64,2.64,0,0,1,.12-.65h0c0-.11.07-.22.11-.35.12-.31.26-.62.39-.91s.13-.28.19-.42l.15-.33a9.34,9.34,0,0,1,.92-1.81l0,0a.53.53,0,0,1,.41-.19h.57a.52.52,0,0,1,.46.28.48.48,0,0,1,.24-.06h0l.53,0a.51.51,0,0,1,.45.29.53.53,0,0,1,0,.53,12.71,12.71,0,0,0-1,1.86l-.11.23a2.17,2.17,0,0,0-.12.26h.21a.43.43,0,0,1,.39.24.45.45,0,0,1,0,.46l-.13.18c-.13.19-.29.42-.46.63a1.65,1.65,0,0,1-1,.66Z"/><path class="cls-3" d="M9.93,38.67a1.61,1.61,0,0,1-1.58-1.54.73.73,0,0,1,.33-.67.77.77,0,0,1,.39-.11.65.65,0,0,1,.36.1.69.69,0,0,0,.29.07h.06l.07,0a1.59,1.59,0,0,1-.94-1.17,2.56,2.56,0,0,1,.41-1.8,2.32,2.32,0,0,1,1.59-1.07l.21,0A1.67,1.67,0,0,1,12.65,34a1.73,1.73,0,0,1-.81,1.67,1.11,1.11,0,0,1,.23.55,2.16,2.16,0,0,1-.45,1.55,2.29,2.29,0,0,1-1.45.93Z"/><path class="cls-70" d="M29.36,36.72l-.14,0a.45.45,0,0,1-.3-.4.14.14,0,0,1,0-.09,2.67,2.67,0,0,1,.07-.52.44.44,0,0,1,.11-.2l.25-.28a.44.44,0,0,1,.34-.16h.24a.43.43,0,0,1,.39.24.45.45,0,0,1,0,.46l-.13.18c-.13.19-.29.42-.46.63A.46.46,0,0,1,29.36,36.72Z"/><path class="cls-3" d="M12.24,38.41A1.34,1.34,0,0,1,11,37.25a4.65,4.65,0,0,1,.65-2.59.24.24,0,0,1,.06-.09,1.4,1.4,0,0,1,1.14-.39h0a.8.8,0,0,1,.63.3l.31,0h0a.84.84,0,0,1,.7.37.87.87,0,0,1,.14.52.71.71,0,0,1,.59.33.72.72,0,0,1,0,.71l-.09.18h0c-.32.65-.76,1.54-1.53,1.67l-.18,0a1.21,1.21,0,0,1-.49-.11,1.19,1.19,0,0,1-.54.24Z"/><path class="cls-70" d="M31.86,37.15a.37.37,0,0,1-.18,0,.48.48,0,0,1-.25-.29h0a.44.44,0,0,1,.27-.52l0,0a.41.41,0,0,1,.19,0,.44.44,0,0,1,.2.84l-.08,0A.58.58,0,0,1,31.86,37.15Z"/><path class="cls-3" d="M14.14,40.18a1.2,1.2,0,0,1-1.17-1,6.16,6.16,0,0,1,.3-2.06c0-.15.08-.3.11-.43l.09-.36h0a8.29,8.29,0,0,1,.63-2l0,0a.79.79,0,0,1,.61-.39l.55-.06h0a1,1,0,0,1,.4-.14h.12a1.32,1.32,0,0,1,1.32,1.07,1.82,1.82,0,0,1,0,.33.68.68,0,0,1,.41.37.72.72,0,0,1-.13.81,4.58,4.58,0,0,1-.82.64,1.68,1.68,0,0,1-1.16,1l-.2,0h-.06A4.92,4.92,0,0,0,15,39.38a.76.76,0,0,1-.15.48.85.85,0,0,1-.68.32Z"/><path class="cls-70" d="M30,37.28a1.05,1.05,0,0,1-1.07-1A.42.42,0,0,1,29,36h0a.51.51,0,0,1,0-.3c.21-.92.78-2,1.7-2h0a1.09,1.09,0,0,1,.74.34,1,1,0,0,1,.24.71A4.49,4.49,0,0,1,31.38,36l0,0,.12,0a.35.35,0,0,0,.14,0l0,0,0,0,0,0h0l0,0a1.16,1.16,0,0,0,.29-.26h0l0,0a1.33,1.33,0,0,0,.22-.44.53.53,0,0,1,0-.56.51.51,0,0,1,.49-.26h.14a.75.75,0,0,1,.63.34.9.9,0,0,1,.07.82,2.53,2.53,0,0,1-.67,1l0,0a3.8,3.8,0,0,1-.57.42h0l-.1.06-.07,0-.09,0a1.82,1.82,0,0,1-.72.15,1.73,1.73,0,0,1-.72-.16,1,1,0,0,1-.57.18Z"/><path class="cls-3" d="M17.09,37.89a1.43,1.43,0,0,1-1.37-1.28c-.08-.9.31-2.74,1.61-2.88h.15A1.39,1.39,0,0,1,18.89,35a.13.13,0,0,1,0,.06.69.69,0,0,1,.24.24.71.71,0,0,1,0,.73l0,0c-.34.61-.9,1.63-1.87,1.76Z"/><path class="cls-70" d="M32.37,36.42a.46.46,0,0,1-.29-.1.44.44,0,0,1-.07-.6l.05-.07a.44.44,0,0,1,.37-.21h0a.44.44,0,0,1,.37.24h0a.44.44,0,0,1,0,.49l-.09.1A.43.43,0,0,1,32.37,36.42Z"/><path class="cls-3" d="M18.7,37.77a1.22,1.22,0,0,1-1.26-1.05,4,4,0,0,1,.67-2.34A1.08,1.08,0,0,1,19,34h.19l.18-.21v0a.9.9,0,0,1,.66-.27,1.38,1.38,0,0,1,.93.4,1,1,0,0,1,.25.67,3.16,3.16,0,0,1-.17.72l0,.07a.74.74,0,0,1,.13.41.71.71,0,0,1-.58.72,2,2,0,0,1-.41,0,1.49,1.49,0,0,1-.43-.06,6,6,0,0,0-.28.6.74.74,0,0,1-.67.66Z"/><path class="cls-70" d="M32.06,37.05a.44.44,0,0,1-.38-.22.43.43,0,0,1,.15-.6,3.09,3.09,0,0,0,.47-.36.42.42,0,0,1,.3-.12h.08a.45.45,0,0,1,.23.76,4,4,0,0,1-.63.47A.46.46,0,0,1,32.06,37.05Z"/><path class="cls-3" d="M38,38.18c-.27,0-1,0-1.23-.58,0,0,0-.07,0-.11a2,2,0,0,1-1.15.42h-.1a1,1,0,0,1-.74-.37,1.44,1.44,0,0,1-.3-1.06v0a.73.73,0,0,1,0-.58,2.12,2.12,0,0,1,.79-.9,2.05,2.05,0,0,1,1.11-.26h.4c.66-.6,1.34-1.28,2.2-2.17a.71.71,0,0,1,.52-.22h.09l.78.1a.72.72,0,0,1,.6.52.7.7,0,0,1-.24.75,5.63,5.63,0,0,0-1.08,1.54l-.12.2-.12.21a8.48,8.48,0,0,0-.46.87c-.21.48-.15.63-.15.64a.71.71,0,0,1,0,.68.75.75,0,0,1-.58.35Z"/><path class="cls-3" d="M39.18,38.28h-.12a.95.95,0,0,1,.12-1.89h.12a.93.93,0,0,1,.63.36.89.89,0,0,1,.19.7A.94.94,0,0,1,39.18,38.28Z"/><path class="cls-3" d="M40.31,38.45h-.24A1.56,1.56,0,0,1,39,37.8a1.75,1.75,0,0,1-.26-1.33.72.72,0,0,1,.51-.55.69.69,0,0,1,.2,0,.68.68,0,0,1,.52.23.65.65,0,0,0,.32.16l.08,0a1.56,1.56,0,0,1-.58-1.38,2.59,2.59,0,0,1,2.45-2.21h.27a1.35,1.35,0,0,1,.93.55,1.88,1.88,0,0,1,.32,1.39A1.69,1.69,0,0,1,42.51,36a1.16,1.16,0,0,1,.07.6,2.38,2.38,0,0,1-2.27,1.86Z"/><path class="cls-70" d="M9.93,38.4a1.34,1.34,0,0,1-1.32-1.29.48.48,0,0,1,.21-.43.55.55,0,0,1,.25-.07.39.39,0,0,1,.23.07.93.93,0,0,0,.42.11h.11a1,1,0,0,0,.47-.37l-.17-.09a1.46,1.46,0,0,1-1-1,2.35,2.35,0,0,1,.37-1.61,2.06,2.06,0,0,1,1.41-1h.17A1.4,1.4,0,0,1,12.39,34a1.37,1.37,0,0,1-1,1.53h0a1.07,1.07,0,0,1,.46.7,1.88,1.88,0,0,1-.4,1.35,2,2,0,0,1-1.27.82A.75.75,0,0,1,9.93,38.4Z"/><path class="cls-70" d="M12.24,38.14a1.06,1.06,0,0,1-1-.92,4.36,4.36,0,0,1,.6-2.42l0-.06a1.15,1.15,0,0,1,.94-.29h0a.55.55,0,0,1,.46.24l0,.08a1.89,1.89,0,0,1,.44,0h0a.57.57,0,0,1,.48.25.53.53,0,0,1,.05.53.61.61,0,0,1-.05.12h.34a.44.44,0,0,1,.38.21.43.43,0,0,1,0,.45,1.07,1.07,0,0,1-.09.19c-.29.59-.7,1.41-1.34,1.52h-.13a.93.93,0,0,1-.53-.17,1,1,0,0,1-.54.31Z"/><path class="cls-70" d="M14.14,39.91c-.34,0-.88-.3-.91-.71a6.34,6.34,0,0,1,.3-2c0-.15.08-.29.11-.43l.09-.37a8.56,8.56,0,0,1,.6-1.9l0,0a.55.55,0,0,1,.41-.26l.54,0h.08a.59.59,0,0,1,.34-.14h.09a1,1,0,0,1,1,.84,1.51,1.51,0,0,1,0,.52h0a.44.44,0,0,1,.41.26.46.46,0,0,1-.08.51,4,4,0,0,1-.83.64,1.48,1.48,0,0,1-1,.89h-.16a1.09,1.09,0,0,1-.26,0,6,6,0,0,0-.27,1.72.5.5,0,0,1-.1.31A.58.58,0,0,1,14.14,39.91Z"/><path class="cls-70" d="M17.09,37.63a1.15,1.15,0,0,1-1.1-1c-.07-.72.23-2.47,1.37-2.6h.12a1.12,1.12,0,0,1,1.15,1.06,1.85,1.85,0,0,1,0,.23.44.44,0,0,1,.3.2.45.45,0,0,1,0,.46l0,.05c-.31.57-.84,1.52-1.68,1.63Z"/><path class="cls-70" d="M18.7,37.51a.94.94,0,0,1-1-.8,3.63,3.63,0,0,1,.61-2.17.81.81,0,0,1,.67-.25l.31,0a3.92,3.92,0,0,1,.25-.32h0a.62.62,0,0,1,.47-.2,1,1,0,0,1,.73.33.58.58,0,0,1,.18.47,2.45,2.45,0,0,1-.15.65c0,.08-.05.15-.07.22a.44.44,0,0,1,.17.34.46.46,0,0,1-.37.46,1.59,1.59,0,0,1-.36,0,1.3,1.3,0,0,1-.56-.12c-.15.29-.3.58-.42.88a.46.46,0,0,1-.42.45Z"/><path class="cls-3" d="M11.83,33.86a.91.91,0,0,1-.66,1,.44.44,0,0,1-.47-.25c.39-.11.83-1.41.31-1.35s-.81,1.15-.74,1.67.91.64,1,1.15A1.67,1.67,0,0,1,10,37.75a.88.88,0,0,1-1-.86,1.38,1.38,0,0,0,.84.16c.42-.07,1-.69.89-1s-1.07-.39-1.17-1A1.83,1.83,0,0,1,10.92,33C11.42,32.89,11.78,33.42,11.83,33.86Z"/><path class="cls-3" d="M14.5,35.88c-.24.47-.64,1.39-1.11,1.47-.24,0-.53-.2-.59-.48-.14.22-.34.59-.6.63a.6.6,0,0,1-.6-.52,4,4,0,0,1,.54-2.13c.09-.11.41-.13.59-.13a.08.08,0,0,1,.08.11,4.91,4.91,0,0,0-.59,2.26,1.73,1.73,0,0,0,.61-.83,5.22,5.22,0,0,1,.31-1.14c.07-.09.36-.12.54-.12a.11.11,0,0,1,.11.15,4,4,0,0,0-.37,1.79,2.49,2.49,0,0,0,.84-1Z"/><path class="cls-3" d="M16.8,35.67a4,4,0,0,1-.84.62c-.17.3-.37.72-.73.77a.86.86,0,0,1-.65-.22,8.6,8.6,0,0,0-.43,2.4c-.12.14-.56-.11-.57-.26a7.79,7.79,0,0,1,.4-2.26,9.64,9.64,0,0,1,.66-2.18.09.09,0,0,1,.06,0l.54,0a.08.08,0,0,1,.09.12.52.52,0,0,0-.07.15c.14-.23.29-.4.39-.41a.61.61,0,0,1,.66.44,2.61,2.61,0,0,1-.19,1.15.82.82,0,0,0,.42-.21Zm-1.09-1c-.18,0-.83,1.4-1,1.94a.47.47,0,0,0,.33.16c.05,0,.11-.09.18-.22a.22.22,0,0,1-.09-.34.32.32,0,0,1,.28-.06A5.38,5.38,0,0,0,15.71,34.65Z"/><path class="cls-70" d="M38,37.92c-.38,0-.83-.05-1-.42A1.09,1.09,0,0,1,37,37a2.14,2.14,0,0,1-1.38.68h-.08a.76.76,0,0,1-.56-.28,1.21,1.21,0,0,1-.24-.87.29.29,0,0,1,0-.09.47.47,0,0,1,0-.42,2,2,0,0,1,.69-.8,1.87,1.87,0,0,1,1-.22,3.79,3.79,0,0,1,.49,0c.69-.63,1.41-1.34,2.3-2.27a.45.45,0,0,1,.33-.14h0l.79.11a.45.45,0,0,1,.38.32.46.46,0,0,1-.15.48,5.79,5.79,0,0,0-1.16,1.61,1.28,1.28,0,0,1-.11.2l-.12.21c-.26.44-.8,1.36-.62,1.76a.42.42,0,0,1,0,.42.45.45,0,0,1-.36.22Z"/><path class="cls-3" d="M18.43,35.54c-.28.51-.73,1.36-1.36,1.45a.69.69,0,0,1-.73-.63c-.06-.61.21-2,1-2.1a.7.7,0,0,1,.77.62A1.12,1.12,0,0,1,17.2,36a1.06,1.06,0,0,1-.26,0c-.07.39,0,.72.16.69.44-.08.85-.73,1.12-1.1ZM17,35.79c.27-.18.71-1.21.58-1.23S17.06,35.42,17,35.79Z"/><path class="cls-70" d="M39.18,38H39.1a.68.68,0,0,1,.08-1.35h.09a.72.72,0,0,1,.45.26.68.68,0,0,1-.54,1.1Z"/><path class="cls-3" d="M20.33,35.63h0a.79.79,0,0,1-.7-.1h0a.46.46,0,0,1-.12-.48h0a12.39,12.39,0,0,0-.89,1.74.24.24,0,0,0,0,.07c-.2,0-.56-.11-.57-.36a3.22,3.22,0,0,1,.52-1.87c.11-.14.71,0,.71,0a2.51,2.51,0,0,0-.44.95,8,8,0,0,1,.94-1.43c.14-.15.61.07.6.26s-.19.63-.25.94A.25.25,0,0,0,20.33,35.63Z"/><path class="cls-70" d="M40.31,38.19l-.2,0a1.26,1.26,0,0,1-.89-.52A1.47,1.47,0,0,1,39,36.52a.49.49,0,0,1,.32-.35h.13a.47.47,0,0,1,.33.14.89.89,0,0,0,.48.25h0a1.13,1.13,0,0,0,.54-.23l-.14-.13a1.47,1.47,0,0,1-.63-1.27,2.33,2.33,0,0,1,2.19-2l.24,0a1.07,1.07,0,0,1,.75.44,1.59,1.59,0,0,1,.27,1.19,1.4,1.4,0,0,1-1.29,1.19h-.13a1.07,1.07,0,0,1,.24.8A2.15,2.15,0,0,1,40.31,38.19Z"/><path class="cls-3" d="M25.25,33.4c0,.89-.78,2.24-1.79,2.25a1.37,1.37,0,0,1-.58-.09c-.14.32-.36,1-.67,1.07a.87.87,0,0,1-.65-.22.09.09,0,0,1,0-.15,3.29,3.29,0,0,0,.85-1.44,11.9,11.9,0,0,0,.63-2,1.71,1.71,0,0,0-.51,1.22.88.88,0,0,1-.64-.76c0-.82,1.26-1.25,1.93-1.3A1.26,1.26,0,0,1,25.25,33.4Zm-.62-.15c0-.49-.22-.87-.74-.84h-.12a11.59,11.59,0,0,1-.8,2.89C23.94,35.28,24.63,34.12,24.63,33.25Z"/><path class="cls-3" d="M27,35.3h.31a3.55,3.55,0,0,1-1.11.66c-.14.3-.39.65-.75.66a.61.61,0,0,1-.67-.58c0-.66.43-2.14,1.28-2.14a.57.57,0,0,1,.58.55,3.79,3.79,0,0,1-.27,1.14c0,.09.44-.15.63-.3Zm-.8-1.08c-.33-.06-.83,1.55-.84,2.07A.59.59,0,0,0,25.8,36a.21.21,0,0,1-.11-.36c.08-.08.19,0,.34,0C26.14,35.36,26.42,34.26,26.22,34.22Z"/><path class="cls-3" d="M30.52,32.32a.08.08,0,0,0-.07-.12l-.53,0a.09.09,0,0,0-.07,0,14.31,14.31,0,0,0-1.48,3.11h0c-.25.31-.87,1-.95.91a10.15,10.15,0,0,1,.7-1.88,15.22,15.22,0,0,1,1.17-2.27.08.08,0,0,0-.07-.12l-.56,0a.11.11,0,0,0-.07,0,12.06,12.06,0,0,0-1,2.07c-.18.4-.41.85-.57,1.3,0,.1-.07.21-.1.31h0a2.48,2.48,0,0,0-.11.57c0,.17.34.43.54.41s.61-.45.83-.7a1.63,1.63,0,0,0-.07.33c0,.16.32.42.51.4a1.22,1.22,0,0,0,.7-.5c.22-.26.42-.58.57-.78h-.24l-.27.3c-.28.3-.62.63-.67.59a11.07,11.07,0,0,1,.69-1.78A13.55,13.55,0,0,1,30.52,32.32Z"/><path class="cls-3" d="M29.62,35.37l-.27.3a1.85,1.85,0,0,0-.06.44v0c.22-.26.42-.58.57-.78Z"/><path class="cls-3" d="M31.86,36.55l-.07,0h0Z"/><path class="cls-3" d="M32.78,34.7c-.17,0-.31,0-.17.17s0,.59-.25.89h0l-.07.09a2.38,2.38,0,0,1-.38.34h0l-.05,0,0,0-.08.05a.83.83,0,0,1-.81-.08h0a.45.45,0,0,1-.13-.15l0-.06h0c0-.11.08-.16.14-.28a4,4,0,0,0,.31-1.13.56.56,0,0,0-.55-.57c-.69,0-1.15.93-1.31,1.65l.27-.3h.24c-.15.2-.35.52-.57.78a.62.62,0,0,0,.64.57.75.75,0,0,0,.55-.3l.07.06a1.3,1.3,0,0,0,1.24.1l.07,0,0,0,.09-.05h0a3.35,3.35,0,0,0,.54-.41h0a2.37,2.37,0,0,0,.56-.81C33.18,35,33.1,34.72,32.78,34.7Zm-2.25,1c-.14,0-.25,0-.34,0a.24.24,0,0,0-.06.1v0h0a.2.2,0,0,0,.07.16h0l0,.07h0a.53.53,0,0,1-.39.22c0-.52.59-2.11.92-2S30.66,35.47,30.53,35.73Z"/><path class="cls-3" d="M32.37,35.77l-.07.09.06-.1Z"/><path class="cls-3" d="M32.53,36.08a3,3,0,0,1-.54.4,3.35,3.35,0,0,0,.54-.41Z"/><path class="cls-3" d="M38.08,37.28s-.64,0-.7-.13c-.15-.36.22-1,.4-1.4l-.47,0c-.44.45-1.16,1.33-1.84,1.29-.31,0-.41-.39-.38-.65l.21,0c.39,0,.83-.41,1.14-.65a3.28,3.28,0,0,0-1.39.27,1.42,1.42,0,0,1,.52-.61A2.5,2.5,0,0,1,37,35.28c.85-.78,1.67-1.59,2.46-2.42.32,0,.79.1.79.1a6.71,6.71,0,0,0-1.38,1.94C38.51,35.46,37.76,36.59,38.08,37.28ZM38,35.38c.17-.32.34-.64.52-1l-.82.93Z"/><path class="cls-3" d="M38.85,37.13a.24.24,0,0,1,.26-.2.24.24,0,0,1,.2.26.23.23,0,0,1-.26.19A.22.22,0,0,1,38.85,37.13Z"/><path class="cls-3" d="M43,34.33a.93.93,0,0,1-.92.8.44.44,0,0,1-.38-.38c.4,0,1.19-1.12.67-1.21s-1.1.88-1.18,1.4.7.87.63,1.37a1.68,1.68,0,0,1-1.7,1.23.86.86,0,0,1-.72-1.11,1.3,1.3,0,0,0,.75.39c.42,0,1.15-.38,1.13-.69s-.92-.67-.83-1.34a1.84,1.84,0,0,1,1.92-1.57C42.83,33.28,43,33.89,43,34.33Z"/></g></g></svg>