<?xml version="1.0" encoding="utf-8"?>
<!-- Generator: Adobe Illustrator 26.0.1, SVG Export Plug-In . SVG Version: 6.00 Build 0)  -->
<svg version="1.1" id="Capa_1" xmlns="http://www.w3.org/2000/svg" xmlns:xlink="http://www.w3.org/1999/xlink" x="0px" y="0px"
	 viewBox="0 0 2000 800" style="enable-background:new 0 0 2000 800;" xml:space="preserve">
<style type="text/css">
	.st0{fill:none;}
	.st1{opacity:0.13;}
	.st2{fill:#FFFFFF;}
</style>
<rect class="st0" width="2000" height="800"/>
<g class="st1">
	<path class="st2" d="M1813.2-76.5l-48,27.1c-8.9,5-18.2,9.5-27.6,13.5c-226.6-84.4-494.7-126.5-772.3-102.8
		C554.9-103.3,207.4,99.3,230.8,337.5C247.1,486.1,424.3,623,683.2,663.8c226.2,36.8,513.1-22.4,557.4-165.8
		c21-64.5-51.3-142.1-174.9-142.1c-56,0-86.3,28.9-105,55.3c-21,28.9-88.6,34.2-137.6,22.4c-51.3-11.8-88.6-36.8-107.3-67.1
		c-44.3-75,23.3-152.6,137.6-198.7c207.6-81.6,468.8-52.6,646,36.8c251.9,127.6,279.9,338.1,102.6,498.6
		c-118.9,107.9-296.2,177.6-503.7,214.5c-310.2,53.9-629.7,6.6-897.6-84.5l-47,26.5L-68.5,985.1l26.2,14.8l222.2-125.4L227,848
		c6.1-1.4,15.5,0,22.5,2.6c405.8,146,951.5,127.6,1273.3-80.3c184.2-117.1,251.8-281.5,153.9-427.6
		c-81.6-121-277.5-213.1-508.4-226.3c-221.5-13.2-466.4,67.1-482.7,198.7c-4.7,48.7,30.3,98.7,107.3,125c56,18.4,125.9,21,177.2-2.6
		c37.3-18.4,37.3-52.6,88.6-61.8c39.7-5.3,79.3,2.6,107.3,18.4c51.3,29,67.6,68.4,56,107.9c-21,75-130.6,128.9-251.9,152.6
		c-151.6,29-312.5,13.2-450.1-38.2c-128.3-48.7-212.2-115.8-254.2-197.4C170.1,233.5,331,41.5,622.5-62.5
		c361.5-127.6,816.2-94.7,1141.4,41.2c9.5-3.9,18.7-8.4,27.6-13.4l48-27L1813.2-76.5z"/>
	<path class="st2" d="M1796-167.6l-139.4,78.6c-8,2.8-17.1,5.3-57.1-4.2c-275-75.9-606.2-85.1-888.3-12.8
		C443-36.2,242.4,105.9,207.4,274.3C163.1,488.8,471,705.9,862.8,694c216.9-7.9,440.8-102.6,433.8-232.9
		c-2.3-52.6-44.3-100-125.9-131.6c-107.3-40.8-219.2-14.5-314.8,23.7c-18.7,7.9-44.3,1.3-56-9.2c-56-44.7-14-97.4,42-132.9
		c128.2-78.9,338.2-84.2,501.4-42.1c181.9,47.4,305.5,146,335.8,259.2c44.3,167.1-102.6,325-354.5,417.1
		c-373.1,138.1-848.9,100-1171.8-52.7c-21.9-9.4-30.5-10.5-38.5-11.5L-85.8,894l43.5,24.5l139.4-78.6l39.4-22.2
		c10.3-4,19.6-11.8,26.6-7.9c363.8,150,834.9,178.9,1208,25C1644,723,1774.6,526.9,1658,350.6C1574,223,1352.5,127,1107.6,132.2
		c-125.9,3.9-249.5,34.2-326.5,97.4c-67.6,55.3-72.3,147.4,51.3,173.7c42,7.9,74.6-13.1,95.6-32.9c46.6-43.4,149.3-51.3,226.2-25
		c116.6,39.5,142.3,125,95.6,190.8c-116.6,159.2-485.1,188.1-734.6,97.4C165.5,504.6,125.8,240.1,366,57.2
		c307.8-234.2,874.5-271,1301.3-123.7c9.3,2.6,21,4,31.5,1.4c13.7-6.4,25.4-13.1,36.4-19.2l104.2-58.8L1796-167.6z"/>
	<path class="st2" d="M2069-68.9L1929.6,9.8c-12.4,7-25.6,14.4-39.4,22.2c-6,4.2-20,9.5-22.3,8.2
		c-342.8-172.4-839.5-235.5-1250-82.9C277.4,83.6,146.8,348,412.7,530.9C559.6,633.5,825.4,682.2,1026,598c49-21,98-55.3,72.3-90.8
		c-9.3-13.2-37.3-11.9-58.3-9.2c-105,15.8-219.2,14.5-305.5-27.6c-118.9-56.6-137.6-151.3-74.6-227.6c84-100,277.5-152.6,466.4-150
		c247.2,3.9,473.4,97.3,569,227.6c109.6,147.4,56,314.4-123.6,440.7C1282.5,965,771.8,1004.5,372.6,903.5c-10.6-0.6-17,0.2-26.8-0.3
		l-158.6,89.5l19.6,11.1c0,0,60-33.9,158.6-89.5c14.6-1,27-2.9,70.3,4.9c375.7,81.4,830.4,39.3,1110.3-137
		c226.2-142.1,291.5-351.3,102.6-519.7c-72.3-63.2-163.2-109.2-279.8-140.8c-237.9-65.8-555-35.5-699.6,100
		c-88.6,84.2-74.6,196,65.3,259.2c86.3,40.7,195.9,39.4,298.5,38.1c28,0,39.7,19.7,30.3,32.9c-30.3,42.1-105,64.5-181.9,75
		c-93.3,11.8-181.9,4-265.9-15.8c-181.9-44.7-303.2-144.7-328.8-255.2c-25.7-105.2,28-207.9,144.6-293.4
		c352.1-260.5,1054.1-238.1,1425-17.7c16.4,7.5,24.4,8.8,32.3,10.2l200-112.8L2069-68.9z"/>
	<path class="st2" d="M2028.3-588l-707.8,399.4c-12.3,2.1-20.1,4.8-30.1,7.2c-290-21.8-590.9,15-826.4,124.2
		C286.7,25.7,172.5,137.5,142.1,265.1c-39.7,169.7,95.6,339.4,361.5,427.6c205.2,68.4,454.8,73.7,664.7,7.9
		c200.6-61.8,284.5-184.2,310.2-306.5c2.3-18.4,37.3,1.3,49,10.5c51.3,50,56,105.2,39.7,161.8c-42,128.9-207.6,231.6-412.8,281.6
		c200.6-38.2,354.5-135.5,412.8-250c49-94.7,39.7-225-130.6-276.3c-11.7-4-18.7,9.2-14,15.8c72.3,169.7-91,344.7-394.1,389.4
		c-177.2,26.3-356.8,14.5-515.4-36.8c-279.9-89.5-415.1-271-356.8-450c98-310.5,676.3-471,1182.8-415.2c14.4-5.5,27.1-11.4,40.5-17
		l675.3-381L2028.3-588z"/>
	<path class="st2" d="M2145-70.4L1922.8,55c-8.7,3.3-17,7.1-26.8,9.8C1625.3-84.8,1226.6-167.7,848.8-98
		c-303.2,55.3-548,206.6-562,388.1C275.1,428.3,415,573,662.2,615.1c121.3,19.7,268.2,18.4,352.1-43.4c14-10.5,14-31.6-11.7-32.9
		c-179.6-6.6-370.8-60.5-394.1-172.4c-18.7-82.9,42-160.5,153.9-213.1c188.9-89.5,454.7-88.2,662.3-18.4
		c179.6,60.5,291.5,157.9,326.5,273.7c77,246-233.2,467.1-643.7,530.2c-235.5,36.8-480.4,26.3-701.4-25
		c-13.3,5.5-26.2,11.7-38.8,18.7l-104.2,58.8l61.9,34.9l139.4-78.6c8-3,16.8-6,46.7-3.8c358.5,58.1,766.7,13.4,1032.5-144.5
		c137.6-81.6,219.2-184.2,233.2-294.7c18.7-144.7-93.3-286.8-317.2-371C1231.2,48,937.4,48,732.2,148
		c-118.9,59.2-181.9,144.7-156.2,234.2c23.3,81.6,128.3,132.9,235.5,182.9c9.3,5.3,9.3,13.2,2.3,15.8
		c-151.6,43.4-317.2-23.7-405.8-96c-121.3-100-125.9-221-46.6-326.3C478,4.6,748.5-94.1,1042.3-111.2
		c333.5-19.7,655.3,67.1,871.7,204.4c23.4,10.2,34.9,9.2,47.6,9.7l245.3-138.4L2145-70.4z"/>
	<path class="st2" d="M1899.3-832.2L791.2-207.1c-9.7,3.7-16.5,7-25.3,10.5C538.6-151.9,340.4-76.9,198.1,42.8
		c-223.9,186.8-207.6,411.8-7,598.6c7,6.6,16.3,14.5,14,22.4c-93.3-14.5-149.3-76.3-200.6-121c111.9,135.5,333.5,277.6,620.3,267
		v-5.3c-170.2-59.2-326.5-115.8-431.4-214.4C16.2,426.9,23.2,230.9,195.8,67.8C354.4-84.8,620.2-166.4,916.4-211.1
		c14-2.6,23.3-11.8,36.8-17.4l33.6-18.9l974.5-549.8L1899.3-832.2z"/>
	<path class="st2" d="M2390.7,68.2L2071,248.5c-9.1,3.8-18.1,7.9-27.6,11.4c-128.9-151.4-350.4-279-651.3-323.7
		c-228.5-34.2-461.8-23.7-667,51.3C596.9,33.6,480.3,100.7,468.6,188.8c0,6.6,14,13.2,23.3,7.9C690.2,69.1,984-4.6,1280.2,46.7
		c256.5,43.4,452.4,157.9,522.4,303.9c79.3,165.8-11.7,336.8-216.9,460.5C1371.1,940,1063.3,996.6,759.8,991.9
		c-10.4,4.2-19.4,8.4-28.8,12.5l-222.2,125.4l102.6,57.9l294-165.9c9.2-4.8,18.3-9.6,27.9-14.5c472.8-33.1,913.5-244.9,932.2-526.4
		C1884.2,220.4,1487.8-4.6,1033-11.2c-16.3-1.3-32.7-2.6-46.6-7.9c240.2-77.6,557.4-9.2,762.6,86.8
		c158.6,75,251.9,173.7,312.7,279.8c11.8,12.5,21.4,8.3,30.8,4.7l400.8-226.1L2390.7,68.2z"/>
	<path class="st2" d="M2535.4,149.9l-458.3,258.5c-4.5-0.3-9.2-3-14.2-11.8c-50.5-138-171.8-264.3-393.4-348.5
		c-88.7-32.9-172.6-55.3-275.2-65.8c-32.7-2.6-65.3-7.9-95.6,0v5.3c431.4,106.6,699.6,384.2,531.7,643.4
		c-128.3,196-447.8,335.5-803.8,370.2l-27.1,15.3l-346,195.2l25,14.1l346-195.2l27.1-15.3c9.3-5.3,21-13.2,32.6-14.5
		c473.4-61.8,837.2-301.3,804.6-574.9c-18.7-164.5-198.3-298.6-408.2-403.9c139.9,0,258.9,63.2,352.2,121
		c132.9,81.6,195.9,180.3,233.2,290.8c0,0,0,5.3,6.4,5.7l29.6-16.7L2560.4,164L2535.4,149.9z"/>
	<path class="st2" d="M1850.8-255.3L1628.6-130l-47,26.5c-308.3-84-676.8-80.1-980,23.8C300.7,23,130.5,216.4,212.1,412.5
		c60.6,147.4,261.2,261.8,527.1,286.8c184.2,17.1,373.1-14.5,494.4-97.4c88.6-61.8,118.9-144.7,60.6-218.4
		c-65.3-85.5-240.2-115.8-394.1-90.8c-18.7,2.6-39.7-2.6-49-13.2c-7-10.5-2.3-22.4,7-32.9c102.6-113.2,375.5-109.2,550.4-43.4
		c256.6,94.7,321.9,278.9,212.2,428.9c-67.6,92.1-181.9,165.8-335.8,218.4C883.8,987.4,387,919,73.2,747.5l-30.6,17.3L-31,806.3
		l12.6,7.1l73.7-41.5l30.6-17.2c235.9,125,560.1,194.7,893.5,161.8c300.8-30.3,557.4-140.8,657.7-302.6
		c70-114.5,46.6-239.5-86.3-339.4c-116.6-86.8-298.5-136.8-489.7-115.8c-56,6.6-102.6,17.1-146.9,36.8c-56,25-114.3,65.8-74.6,105.2
		c7,7.9,30.3,9.2,44.3,5.3c174.9-43.4,389.5,7.9,426.8,119.7c39.6,122.4-116.6,228.9-314.8,261.8c-202.9,34.2-415.1,2.6-571.4-76.3
		c-167.9-84.2-242.5-206.6-226.2-328.9c25.6-171,228.5-319.7,503.7-390.8c270.5-69.7,580.7-65.8,851-2.5c42.5,7.6,52.7,3.9,65.2,1.2
		l245.3-138.4L1850.8-255.3z"/>
	<path class="st2" d="M1668.7-304.2l-257.2,145.1c-21.2-1.4-43.9-3.2-79.2-7.1C1033-199.3,715.8-161.2,471-48
		C186.4,83.6,72.2,308.5,221.4,498s569,293.4,907.2,196c282.2-81.6,356.8-290.8,156.2-431.5c-11.7-9.2-4.7-23.7,18.7-22.4
		c135.3,7.9,226.2,76.3,272.9,142.1c70,97.4,46.6,205.2-46.6,297.3C1333.8,871.6,914.1,944,547.9,884.8
		C314.7,846.6,132.8,765.1-16.4,657.2c-4.7-2.6-11.7-2.6-17.8-0.6l-39.4,22.2l-139.4,78.6l59.4,33.6L5,701.5
		c13.6,2.9,26,4.3,57.3,22C359,911.1,874.4,976.9,1275.5,840.1c249.5-84.2,405.8-239.5,359.1-403.9
		c-23.3-82.9-93.3-153.9-219.2-203.9c-100.3-38.2-226.2-60.5-335.8-28.9c-16.3,5.3-32.7,21.1-11.7,26.3
		c207.6,52.6,363.8,178.9,270.5,307.9c-53.6,77.6-167.9,136.8-305.5,163.1c-179.6,35.5-370.8,19.7-534-38.2
		C191.1,554.6,97.8,330.9,228.4,150.6C417.3-109.8,977-228.3,1434.6-145.1c27.3,4,42.1,4.7,60,6.3l233.6-131.8L1668.7-304.2z"/>
	<path class="st2" d="M1578.6-355l-294,165.9c-8.2,1.8-16.8,3.6-39.6,3.5c-221.3-9.6-442.8,10.1-643.4,71.9
		C221.4,3.3,18.5,270.4,193.4,498C282.1,613.8,457,701.9,673.9,738.8C1033,798,1417.8,669,1485.4,457.2c2.3-7.9,11.7-19.7,18.7-17.1
		c72.3,18.4,56,78.9,49,118.4c-14,82.9-93.3,155.2-200.6,211.8c-123.6,64.5-272.9,100-436.1,113.2C512.9,915,130.5,787.4-65.4,588.8
		c-2.3-1.3-7-5.3-14.9-6.1c-15.7,7.4-30.3,15.3-44.1,23l-178.8,100.9l1.8,1l178.8-100.9c13.8-7.8,28.5-15.6,44.2-23
		c13,1.1,17.7,7.7,22.3,12.9c212.2,214.5,653,340.8,1079.8,275c137.6-21,258.9-59.2,359.1-117.1c100.3-59.2,167.9-132.9,177.2-213.1
		c2.3-35.5,2.3-75-39.6-105.3c-11.7-7.9-25.7-1.3-28,5.3c-44.3,88.1-102.6,171-233.2,230.2C974.7,803.2,559.6,765,321.7,613.7
		C46.5,437.5,76.8,169.1,352-0.6c228.5-140.8,564.4-205.2,890.6-184.6c26.7,0.7,35.4-1.1,43.7-2.9l294-165.9L1578.6-355z"/>
	<path class="st2" d="M1464.2-473.4L1006-214.9c-10.2,2.9-17.7,5.7-27.8,8.5c-372,26.7-717.1,162.3-845.4,366.2
		c-51.3,80.3-63,163.1-42,248.7c58.3,234.2,431.4,382.9,820.9,409.2c-63,35.5-172.6,25-256.5,22.4c-135.3-5.3-256.5-34.2-373.1-77.6
		C65.2,682.2-44.4,561.1-126,430.9c-2.3-1.3-16.3,1.3-22.3,5.4l-47,26.5l-222.3,125.4l1.8,1l222.2-125.4l47-26.5
		c6.5-3.8,20.5-7.8,22.8-3.8c88.6,157.9,258.9,300,529.4,368.4c160.9,39.5,352.1,67.1,513.1,19.7c14-5.3-14-10.5-25.7-10.5
		C496.6,792.7,139.8,625.6,86.2,395.4C13.9,91.4,464-176.9,979.3-205.3c10.1-2.9,17.9-5.7,28.4-8.5L1466-472.4L1464.2-473.4z"/>
	<path class="st2" d="M2190.4-9.9l-222.2,125.3c-8.6,3-18.7,4.8-49.2-13.5C1604.4-125.6,965.4-195.4,561.9,7.2
		C417.3,79.6,326.4,178.2,317,284.9c-4.7,68.4,21,134.2,93.3,193.4c77,61.8,193.6,115.8,333.5,102.6c21-2.6,25.7-17.1,11.7-23.7
		C564.2,469,489.6,323,638.9,202C795.1,74.3,1079.6,41.5,1322.2,91.4c380.1,77.6,555,338.1,408.1,548.6
		C1546.1,904.5,991,1025.6,519.9,946.6c-11.7-1.3-23.3,0-32.5,4.2L448,973.1l-139.4,78.6l2.4,1.3l139.4-78.6l39.4-22.2
		c6.8-1.6,11.5-4.2,18.5-4.2c473.4,75,1023.8-36.8,1217.3-301.3c149.3-203.9-4.7-463.1-377.8-551.3c-284.5-67.1-667-2.6-767.3,173.7
		c-58.3,101.3,16.3,206.6,153.9,276.3c11.7,6.6,32.7,19.7,14,26.3c-65.3,26.3-144.6,0-207.5-22.4C438.3,513.8,373,457.2,340.4,392.7
		c-70-139.5,25.6-284.2,212.2-380.2C956-196.7,1609-126.9,1923.7,105.3c28.4,16.5,38.3,14.6,46.9,11.5L2192.8-8.5L2190.4-9.9z"/>
	<path class="st2" d="M2190.4,381.3l-104.2,58.8c-11,6.2-22.5,11.9-30.7-17c-29-117.2-122.3-227.7-278.6-310.6
		c-60.6-31.6-123.6-57.9-198.2-72.4c-14-2.6-25.7-11.8-44.3-1.3c326.5,161.8,471.1,432.9,256.5,660.5
		c-146.9,153.9-405.8,256.5-694.3,300.6c-16.8,8.5-32.7,17-47.3,25.2l-740.6,417.8l3.4,1.9l740.7-417.8c14.6-8.2,30.4-16.6,47-25.2
		c355.5-57.8,670.3-202.6,768.3-415.7c93.3-203.9-63-393.4-307.8-540.7c-4.7-3.9,16.3-2.6,25.7,0c128.3,25,221.5,77.6,303.1,140.8
		c97.9,76.3,142.3,159.2,169.7,246.9c8.4,21,20,15.1,31,8.9l104.2-58.8L2190.4,381.3z"/>
	<path class="st2" d="M2040.8-143.8L1818.6-18.4c-9,3.4-17.7,7.1-27.5,10.3c-296.3-125.4-699.8-171.5-1049.6-86
		C396.3-9.9,163.1,208.5,275.1,419C331,524.3,468.6,611.1,655.2,646.7c130.6,23.7,270.5,19.7,391.8-21c70-25,121.3-59.2,146.9-102.6
		c23.3-40.8,14-88.1-51.3-115.8c-23.3-7.9-53.6-14.5-72.3-2.6c-53.6,28.9-102.6,65.7-184.2,64.4c-160.9-3.9-249.5-105.2-207.6-188.1
		c63-126.3,300.8-188.1,520.1-168.4c237.9,21.1,424.4,119.7,496.7,246c109.6,192.1-51.3,398.6-356.8,505.2
		C1002.7,983.4,585.2,967.6,263.2,859l-30.6,17.2L159,917.9l6,3.4l73.7-41.5l30.6-17.3c281,89.4,630.8,114.4,934,42.1
		c328.8-76.3,566.7-267.1,522.4-472.3c-25.6-127.6-165.6-240.8-370.8-294.7c-212.2-56.6-489.7-36.8-629.7,81.6
		c-44.3,38.1-65.3,80.2-58.3,125c11.7,57.9,79.3,114.5,188.9,126.3c84,9.2,153.9-18.4,205.2-55.3c21-14.5,58.3-13.1,84-1.3
		c56,27.6,63,69.7,44.3,107.9c-32.7,67.1-137.6,110.5-251.9,128.9c-184.3,27.6-375.5-9.2-508.4-85.5S237.8,384.8,251.8,280.9
		C275.1,99.3,517.6-49.3,816.1-108.5c338.2-67.1,704.3-13.2,981.1,103.9c9.8-3.2,18.4-7,27.4-10.3l222.2-125.3L2040.8-143.8z"/>
	<path class="st2" d="M2366.5-12L2007,190.8c-13.2-9.9-25.7-18.2-44.2-34C1846.9,55.9,1672-21.7,1471.4-65.1
		c-312.5-65.8-683.3-35.5-923.5,103.9C424.3,111.2,352,207.2,363.7,307.2c4.7,39.5,21,76.3,63,110.5c14,9.2,51.3,30.3,53.6,18.4
		C499,302,564.2,158.6,795.1,92.8c223.9-65.8,487.4-52.6,699.6,31.6c426.8,168.4,401.1,511.8,44.3,699.9
		c-249.5,128.9-590,177.6-911.7,147.2c-14.8,6.7-27.5,13.1-38.5,19.3l-104.2,58.8l33.2,18.7l139.4-78.6c8-3.3,16.4-6.6,26.8-9.8
		c262.7,18.1,526.2-13.5,752.4-104.3C1714,763.8,1858.6,584.8,1804.9,398c-44.3-160.5-247.2-290.8-517.7-339.4
		C928.1-5.9,533.9,119.1,457,333.5c-2.3,6.6-14,19.7-23.3,14.5c-93.3-61.8-37.3-155.2,21-221c77-85.5,212.2-146,366.1-182.9
		c443.1-105.3,965.5,25,1184.7,261.8c4.7,4,9.3,10.5,21.1,11.2l27.1-15.3l346-195.2L2366.5-12z"/>
	<path class="st2" d="M1603.1-442.7l-400.8,226.1c-10.8,5.2-21.3,10.4-32.3,15.8C867.4-198,564.2-144,349.7-12.5
		C79.2,150.6,18.5,396.7,256.4,590.1c282.2,227.6,839.6,232.9,1168.4,46c7-3.9,16.3,0,16.3,6.6c-11.7,51.3-74.6,90.8-139.9,126.3
		c-188.9,97.3-445.4,123.7-697.3,94.7c-333.5-39.4-585.3-175-703.7-345.7l-39.4,22.2l-139.4,78.6l21,11.8l158.5-89.5
		c6.6,5.4,12.2,8.2,20.2,15.4c200.1,247.9,745.8,399.2,1205.2,283.4c184.2-47.4,370.8-140.8,363.8-260.5c0-17.1-35,1.3-46.6,9.2
		c-200.6,164.5-571.4,218.4-879.2,136.8c-216.9-57.9-373.1-164.5-426.8-300c-65.3-163.1,28-323.6,226.2-442
		c200.6-119.7,482.7-180.2,768.1-177.9c38.5,0.1,58.2-1.1,77.3-2.4l415-234.1L1603.1-442.7z"/>
	<path class="st2" d="M1454.6-625L714-207.1c-14.6,8.2-30.3,16.7-46.7,25.4C186.4-78.3-70.1,225.6,32.5,504.6
		C-81.7,445.4-72.4,342.7-90,260.7c-3.2-7.9-9.3-8.6-17.5-4.4l-319.6,180.3l21,11.8l269.2-151.9c16.3-9.2,32.7-17.7,37.8,8.9
		C-84,409.8-46.7,530.9,114.2,596.7c0,0,0-7.9-2.3-10.5C-135.4,279.6,177.1-92.7,735-195.3l32.8-18.5l707.8-399.3L1454.6-625z"/>
	<path class="st2" d="M1454.6-698L463.4-138.7c-12.5,5.5-23.1,10.2-39.1,16.8C228.4-49.3,109.5,65.1-2.5,177
		c-16.3-14.5,2.3-30.3-3.8-46.6c-2.3-2.4-11.3,2.5-20.1,7.2l-400.8,226.1l21,11.8l346-195.2c7.9-3.8,16.4-8.3,16-0.4
		c2,35.2-21.3,74.7,11.4,107.6c91-178.9,265.9-351.3,565.2-442.1c11.9-6.6,23.7-13,35.9-19.6l907.3-511.9L1454.6-698z"/>
	<path class="st2" d="M2366.5-44.9l-346,195.2l-27.1,15.3c-11.2-0.4-18.2-7-25.2-10.9c-214.6-186.8-583-285.5-967.8-251.3
		c-172.5,15.8-324.1,56.6-450.1,125c-98,55.3-163.3,118.4-193.6,196c-28,75-16.3,148.7,58.3,214.4c30.3,29,77,71.1,144.6,63.2
		c-16.3-84.2-65.3-168.4-2.3-251.3C643.5,140.1,837.1,67.8,1047,58.6c275.2-11.8,541.1,77.6,667,217.1
		c98,109.2,107.3,234.2,39.7,348.7c-158.6,265.8-690.3,396-1153.3,341.8c-10.3,0.1-16.5,0.9-27.3,0.7l-88.4,49.8l9.5,5.3l88.4-49.8
		c14.9-1,28.2-2.6,52.6-2.2c521.5,58.2,1116.2-141.8,1162.8-456.2c18.7-125-56-248.7-212.2-340.8C1366.5,45.4,1012,11.2,739.2,117.8
		c-219.2,85.5-251.9,226.3-205.2,361.8c2.3,7.9-18.7,6.6-30.3,4c-30.3-7.9-51.3-22.4-72.3-38.2c-95.6-76.3-100.3-167.1-56-252.6
		C429,95.4,545.6,19.1,701.8-34.8C1158.9-190.1,1716.3-73,1996.2,171.7c2.3,1.3,4.7,0,6.7-0.8l27.1-15.3l346-195.2L2366.5-44.9z"/>
	<path class="st2" d="M2639.3,201.1l-579.7,327c-9.3,3.8-19.3,8.8-21.7-5c-11.5-89.6-23.1-197.5-144.4-262
		c-4.7,5.3-4.7,10.5-2.3,15.8c149.2,294.7-151.6,605.2-645.8,710.5l-29.6,16.7l-458.3,258.6l9.5,5.3l458.3-258.5l29.6-16.7
		c11.3-4.1,16-10.7,27.7-13.3c466.4-109.2,711.3-392.1,648.3-672.3c0-4,25.7,19.7,35,28.9c23.3,23.7,32.7,47.4,44.3,73.7
		c16.3,44.7,18.7,86.8,21,131.6c0,2.6-4.7,9.2,6.4,9.9l31.5-17.8l579.7-327L2639.3,201.1z"/>
</g>
</svg>
