<svg xmlns="http://www.w3.org/2000/svg" viewBox="0 0 268.78 157.61"><defs><style>.cls-1{fill:#feb51a;}.cls-2{fill:#fff;}.cls-3,.cls-4{fill:#1b1b1b;}.cls-4{fill-rule:evenodd;}.cls-5{fill:none;stroke:#fff;stroke-miterlimit:10;stroke-width:0.7px;}</style></defs><g id="Capa_2" data-name="Capa 2"><g id="Capa_1-2" data-name="Capa 1"><rect class="cls-1" x="29.27" y="106.02" width="87.03" height="17.9" rx="8.95"/><path class="cls-1" d="M32.55,3a9.18,9.18,0,0,1,3.74,1.81,4.35,4.35,0,0,1,1.85,3.5,4,4,0,0,1-2.26,3.43,9.63,9.63,0,0,1-4.16,1.44,24,24,0,0,1-6.66-.28,25.6,25.6,0,0,1-7-2,10.33,10.33,0,0,0-4.28,6.18,13.68,13.68,0,0,1,6.49.88c2.94,1.05,4.21,2.54,3.82,4.49a3,3,0,0,1-1.76,2.19,6.19,6.19,0,0,1-3.37.5,11.62,11.62,0,0,1-7.78-4.08,11.9,11.9,0,0,0-4.66,5.43,7,7,0,0,0,0,5.26,6.69,6.69,0,0,0,3.33,3.63,7.26,7.26,0,0,0,5.33.52,18.33,18.33,0,0,0,10.46-6.8c.51-.67.91-1,1.18-1s.16.47-.39,1.31a24,24,0,0,1-6.43,7,14.8,14.8,0,0,1-9.79,2.88,8.16,8.16,0,0,1-6.3-3.61A10,10,0,0,1,2,28.37q.9-8.11,8.48-10.72a20.21,20.21,0,0,1,2.3-5.82A15.2,15.2,0,0,1,15.4,8.39a19.31,19.31,0,0,1-5.24-7.06A1.56,1.56,0,0,1,10,.1c.16-.27.5,0,1,.84a14.82,14.82,0,0,0,6.25,6A17.9,17.9,0,0,1,24.84,3,16.21,16.21,0,0,1,32.55,3Zm-10,19.66a1.46,1.46,0,0,0-.26-2,5.33,5.33,0,0,0-2.6-1.29,9.93,9.93,0,0,0-3.39-.32,4.44,4.44,0,0,0-2.71.9q.75,2.34,4.34,3.37a7.54,7.54,0,0,0,2.79.3,2.36,2.36,0,0,0,1.87-.94Zm12.56-13c1.09-.4,1.61-.89,1.55-1.46S35.79,7,34.23,6.5a15.72,15.72,0,0,0-7-.5,12.44,12.44,0,0,0-6.74,2.79A30.07,30.07,0,0,0,28,10.28a18,18,0,0,0,7.15-.6Z"/><path class="cls-1" d="M44.37,5a6.35,6.35,0,0,1,3-.54,2,2,0,0,1,1.69,1.08c.67,1.44-.33,3.48-3,6.14q-11,11.06-13.34,13-5,9.21-3.29,10.23c.26.16.93-.22,2-1.14a18.88,18.88,0,0,0,2-2c.25-.3.47-.33.66-.08s.22.45.07.64a15.29,15.29,0,0,1-2.3,2.32c-1.32,1.09-2.34,1.56-3.07,1.42q-3.9-.78-1.1-7.2-.27.22-2,2.13a17.14,17.14,0,0,1-2.93,2.71c-.2.14-.28.08-.25-.18a1.38,1.38,0,0,1,.36-.77c.24-.26,2.32-3,6.21-8.1Q37.86,7.54,44.37,5ZM47,7.9a2.4,2.4,0,0,0,.6-1,.47.47,0,0,0-.17-.56q-.63-.4-1.83.78A121.9,121.9,0,0,0,33.76,21.69Q37.6,18.21,47,7.9Z"/><path class="cls-1" d="M59.64,21.3c1.34.66,2,2,1.89,4A13.11,13.11,0,0,1,60,30.69a10.67,10.67,0,0,1-4.23,4.62c-1.78,1-3.29,1.22-4.53.56a3.68,3.68,0,0,1-1.31-1.23q-1.05,2.09-1.5,2.79c-.38.6-1.09,1.84-2.15,3.72-.9,1.6-1.64,2.83-2.21,3.67q-2.61,4-5,4.32a3,3,0,0,1-1.82-.24,2.51,2.51,0,0,1-1.16-1.18c-.56-1.2-.32-2.6.7-4.19.74-1.14,2.75-3.69,6.06-7.64q4.74-5.67,4.77-5.8a12.85,12.85,0,0,0-1.74,1.72c-.76.85-1.23,1.38-1.42,1.56s-.38.14-.6-.1a.48.48,0,0,1,0-.67l0,0q2.4-2.37,6.19-6.94a5,5,0,0,0,1-1.81,2.76,2.76,0,0,0,0-2c-.1-.2-.07-.34.08-.43a1,1,0,0,1,.69,0,4.06,4.06,0,0,1,2,.93,6.69,6.69,0,0,1,3-1.31A4.62,4.62,0,0,1,59.64,21.3ZM39.17,46.82Q40.79,45,46.8,35q-.18.18-8.1,9.58C37.5,46,37,47,37.3,47.61c.1.23.32.28.67.15A3,3,0,0,0,39.17,46.82Zm18-17.4a22.69,22.69,0,0,0,2-3.89c.73-1.84.79-3,.19-3.35s-1.45.07-2.66,1.33a24.87,24.87,0,0,0-3.14,4.15,20.34,20.34,0,0,0-1.76,3.89c-.67,1.95-.74,3.05-.19,3.31q1.06.51,2.94-1.68A38.87,38.87,0,0,0,57.17,29.42Zm0,0,.13-.06Z"/><path class="cls-1" d="M79.12,5a6.35,6.35,0,0,1,3-.54,2,2,0,0,1,1.7,1.08c.67,1.44-.33,3.48-3,6.14q-11,11.06-13.34,13-5,9.21-3.28,10.23c.25.16.91-.22,2-1.14a17.17,17.17,0,0,0,2-2c.26-.3.48-.33.67-.08s.22.45.06.64a14.84,14.84,0,0,1-2.3,2.32c-1.31,1.09-2.34,1.56-3.07,1.42q-3.87-.78-1.1-7.2c-.18.15-.84.86-2,2.13a16.31,16.31,0,0,1-2.92,2.71c-.2.14-.29.08-.26-.18a1.39,1.39,0,0,1,.37-.77q.36-.39,6.2-8.1Q72.63,7.54,79.12,5Zm2.62,2.9a2.6,2.6,0,0,0,.61-1c.05-.27,0-.46-.18-.56-.43-.27-1,0-1.82.78A121.92,121.92,0,0,0,68.51,21.69Q72.35,18.21,81.74,7.9Z"/><path class="cls-1" d="M83.05,31.91c.25-.3.47-.33.67-.08a.54.54,0,0,1,.13.32.41.41,0,0,1-.07.32,13.6,13.6,0,0,1-2.27,2.28c-1.32,1.07-2.35,1.55-3.1,1.44a1.63,1.63,0,0,1-1.24-.88,2.15,2.15,0,0,1-.24-1.64,9.57,9.57,0,0,1-2.85,2.07,4.49,4.49,0,0,1-3.59.25c-1.45-.55-2.13-2-2-4.27a11.44,11.44,0,0,1,1.22-4.94,11.92,11.92,0,0,1,4.38-5.05,5.41,5.41,0,0,1,5.31-.3A2.86,2.86,0,0,1,81,23.6a8,8,0,0,1,0,2.49,8.22,8.22,0,0,1,1,.45c.66.33,1,.6.86.8A11.39,11.39,0,0,1,82,28.8c-.71,1.1-1.23,1.92-1.54,2.45q-2,3.33-1.38,3.8c.26.16.93-.22,2-1.14A15.5,15.5,0,0,0,83.05,31.91ZM76.8,29.38a21.78,21.78,0,0,0,1.87-3.78c.73-1.89.84-3,.32-3.29-.81-.47-1.86,0-3.13,1.44a32.47,32.47,0,0,0-2.69,3.76,24.28,24.28,0,0,0-2.08,4.06c-.79,2-.89,3.16-.3,3.56s1.5-.11,2.77-1.46A27,27,0,0,0,76.8,29.38Zm0,0h0Z"/><path class="cls-1" d="M83.14,33.2l.15-.06Zm7.22,1q-2.48,1.34-3.72.75c-.83-.38-1-1.59-.58-3.61a12.84,12.84,0,0,1,1.55-4.12,21.79,21.79,0,0,1,2.66-3.46c1.28-1.29,2.33-1.82,3.16-1.59a1.07,1.07,0,0,1,.64.9,3,3,0,0,1-.17,1.64c-.3.81-.36,1.34-.19,1.57s.18.11.32,0a1.64,1.64,0,0,0,.41-.5,4.12,4.12,0,0,0,.49-2.17,2.47,2.47,0,0,0-1.29-2.36,5,5,0,0,0-4.76.26,10.24,10.24,0,0,0-4.54,4.68,11.26,11.26,0,0,0-1.09,4.88c0,2.28.62,3.77,2,4.47a5.54,5.54,0,0,0,5-.15,12.85,12.85,0,0,0,4.66-3.87.67.67,0,0,0,.2-.47.28.28,0,0,0-.15-.28.52.52,0,0,0-.37-.05.73.73,0,0,0-.39.26,12.59,12.59,0,0,1-3.84,3.23Z"/><path class="cls-1" d="M105.16,31.08a.66.66,0,0,1,.36-.26.47.47,0,0,1,.37,0,.28.28,0,0,1,.17.28.84.84,0,0,1-.19.47,13,13,0,0,1-4.62,3.83,5.57,5.57,0,0,1-5,.15q-2-1-2-4.43a10.76,10.76,0,0,1,1.11-4.83A10.08,10.08,0,0,1,100,21.65a6.35,6.35,0,0,1,2.51-.71,3.21,3.21,0,0,1,2.07.51,1.9,1.9,0,0,1,.64,2.36A6.35,6.35,0,0,1,103,27c-1.66,1.41-3.65,2.92-6,4.56a7.42,7.42,0,0,0-.26,2.1A1.53,1.53,0,0,0,97.64,35q1.24.59,3.69-.75A12,12,0,0,0,105.16,31.08ZM104,22.35c-.35-.34-.89-.33-1.63,0a8.38,8.38,0,0,0-2.24,1.78A11,11,0,0,0,97,30.22a46.12,46.12,0,0,0,5.37-4.49C104,24,104.56,22.91,104,22.35Z"/><path class="cls-1" d="M118.17,31.85c.28-.32.51-.35.71-.11a.53.53,0,0,1,.07.67,15.68,15.68,0,0,1-2.37,2.38c-1.36,1.13-2.42,1.63-3.17,1.48A2.7,2.7,0,0,1,111,33.33a1.49,1.49,0,0,1,0-.21,17.59,17.59,0,0,1,1.27-4.28c.07-.17.38-.87.92-2.1a2.4,2.4,0,0,1-1.31.34,3.91,3.91,0,0,1-1.22-.17,51.09,51.09,0,0,1-5.44,5.67c-.37.33-.67.43-.9.32s-.12-.12-.11-.24a1,1,0,0,1,.22-.4,29.79,29.79,0,0,0,4.72-6.34,7.07,7.07,0,0,1-1-3.78,7.54,7.54,0,0,1,.9-3.48,5,5,0,0,1,2.06-2.23,2.59,2.59,0,0,1,2.58-.09A2.28,2.28,0,0,1,115,17.78,4.18,4.18,0,0,1,115,20a11.16,11.16,0,0,1-3.2,5.2c.72.2,1.51-.26,2.39-1.37A27.28,27.28,0,0,0,115.9,21c.1-.19.33-.23.68-.13a2.06,2.06,0,0,1,1,.6,2.48,2.48,0,0,1,.43,3.1q-.09.21-1.11,2.1c-.72,1.3-1.29,2.39-1.7,3.27-1.4,2.93-1.78,4.65-1.12,5.15.25.19.92-.2,2-1.16A16.43,16.43,0,0,0,118.17,31.85ZM113.38,17c-.24-.15-.58.06-1,.65a10,10,0,0,0-1.2,2.17q-1.44,3.3-.9,4.59a27.15,27.15,0,0,0,2.47-4.06C113.71,18.41,113.93,17.29,113.38,17Z"/><path class="cls-1" d="M149.43,8.59a8.43,8.43,0,0,1,3.71-3.23,3.73,3.73,0,0,1,3.38,0,2.74,2.74,0,0,1,1.22,3A12.37,12.37,0,0,1,154.88,14q-1.89,2.48-6,7.24t-6.58,7.88c-2,3.58-2.74,5.57-2.17,5.95.25.16.9-.22,2-1.14a18.88,18.88,0,0,0,2-2c.25-.32.48-.35.68-.11a.53.53,0,0,1,.07.67,15.43,15.43,0,0,1-2.3,2.27c-1.32,1.08-2.35,1.56-3.09,1.46a1.74,1.74,0,0,1-1.27-.88,2.17,2.17,0,0,1-.21-1.65,9.89,9.89,0,0,1-2.86,2.06,4.45,4.45,0,0,1-3.59.26c-1.46-.56-2.15-2-2.06-4.28a12.56,12.56,0,0,1,5.61-10,5.43,5.43,0,0,1,5.32-.3,2.88,2.88,0,0,1,1.16,1A125.58,125.58,0,0,1,149.43,8.59ZM131.77,35.2c.57.37,1.5-.11,2.79-1.46a27.9,27.9,0,0,0,3.25-4.32,22.51,22.51,0,0,0,1.87-3.78c.73-1.89.83-3,.32-3.29-.82-.47-1.87,0-3.14,1.44a33.51,33.51,0,0,0-2.71,3.76,28,28,0,0,0-2.08,4.08Q130.9,34.6,131.77,35.2Zm11.69-10.4c-.08,0-.12,0-.13.05S143.44,24.79,143.46,24.8Zm0,0-.13.05A.24.24,0,0,1,143.46,24.8Zm0,0q9-11.43,10.59-13.83a9.12,9.12,0,0,0,1.24-2.45c.19-.64.17-1.07,0-1.27s-.56-.08-1,.3a10,10,0,0,0-1.79,2.24Q145.76,20.68,143.46,24.8Z"/><path class="cls-1" d="M155.38,31.08a.66.66,0,0,1,.36-.26.47.47,0,0,1,.37,0,.28.28,0,0,1,.17.28.84.84,0,0,1-.19.47,13,13,0,0,1-4.62,3.83,5.57,5.57,0,0,1-5,.15q-2-1-2-4.43a10.76,10.76,0,0,1,1.11-4.83,10.08,10.08,0,0,1,4.62-4.68,6.35,6.35,0,0,1,2.51-.71,3.21,3.21,0,0,1,2.07.51,1.9,1.9,0,0,1,.64,2.36A6.37,6.37,0,0,1,153.21,27c-1.66,1.41-3.65,2.92-6,4.56a7.42,7.42,0,0,0-.26,2.1,1.51,1.51,0,0,0,.86,1.33q1.24.59,3.69-.75A12.25,12.25,0,0,0,155.38,31.08Zm-1.14-8.73c-.35-.34-.89-.33-1.63,0a8.38,8.38,0,0,0-2.24,1.78,11.07,11.07,0,0,0-3.2,6.06,46.12,46.12,0,0,0,5.37-4.49C154.22,24,154.78,22.91,154.24,22.35Z"/><path class="cls-2" d="M3.72,56.19a18.49,18.49,0,0,1,6.49-5.59,18,18,0,0,1,8.36-2,13.22,13.22,0,0,1,8.9,2.9,11.16,11.16,0,0,1,3.85,7.92H23.05A5,5,0,0,0,21,56.54a6.65,6.65,0,0,0-3.72-1,8.52,8.52,0,0,0-6,2.4A11.18,11.18,0,0,0,8,64.35a14.12,14.12,0,0,0-.22,2.16A6.83,6.83,0,0,0,9.5,71.39a6.23,6.23,0,0,0,4.71,1.8,8.3,8.3,0,0,0,4-1,8.77,8.77,0,0,0,3.15-2.9h8.27A17.56,17.56,0,0,1,23,77.17a17.88,17.88,0,0,1-10,2.88,14.87,14.87,0,0,1-6.9-1.53,10.82,10.82,0,0,1-4.53-4.36A13.23,13.23,0,0,1,0,67.61a16.91,16.91,0,0,1,.31-3.26A19.28,19.28,0,0,1,3.72,56.19Z"/><path class="cls-2" d="M40.14,78.52a11.46,11.46,0,0,1-4.6-4.58,14,14,0,0,1-1.62-6.77,19.71,19.71,0,0,1,2.33-9.66,16.73,16.73,0,0,1,6.49-6.62,18.66,18.66,0,0,1,9.43-2.38,14.41,14.41,0,0,1,7,1.61,11.18,11.18,0,0,1,4.61,4.53,13.44,13.44,0,0,1,1.63,6.71A19.93,19.93,0,0,1,63,71.06a16.8,16.8,0,0,1-6.51,6.68,18.75,18.75,0,0,1-9.5,2.4A14.2,14.2,0,0,1,40.14,78.52ZM53.27,71.7a9.86,9.86,0,0,0,3.41-4,12.34,12.34,0,0,0,1.21-5.47,6.76,6.76,0,0,0-1.76-5,6.53,6.53,0,0,0-4.92-1.8,8.92,8.92,0,0,0-5.13,1.5,10,10,0,0,0-3.43,4,12.31,12.31,0,0,0-1.21,5.47,7,7,0,0,0,1.76,5,6.63,6.63,0,0,0,5,1.82A8.86,8.86,0,0,0,53.27,71.7Z"/><path class="cls-2" d="M107.34,49l-5.46,30.88H94.36l3.3-18.52L87.45,79.83H81.38l-3.69-18.6-3.26,18.6H66.91L72.37,49h8.88l4.93,21.38L98.5,49Z"/><path class="cls-2" d="M119.22,54.89l-1.1,6.42h10.07l-1,5.68H117.1l-1.23,6.91h11.4l-1.06,5.93H107.29L112.75,49h18.92l-1.06,5.94Z"/><path class="cls-2" d="M156.47,51.13A7.07,7.07,0,0,1,159,56.78a9.29,9.29,0,0,1-.17,1.89,10.84,10.84,0,0,1-2.69,5.5,11.7,11.7,0,0,1-5.76,3.44l5,12.22h-8.49l-4.35-11.65h-1.81l-2.07,11.65h-7.52L136.55,49h12.62C152.39,49,154.83,49.71,156.47,51.13Zm-5.27,6.93a2.7,2.7,0,0,0-.91-2.18,4,4,0,0,0-2.66-.77H143l-1.36,7.74h4.66a4.94,4.94,0,0,0,3.28-1A4.76,4.76,0,0,0,151.11,59C151.17,58.51,151.2,58.21,151.2,58.06Z"/><path class="cls-2" d="M195.67,61.49A9.44,9.44,0,0,1,191.45,64a5.73,5.73,0,0,1,3.47,2.15,6.21,6.21,0,0,1,1.28,3.92,7,7,0,0,1-.13,1.36,9.2,9.2,0,0,1-3.79,6.14,13.22,13.22,0,0,1-8,2.26H169.94L175.39,49h13.9a10.5,10.5,0,0,1,6.47,1.72,5.58,5.58,0,0,1,2.29,4.75,8.89,8.89,0,0,1-.13,1.54A8.44,8.44,0,0,1,195.67,61.49Zm-7,8.14a2.36,2.36,0,0,0-.93-2,3.93,3.93,0,0,0-2.55-.73h-5.45l-1.24,6.95h5.55a4.9,4.9,0,0,0,3.08-.88,4,4,0,0,0,1.45-2.55,4.27,4.27,0,0,0,.1-.79Zm0-9a3.62,3.62,0,0,0,1.38-2.4,4.09,4.09,0,0,0,0-.7,2.39,2.39,0,0,0-.83-2,3.87,3.87,0,0,0-2.47-.68h-4.92l-1.15,6.6h4.89a5.08,5.08,0,0,0,3.11-.79Z"/><path class="cls-2" d="M211.9,49l-5.45,30.88h-7.52L204.38,49Z"/><path class="cls-2" d="M223.82,54.89l-1.1,6.42H232.8l-1,5.68H221.71l-1.23,6.91h11.4l-1.06,5.93H211.9L217.36,49h18.91l-1.05,5.94Z"/><path class="cls-2" d="M263.33,79.83h-7.52l-9.2-19-3.39,19H235.7L241.16,49h7.52l9.19,19.14L261.26,49h7.52Z"/><circle class="cls-1" cx="15.72" cy="114.97" r="8.95"/><path class="cls-3" d="M38.08,111.49a3,3,0,0,1,1.89-.58,3,3,0,0,1,1.37.28,2,2,0,0,1,1.17,1.87,1.89,1.89,0,0,1-.38,1.2,1.78,1.78,0,0,1-.89.66h0a1.87,1.87,0,0,1,1,.74,2.62,2.62,0,0,1,.07,2.56,2,2,0,0,1-.91.82,3,3,0,0,1-1.44.3,3.1,3.1,0,0,1-2-.63,2.32,2.32,0,0,1-.85-1.8h1.25a1.43,1.43,0,0,0,.46,1,1.62,1.62,0,0,0,1.13.38,1.4,1.4,0,0,0,1.07-.38,1.53,1.53,0,0,0-.13-2.13,3,3,0,0,0-1.55-.33h-.26v-1.06h.3a2.62,2.62,0,0,0,1.4-.31,1,1,0,0,0,.48-.93,1.1,1.1,0,0,0-.35-.86,1.43,1.43,0,0,0-1-.33,1.46,1.46,0,0,0-1,.33,1.42,1.42,0,0,0-.42.79H37.28A2.18,2.18,0,0,1,38.08,111.49Z"/><path class="cls-3" d="M43.85,112.26v-1.18H46.2v8.25H44.9v-7.07Z"/><path class="cls-3" d="M52,112.26a1.68,1.68,0,0,0-2.25.42,4.7,4.7,0,0,0-.46,2.27,2.13,2.13,0,0,1,.86-.77,2.89,2.89,0,0,1,1.22-.27,2.86,2.86,0,0,1,1.32.32,2.18,2.18,0,0,1,.89.94,3.43,3.43,0,0,1,0,2.87,2.08,2.08,0,0,1-.92,1,3.3,3.3,0,0,1-3.3-.16,2.77,2.77,0,0,1-.93-1.45,9.65,9.65,0,0,1-.26-2.34c0-2.76,1-4.15,2.92-4.15a2.49,2.49,0,0,1,1.78.62,2.39,2.39,0,0,1,.76,1.5H52.42A1.31,1.31,0,0,0,52,112.26Zm-2.08,3.15a1.52,1.52,0,0,0-.49,1.19,1.58,1.58,0,0,0,1.48,1.67h.21a1.4,1.4,0,0,0,1.13-.44,1.63,1.63,0,0,0,.41-1.18,1.72,1.72,0,0,0-.4-1.22A1.48,1.48,0,0,0,51,115a1.84,1.84,0,0,0-1.16.42Z"/><path class="cls-3" d="M63.5,112.26H59.71v2.25a2,2,0,0,1,.71-.53,2.5,2.5,0,0,1,1-.22,2.72,2.72,0,0,1,1.55.41,2.28,2.28,0,0,1,.85,1,3.42,3.42,0,0,1,.26,1.29,3.3,3.3,0,0,1-.32,1.49,2.3,2.3,0,0,1-1,1,3.46,3.46,0,0,1-3.55-.23,2.54,2.54,0,0,1-.9-1.62h1.26a1.47,1.47,0,0,0,.55.84,1.75,1.75,0,0,0,1.08.31,1.43,1.43,0,0,0,1.2-.48,1.92,1.92,0,0,0,.41-1.29,1.74,1.74,0,0,0-.41-1.25,1.78,1.78,0,0,0-2.13-.16,1.52,1.52,0,0,0-.55.75H58.53v-4.76h5Z"/><path class="cls-3" d="M66.13,117.59c.72-.62,1.3-1.14,1.71-1.54a6.7,6.7,0,0,0,1-1.26,2.3,2.3,0,0,0,.42-1.32,1.58,1.58,0,0,0-.32-1.06,1.45,1.45,0,0,0-2,0,1.75,1.75,0,0,0-.39,1.14H65.3a2.78,2.78,0,0,1,.78-2,2.71,2.71,0,0,1,1.88-.68,2.63,2.63,0,0,1,1.93.68,2.37,2.37,0,0,1,.7,1.81,3.2,3.2,0,0,1-.41,1.57,5.93,5.93,0,0,1-1,1.34c-.38.4-.87.86-1.45,1.38l-.51.45H70.8v1.12H65.32v-1Z"/><path class="cls-3" d="M72.73,111.49a3.07,3.07,0,0,1,1.9-.58,3.17,3.17,0,0,1,1.37.28,2,2,0,0,1,.87.77,2.06,2.06,0,0,1,.29,1.1,2,2,0,0,1-.37,1.2,1.71,1.71,0,0,1-.9.66h0a1.87,1.87,0,0,1,1,.74,2.38,2.38,0,0,1,.37,1.37,2.06,2.06,0,0,1-.31,1.19,2,2,0,0,1-.9.82,3,3,0,0,1-1.44.3,3.1,3.1,0,0,1-2-.63,2.34,2.34,0,0,1-.84-1.8h1.31a1.44,1.44,0,0,0,.47,1,1.62,1.62,0,0,0,1.13.38,1.37,1.37,0,0,0,1.06-.38,1.27,1.27,0,0,0,.38-1,1.26,1.26,0,0,0-.51-1.13,2.92,2.92,0,0,0-1.54-.33h-.3v-1.06h.31a2.62,2.62,0,0,0,1.4-.31,1,1,0,0,0,.48-.93,1.1,1.1,0,0,0-.35-.86,1.43,1.43,0,0,0-1-.33,1.46,1.46,0,0,0-1,.33,1.31,1.31,0,0,0-.42.79H71.92A2.25,2.25,0,0,1,72.73,111.49Z"/><path class="cls-3" d="M82.4,111.49a3,3,0,0,1,1.89-.58,3,3,0,0,1,1.37.28,2,2,0,0,1,1.17,1.87,1.89,1.89,0,0,1-.38,1.2,1.78,1.78,0,0,1-.89.66h0a1.87,1.87,0,0,1,1,.74,2.62,2.62,0,0,1,.07,2.56,2,2,0,0,1-.91.82,3,3,0,0,1-1.44.3,3.1,3.1,0,0,1-2-.63,2.32,2.32,0,0,1-.85-1.8h1.25a1.43,1.43,0,0,0,.46,1,1.62,1.62,0,0,0,1.13.38,1.4,1.4,0,0,0,1.07-.38,1.53,1.53,0,0,0-.13-2.13,3,3,0,0,0-1.55-.33h-.29v-1.06h.3a2.62,2.62,0,0,0,1.4-.31,1,1,0,0,0,.48-.93,1.1,1.1,0,0,0-.35-.86,1.65,1.65,0,0,0-2,0,1.42,1.42,0,0,0-.42.79H81.59A2.19,2.19,0,0,1,82.4,111.49Z"/><path class="cls-3" d="M89.08,111.49a3,3,0,0,1,1.89-.58,3,3,0,0,1,1.37.28,2,2,0,0,1,1.17,1.87,1.89,1.89,0,0,1-.38,1.2,1.68,1.68,0,0,1-.89.66h0a1.87,1.87,0,0,1,1,.74,2.62,2.62,0,0,1,.07,2.56,2,2,0,0,1-.91.82,3,3,0,0,1-1.43.3,3.1,3.1,0,0,1-2-.63,2.32,2.32,0,0,1-.85-1.8h1.25a1.43,1.43,0,0,0,.46,1,1.62,1.62,0,0,0,1.13.38,1.39,1.39,0,0,0,1.07-.38,1.53,1.53,0,0,0-.13-2.13,3,3,0,0,0-1.55-.33h-.29v-1.06h.31a2.56,2.56,0,0,0,1.39-.31,1,1,0,0,0,.48-.93,1.08,1.08,0,0,0-.35-.86,1.43,1.43,0,0,0-1-.33,1.46,1.46,0,0,0-1,.33,1.42,1.42,0,0,0-.42.79H88.31A2.19,2.19,0,0,1,89.08,111.49Z"/><path class="cls-3" d="M100.37,112.26H96.58v2.25a2,2,0,0,1,.71-.53,2.5,2.5,0,0,1,1-.22,2.66,2.66,0,0,1,1.54.41,2.23,2.23,0,0,1,.85,1,3.48,3.48,0,0,1-.07,2.8,2.3,2.3,0,0,1-1,1,3.46,3.46,0,0,1-3.55-.23,2.53,2.53,0,0,1-.89-1.62h1.26A1.42,1.42,0,0,0,97,118a1.75,1.75,0,0,0,1.1.3,1.43,1.43,0,0,0,1.2-.48,1.93,1.93,0,0,0,.4-1.29,1.69,1.69,0,0,0-.41-1.25,1.79,1.79,0,0,0-2.13-.16,1.71,1.71,0,0,0-.55.75h-1.2v-4.76h5Z"/><path class="cls-3" d="M102.5,113.18a2.09,2.09,0,0,1,1.22-1.92,3.9,3.9,0,0,1,3,0,2.09,2.09,0,0,1,1.23,1.93,1.9,1.9,0,0,1-.32,1.11,2.08,2.08,0,0,1-.86.75,2.08,2.08,0,0,1,1.37,2,2.13,2.13,0,0,1-.37,1.3,2.37,2.37,0,0,1-1,.88,3.56,3.56,0,0,1-1.52.3,3.61,3.61,0,0,1-1.51-.3,2.49,2.49,0,0,1-1-.88,2.36,2.36,0,0,1-.38-1.3,2.2,2.2,0,0,1,.38-1.26,2.17,2.17,0,0,1,1-.77A2,2,0,0,1,102.5,113.18ZM104,116a1.29,1.29,0,0,0-.47,1.06,1.34,1.34,0,0,0,.45,1,1.75,1.75,0,0,0,1.23.41,1.7,1.7,0,0,0,1.22-.41,1.31,1.31,0,0,0,.45-1,1.27,1.27,0,0,0-.46-1,2.14,2.14,0,0,0-2.42,0Zm2.3-3.6a1.89,1.89,0,0,0-2.16,0,1.24,1.24,0,0,0-.4,1,1.18,1.18,0,0,0,.42.92,1.48,1.48,0,0,0,1,.36,1.55,1.55,0,0,0,1.07-.36,1.14,1.14,0,0,0,.42-.93A1.19,1.19,0,0,0,106.3,112.37Z"/><g id="WA_Logo" data-name="WA Logo"><path class="cls-4" d="M19.43,111.26a5.22,5.22,0,0,0-8.21,6.3l-.74,2.7,2.76-.72a5.1,5.1,0,0,0,2.5.63h0a5.23,5.23,0,0,0,3.69-8.91Zm-3.69,8h0a4.22,4.22,0,0,1-2.21-.6l-.16-.1-1.64.43.44-1.6-.09-.13a4.34,4.34,0,1,1,3.68,2ZM18.08,116c-.13-.06-.78-.38-.89-.42s-.21-.07-.3.06-.33.43-.41.52-.15.09-.28,0a3.6,3.6,0,0,1-1-.65,4,4,0,0,1-.73-.9.22.22,0,0,1,.06-.27l.2-.23a.74.74,0,0,0,.13-.21.24.24,0,0,0,0-.23c0-.07-.3-.71-.41-1s-.21-.22-.29-.22h-.22a.57.57,0,0,0-.35.16,1.5,1.5,0,0,0-.46,1.14,2.59,2.59,0,0,0,.53,1.35,5.72,5.72,0,0,0,2.23,2c.31.13.55.21.74.27a1.64,1.64,0,0,0,.82.06,1.31,1.31,0,0,0,.88-.62,1,1,0,0,0,.08-.62C18.33,116.11,18.25,116.08,18.08,116Z"/></g><path class="cls-5" d="M14.3,132.5H223.9a12.38,12.38,0,0,1,12.38,12.38h0a12.38,12.38,0,0,1-12.38,12.38H14.3A12.39,12.39,0,0,1,1.92,144.88h0A12.38,12.38,0,0,1,14.3,132.5Z"/><circle class="cls-1" cx="15.66" cy="144.88" r="8.95"/><path class="cls-3" d="M19.85,144.86v.2H19.3v-.26l-.09-.68a.79.79,0,0,0-.05-.22,1.36,1.36,0,0,0-.14-.4v-.06c-.09-.14-.15-.28-.23-.42l-.17-.26v-.06a3.7,3.7,0,0,0-1-.93,1.09,1.09,0,0,0-.23-.14,2.22,2.22,0,0,0-.43-.23h0a4.54,4.54,0,0,0-.65-.23,4.82,4.82,0,0,0-.85-.11h0v-.48c0-.09,0-.09.09-.09H16a.08.08,0,0,1,.11,0,5.51,5.51,0,0,1,.91.23,4.48,4.48,0,0,1,2.07,1.54h0l.09.11a2,2,0,0,1,.22.37,3.28,3.28,0,0,1,.41.94.17.17,0,0,1,0,.17,3.43,3.43,0,0,1,.11.64v.34Z"/><path class="cls-3" d="M10.65,142.42v-.11a.36.36,0,0,1,.06-.2,1,1,0,0,1,.11-.17l.54-.54.2-.17a1.51,1.51,0,0,1,.26-.12h.65a1.19,1.19,0,0,1,.71.66,1.21,1.21,0,0,1,.11.37c.08.28.17.59.23.88a1.15,1.15,0,0,1-.12.81c-.05.08-.11.14-.17.23l-.31.28a.14.14,0,0,0,0,.17h0l.11.34a5.47,5.47,0,0,0,.69,1.16c0,.06.09.12.14.17a4.53,4.53,0,0,0,1.17.92,2.39,2.39,0,0,0,.43.2c.11.06.25.09.37.15a.11.11,0,0,0,.11,0l.31-.32a1.12,1.12,0,0,1,.85-.34,1.43,1.43,0,0,1,.41.09h.06l.81.23h.09a1.09,1.09,0,0,1,.73.81.2.2,0,0,0,.06.17v.47a1.23,1.23,0,0,1-.31.51l-.46.44a.47.47,0,0,1-.21.15.65.65,0,0,1-.31.08h-.5a1.85,1.85,0,0,1-.57-.06c-.2-.05-.39-.05-.59-.11a8.44,8.44,0,0,1-1.08-.34l-.11-.06-.21-.08-.51-.26c-.22-.13-.44-.27-.65-.42l-.54-.43c-.17-.14-.37-.34-.54-.51s-.29-.34-.42-.51l-.12-.14v-.09c-.14-.2-.29-.42-.43-.65s-.17-.31-.26-.48l-.08-.17c0-.06-.14-.34-.2-.51s-.15-.45-.21-.68v-.17a.48.48,0,0,0,0-.29c-.06-.08,0-.11,0-.17a4.43,4.43,0,0,0-.06-.51v-.68Z"/><path class="cls-3" d="M15.25,142.79v-.54s0-.06.05-.06h.43a.25.25,0,0,1,.17,0,2.78,2.78,0,0,1,.57.21,2.86,2.86,0,0,1,1.58,1.95h0a.08.08,0,0,1,0,.11v.41c0,.14,0,.11-.08.09h-.48v-.44a.45.45,0,0,0,0-.28,2,2,0,0,0-.61-.94,2.09,2.09,0,0,0-.91-.53.51.51,0,0,0-.25-.06h-.34Z"/><path class="cls-3" d="M15.33,144.52c-.05,0-.08-.05-.08-.11v-.48a1.33,1.33,0,0,1,.45.08c.06,0,.09,0,.12.06s0,0,.08.06a.78.78,0,0,1,.26.25,1.09,1.09,0,0,1,.14.23.59.59,0,0,1,.08.37v.08H15.9c-.08,0-.08,0-.08-.08a.58.58,0,0,0-.43-.49h-.06Z"/><circle class="cls-1" cx="125.79" cy="144.78" r="8.95"/><path class="cls-3" d="M128.39,140.5a3.26,3.26,0,0,0-1.69-.81,3.33,3.33,0,0,1-.54-.07h-.91a3.21,3.21,0,0,0-.81.1,4,4,0,0,0-2.61,3.73,4.84,4.84,0,0,0,.55,2.23,11.62,11.62,0,0,0,2.66,3.59,1.08,1.08,0,0,0,.58.3h.3a.94.94,0,0,0,.44-.2c.34-.31.64-.61,1-.88a11.14,11.14,0,0,0,1.59-2.16,5.67,5.67,0,0,0,.84-2.68,3.8,3.8,0,0,0-1.38-3.21Zm-2.57,5a2,2,0,0,1,.1-3.9,2,2,0,0,1,1.9,2h0a1.9,1.9,0,0,1-1.89,1.93h-.11Z"/><path class="cls-2" d="M33.49,141.69a1.7,1.7,0,0,0-2.28.43,4.67,4.67,0,0,0-.47,2.3,2,2,0,0,1,.87-.78,2.8,2.8,0,0,1,1.23-.28,2.61,2.61,0,0,1,1.34.33,2.26,2.26,0,0,1,.9.94,3.37,3.37,0,0,1,0,2.91,2.3,2.3,0,0,1-.93,1,3,3,0,0,1-1.49.36,3,3,0,0,1-1.84-.52,2.82,2.82,0,0,1-.94-1.47,9.47,9.47,0,0,1-.27-2.37c0-2.79,1-4.19,3-4.19a2.51,2.51,0,0,1,1.8.62,2.33,2.33,0,0,1,.77,1.52h-1.2A1.33,1.33,0,0,0,33.49,141.69Zm-2.11,3.19a1.49,1.49,0,0,0-.49,1.21,1.74,1.74,0,0,0,.45,1.25,1.7,1.7,0,0,0,1.27.46,1.47,1.47,0,0,0,1.13-.44,1.69,1.69,0,0,0,.42-1.19,1.74,1.74,0,0,0-.41-1.24,1.47,1.47,0,0,0-1.19-.47A1.67,1.67,0,0,0,31.38,144.88Z"/><path class="cls-2" d="M37.47,141.52a2.46,2.46,0,0,1,2.31-1.12,2.43,2.43,0,0,1,2.3,1.12,5.93,5.93,0,0,1,.67,3.09,6.09,6.09,0,0,1-.67,3.13,2.45,2.45,0,0,1-2.3,1.12,2.47,2.47,0,0,1-2.31-1.12,6.3,6.3,0,0,1-.67-3.13A6.13,6.13,0,0,1,37.47,141.52ZM41.35,143a1.93,1.93,0,0,0-.49-1,1.63,1.63,0,0,0-2.17,0,2.09,2.09,0,0,0-.49,1,10.28,10.28,0,0,0-.12,1.57,10.81,10.81,0,0,0,.12,1.61,2.1,2.1,0,0,0,.48,1.06,1.71,1.71,0,0,0,2.19,0,1.94,1.94,0,0,0,.48-1.06,8.67,8.67,0,0,0,.12-1.61A8.24,8.24,0,0,0,41.35,143Z"/><path class="cls-2" d="M44,141.74v-1.19h2.38v8.34H45v-7.15Z"/><path class="cls-2" d="M55.13,141.69a1.7,1.7,0,0,0-2.27.43,4.56,4.56,0,0,0-.47,2.3,2,2,0,0,1,.87-.78,2.8,2.8,0,0,1,1.23-.28,2.55,2.55,0,0,1,1.33.33,2.23,2.23,0,0,1,.91.94,3.52,3.52,0,0,1,0,2.91,2.3,2.3,0,0,1-.93,1,3,3,0,0,1-1.49.36,3.06,3.06,0,0,1-1.85-.52,2.91,2.91,0,0,1-.93-1.47,9.47,9.47,0,0,1-.27-2.37c0-2.79,1-4.19,3-4.19A2.51,2.51,0,0,1,56,141a2.43,2.43,0,0,1,.77,1.52h-1.2A1.33,1.33,0,0,0,55.13,141.69ZM53,144.88a1.52,1.52,0,0,0-.48,1.21,1.74,1.74,0,0,0,.45,1.25,1.69,1.69,0,0,0,1.26.46,1.51,1.51,0,0,0,1.14-.44,1.69,1.69,0,0,0,.42-1.19,1.74,1.74,0,0,0-.41-1.24,1.47,1.47,0,0,0-1.19-.47A1.81,1.81,0,0,0,53,144.88Z"/><path class="cls-2" d="M58.28,141.74v-1.19h2.38v8.34H59.34v-7.15Z"/><path class="cls-2" d="M67.83,141.67H64V144a1.74,1.74,0,0,1,.72-.54,2.35,2.35,0,0,1,1-.22,2.67,2.67,0,0,1,1.56.41,2.26,2.26,0,0,1,.86,1,3.39,3.39,0,0,1,.26,1.3,3.29,3.29,0,0,1-.33,1.51,2.41,2.41,0,0,1-1,1,3.53,3.53,0,0,1-3.59-.24,2.53,2.53,0,0,1-.9-1.64h1.27a1.52,1.52,0,0,0,.56.86,1.85,1.85,0,0,0,1.09.31,1.49,1.49,0,0,0,1.21-.49,1.91,1.91,0,0,0,.41-1.3,1.77,1.77,0,0,0-.41-1.27,1.8,1.8,0,0,0-2.16-.16,1.63,1.63,0,0,0-.55.76H62.79v-4.81h5Z"/><path class="cls-2" d="M72.57,147.15v-1l3.84-5.52H78V146h1.07v1.13H78v1.74H76.71v-1.74Zm4.2-5.17-2.7,4h2.7Z"/><path class="cls-2" d="M84.16,141.69a1.7,1.7,0,0,0-2.28.43,4.67,4.67,0,0,0-.47,2.3,2,2,0,0,1,.87-.78,2.81,2.81,0,0,1,1.24-.28,2.55,2.55,0,0,1,1.33.33,2.26,2.26,0,0,1,.9.94,3.37,3.37,0,0,1,0,2.91,2.3,2.3,0,0,1-.93,1,3,3,0,0,1-1.49.36,3,3,0,0,1-1.84-.52,2.82,2.82,0,0,1-.94-1.47,9.47,9.47,0,0,1-.27-2.37c0-2.79,1-4.19,3-4.19A2.49,2.49,0,0,1,85,141a2.33,2.33,0,0,1,.77,1.52h-1.2A1.32,1.32,0,0,0,84.16,141.69Zm-2.11,3.19a1.49,1.49,0,0,0-.49,1.21,1.74,1.74,0,0,0,.45,1.25,1.7,1.7,0,0,0,1.27.46,1.47,1.47,0,0,0,1.13-.44,2,2,0,0,0,0-2.43,1.47,1.47,0,0,0-1.19-.47A1.76,1.76,0,0,0,82.05,144.88Z"/><path class="cls-2" d="M89.59,147.49a1.64,1.64,0,0,0,1,.3,1.28,1.28,0,0,0,1.19-.64,4.55,4.55,0,0,0,.37-2.18,1.9,1.9,0,0,1-.77.6,2.85,2.85,0,0,1-1.08.21,2.9,2.9,0,0,1-1.35-.31,2.35,2.35,0,0,1-1-.9,3,3,0,0,1-.35-1.46A2.56,2.56,0,0,1,90,140.36a2.67,2.67,0,0,1,.4,0,2.41,2.41,0,0,1,2.22,1,5.9,5.9,0,0,1,.66,3.17A9.44,9.44,0,0,1,93,147a2.56,2.56,0,0,1-.85,1.42,2.71,2.71,0,0,1-1.68.48,2.67,2.67,0,0,1-1.89-.64,2.49,2.49,0,0,1-.74-1.62H89A1.4,1.4,0,0,0,89.59,147.49Zm2-3.24a1.65,1.65,0,0,0,.39-1.14,1.72,1.72,0,0,0-.41-1.23,1.51,1.51,0,0,0-1.14-.44,1.45,1.45,0,0,0-1.14.46,1.85,1.85,0,0,0,0,2.33,1.62,1.62,0,0,0,1.23.45,1.39,1.39,0,0,0,1.11-.43Z"/><path class="cls-2" d="M95.45,147.12c.74-.64,1.31-1.16,1.74-1.57a6.43,6.43,0,0,0,1-1.27,2.29,2.29,0,0,0,.43-1.33,1.52,1.52,0,0,0-.33-1.07,1.21,1.21,0,0,0-1-.39,1.32,1.32,0,0,0-1,.43,1.76,1.76,0,0,0-.39,1.15H94.62a2.53,2.53,0,0,1,2.69-2.69,2.62,2.62,0,0,1,2,.69,2.37,2.37,0,0,1,.7,1.83,3.14,3.14,0,0,1-.42,1.58,6.62,6.62,0,0,1-1,1.36c-.39.4-.88.86-1.47,1.39l-.52.46h3.63v1.08h-5.6v-1Z"/><path class="cls-2" d="M142.88,143.14a3.85,3.85,0,0,1,1.46-1.43,4.31,4.31,0,0,1,4.26.1,3.4,3.4,0,0,1,1.42,1.75h-1.55a2.12,2.12,0,0,0-.85-.93,2.5,2.5,0,0,0-1.26-.3,2.74,2.74,0,0,0-1.39.35,2.41,2.41,0,0,0-1,1,3.64,3.64,0,0,0,0,3.06,2.6,2.6,0,0,0,1,1,2.75,2.75,0,0,0,1.39.36,2.61,2.61,0,0,0,1.26-.31,2,2,0,0,0,.85-.93H150a3.44,3.44,0,0,1-1.42,1.75,4.2,4.2,0,0,1-2.24.61,4.11,4.11,0,0,1-2-.52,3.93,3.93,0,0,1-1.46-1.43,4.22,4.22,0,0,1,0-4.13Z"/><path class="cls-2" d="M152.82,140.79v8.38h-1.29v-8.38Z"/><path class="cls-2" d="M154.45,149a.82.82,0,0,1-.24-.59.85.85,0,0,1,.24-.59.83.83,0,0,1,1.17,0,.81.81,0,0,1,.23.59.78.78,0,0,1-.23.59.83.83,0,0,1-1.17,0Z"/><path class="cls-2" d="M159.85,142.09v-1.18h2.36v8.26h-1.3v-7.08Z"/><path class="cls-2" d="M164.7,147.41c.72-.62,1.3-1.14,1.71-1.54a7.09,7.09,0,0,0,1.05-1.27,2.29,2.29,0,0,0,.42-1.31,1.55,1.55,0,0,0-.32-1.06,1.21,1.21,0,0,0-1-.39,1.25,1.25,0,0,0-1,.43,1.71,1.71,0,0,0-.39,1.13h-1.25a2.65,2.65,0,0,1,.78-2,3,3,0,0,1,3.81,0,2.39,2.39,0,0,1,.7,1.81,3.2,3.2,0,0,1-.41,1.57,6.56,6.56,0,0,1-1,1.35c-.38.4-.86.86-1.45,1.38l-.51.45h3.59V149h-5.51v-.94Z"/><path class="cls-2" d="M172.61,147.79a1.72,1.72,0,0,0,1,.29,1.27,1.27,0,0,0,1.18-.63,4.49,4.49,0,0,0,.37-2.17,1.66,1.66,0,0,1-.76.6,2.76,2.76,0,0,1-1.07.21,3.12,3.12,0,0,1-1.34-.3,2.26,2.26,0,0,1-.94-.9,2.9,2.9,0,0,1-.35-1.44,2.77,2.77,0,0,1,.73-2,2.7,2.7,0,0,1,2-.74,2.36,2.36,0,0,1,2.19,1,5.79,5.79,0,0,1,.66,3.14,9.21,9.21,0,0,1-.25,2.39,2.49,2.49,0,0,1-.84,1.4,2.66,2.66,0,0,1-1.67.48,2.58,2.58,0,0,1-1.86-.64,2.42,2.42,0,0,1-.74-1.59h1.19A1.46,1.46,0,0,0,172.61,147.79Zm2-3.21a1.63,1.63,0,0,0,.39-1.13,1.65,1.65,0,0,0-.42-1.22,1.42,1.42,0,0,0-1.12-.43,1.5,1.5,0,0,0-1.13.44,1.69,1.69,0,0,0-.41,1.18,1.62,1.62,0,0,0,.4,1.13,1.59,1.59,0,0,0,1.22.45,1.4,1.4,0,0,0,1.1-.42Z"/><path class="cls-2" d="M187.43,144l-.42,2h1.49v1.13h-1.73l-.45,2.1h-1.24l.46-2.1h-2.22l-.46,2.1h-1.23l.45-2.1h-1.75V146h2l.42-2H181v-1.13h2l.44-2.06h1.23l-.44,2.06h2.22l.44-2.06h1.24l-.44,2.06h1.5V144Zm-1.24,0H184l-.41,2h2.22Z"/><path class="cls-2" d="M190.37,147.45v-1l3.81-5.46h1.56v5.32h1.06v1.12h-1.06v1.72h-1.27v-1.72Zm4.16-5.12-2.67,4h2.67Z"/><path class="cls-2" d="M203.18,142h-3.79v2.26a1.87,1.87,0,0,1,.71-.54,2.33,2.33,0,0,1,1-.21,2.57,2.57,0,0,1,1.55.41,2.16,2.16,0,0,1,.84,1,3.26,3.26,0,0,1,.26,1.31,3.36,3.36,0,0,1-.32,1.49,2.41,2.41,0,0,1-1,1,3.16,3.16,0,0,1-1.57.37,3.08,3.08,0,0,1-2-.61,2.53,2.53,0,0,1-.89-1.62h1.26a1.42,1.42,0,0,0,.55.84,1.89,1.89,0,0,0,1.08.31,1.49,1.49,0,0,0,1.2-.48,1.93,1.93,0,0,0,.4-1.3,1.73,1.73,0,0,0-.4-1.25,1.56,1.56,0,0,0-1.2-.43,1.47,1.47,0,0,0-.94.28,1.65,1.65,0,0,0-.55.75H198.2v-4.77h5Z"/><path class="cls-2" d="M210.06,144.53v1.08H205.4v-1.08Z"/><path class="cls-2" d="M217.05,142h-3.8v2.26a2,2,0,0,1,.71-.54,2.49,2.49,0,0,1,1-.21,2.57,2.57,0,0,1,1.55.41,2.24,2.24,0,0,1,.85,1,3.25,3.25,0,0,1,.25,1.31,3.11,3.11,0,0,1-.32,1.49,2.41,2.41,0,0,1-1,1,3.27,3.27,0,0,1-1.57.37,3.08,3.08,0,0,1-2-.61,2.55,2.55,0,0,1-.9-1.62h1.26a1.45,1.45,0,0,0,.55.84,1.89,1.89,0,0,0,1.08.31,1.51,1.51,0,0,0,1.21-.48,1.93,1.93,0,0,0,.4-1.3,1.72,1.72,0,0,0-.41-1.25,1.52,1.52,0,0,0-1.2-.43,1.42,1.42,0,0,0-.93.28,1.44,1.44,0,0,0-.55.75H212v-4.77h5Z"/><path class="cls-2" d="M223,142.05a1.37,1.37,0,0,0-.92-.27,1.49,1.49,0,0,0-1.34.69,4.54,4.54,0,0,0-.46,2.27,1.89,1.89,0,0,1,.86-.77,2.75,2.75,0,0,1,1.22-.27,2.63,2.63,0,0,1,1.32.32,2.26,2.26,0,0,1,.9.94,3,3,0,0,1,.32,1.46,2.88,2.88,0,0,1-.31,1.41,2.4,2.4,0,0,1-.92,1,3.37,3.37,0,0,1-3.31-.16,2.68,2.68,0,0,1-.92-1.45,9.32,9.32,0,0,1-.27-2.35c0-2.76,1-4.14,2.92-4.14a2.47,2.47,0,0,1,1.78.61,2.38,2.38,0,0,1,.77,1.51H223.4A1.23,1.23,0,0,0,223,142.05Zm-2.09,3.15a1.51,1.51,0,0,0-.48,1.19,1.56,1.56,0,0,0,1.41,1.7h.29a1.46,1.46,0,0,0,1.12-.44,1.61,1.61,0,0,0,.42-1.18,1.7,1.7,0,0,0-.41-1.22,1.41,1.41,0,0,0-1.18-.46,1.71,1.71,0,0,0-1.22.41Z"/></g></g></svg>